<svg xmlns="http://www.w3.org/2000/svg" xmlns:xlink="http://www.w3.org/1999/xlink" width="1080px" height="1040px" viewBox="0 0 120.7746523471162 116.2676365740597">
    <g id="5eec6cfa-3eb8-49c9-9a1f-a00be2038bf9">
<rect style="stroke: rgb(193,193,193); stroke-opacity: 1.00; stroke-width: 0; stroke-dasharray: none; stroke-linecap: butt; stroke-dashoffset: 0; stroke-linejoin: miter; stroke-miterlimit: 4; fill: none; fill-rule: nonzero; opacity: 1;" x="-60.3873261735581" y="-58.13381828702985" rx="0" ry="0" width="120.7746523471162" height="116.2676365740597" transform="matrix(1 0 0 1 60.387326 58.133818)"></rect>
</g>

        <g id="fca6ac51-02d6-48eb-9a68-dc9d9c8a7f52" name="New Group">
          
        <g id="898a4d8b-a652-44ba-89a7-f0eaef21d2e3" name="New Group">
          <g id="567c35ea-9531-45a2-ade1-f3e604a04051">
<g style="">
		<g id="567c35ea-9531-45a2-ade1-f3e604a04051-child-0">
<path style="stroke: rgb(193,193,193); stroke-opacity: 1.00; stroke-width: 0; stroke-dasharray: none; stroke-linecap: butt; stroke-dashoffset: 0; stroke-linejoin: miter; stroke-miterlimit: 4; fill: rgb(68,132,24); fill-opacity: 1.00; fill-rule: nonzero; opacity: 1;" transform="matrix(0.128312 0 0 0.127881 32.5992 58.133819) matrix(1 0 0 1 0 0)  translate(-173.472105, -357.022575)" d="M 107.33 711.75 C 130.10 659.31 138.07 632.47 141.04 598.08 C 141.81 589.16 141.80 581.97 141.02 572.58 C 137.74 533.54 123.81 499.95 89.96 449.50 C 34.30 366.55 12.88 296.40 1.40 159.50 C -1.03 130.60 0.85 89.93 6.66 45.50 C 8.12 34.32 8.82 31.71 11.65 26.88 C 16.25 19.04 21.07 15.00 25.84 15.00 C 30.78 15.00 37.25 19.14 42.94 25.93 L 47.35 31.20 L 47.49 86.35 L 47.63 141.50 L 54.30 158.36 C 86.74 240.29 118.67 294.12 179.84 370.00 C 198.21 392.78 234.93 437.00 235.48 437.00 C 235.88 437.00 230.24 414.94 227.00 403.87 C 220.40 381.27 213.78 362.10 203.78 336.64 C 197.08 319.58 196.80 318.51 197.43 312.91 C 199.06 298.50 204.22 290.42 214.84 285.65 C 220.46 283.13 221.21 283.04 227.98 284.00 C 237.72 285.38 245.00 289.15 251.53 296.21 C 259.08 304.36 262.91 311.75 274.75 340.94 C 280.45 355.00 289.32 375.27 294.47 386.00 C 332.80 465.81 349.90 529.89 346.05 579.32 C 342.90 619.74 328.90 656.56 299.11 702.74 L 292.50 712.99 L 199.64 712.99 C 125.73 713.00 106.90 712.74 107.33 711.75 M 155.84 305.50 C 120.89 220.31 102.00 153.37 102.00 114.78 C 102.00 106.29 102.38 101.00 103.00 101.00 C 104.85 101.00 111.78 108.02 113.50 111.64 C 114.44 113.61 116.24 119.12 117.51 123.87 C 119.47 131.20 120.01 136.99 121.09 162.25 L 122.36 192.00 L 126.57 194.03 C 138.51 199.82 147.94 216.33 153.95 242.00 C 157.90 258.91 167.53 324.30 166.80 329.36 C 166.63 330.60 161.98 320.49 155.84 305.50 M 131.26 281.31 C 130.18 279.76 125.03 271.30 119.81 262.50 C 94.93 220.55 82.33 194.25 69.40 157.31 L 64.08 142.12 L 63.06 118.81 C 62.50 105.99 61.55 81.33 60.96 64.00 C 59.64 25.11 59.13 22.89 49.30 13.22 L 42.92 6.93 L 49.49 3.86 C 55.24 1.16 56.92 0.83 62.82 1.16 C 72.68 1.72 79.40 5.37 84.19 12.79 C 88.20 19.00 91.37 25.87 92.40 30.56 C 92.76 32.19 92.39 43.20 91.59 55.02 C 87.87 109.32 88.27 118.51 95.97 157.07 C 104.16 198.08 111.94 225.24 126.90 264.99 C 130.73 275.15 133.72 283.62 133.54 283.79 C 133.36 283.97 132.34 282.85 131.26 281.31 Z" stroke-linecap="round"></path>
</g>
</g>
</g>

<g id="7877ccd3-9e72-43ef-98d2-fb10a8ca1771">
<g style="">
		<g id="7877ccd3-9e72-43ef-98d2-fb10a8ca1771-child-0">
<path style="stroke: rgb(193,193,193); stroke-opacity: 1.00; stroke-width: 0; stroke-dasharray: none; stroke-linecap: butt; stroke-dashoffset: 0; stroke-linejoin: miter; stroke-miterlimit: 4; fill: rgb(68,132,24); fill-opacity: 1.00; fill-rule: nonzero; opacity: 1;" transform="matrix(-0.128312 0 0 0.127878 88.175452 58.134389) matrix(1 0 0 1 0 0)  translate(-173.472105, -357.022575)" d="M 107.33 711.75 C 130.10 659.31 138.07 632.47 141.04 598.08 C 141.81 589.16 141.80 581.97 141.02 572.58 C 137.74 533.54 123.81 499.95 89.96 449.50 C 34.30 366.55 12.88 296.40 1.40 159.50 C -1.03 130.60 0.85 89.93 6.66 45.50 C 8.12 34.32 8.82 31.71 11.65 26.88 C 16.25 19.04 21.07 15.00 25.84 15.00 C 30.78 15.00 37.25 19.14 42.94 25.93 L 47.35 31.20 L 47.49 86.35 L 47.63 141.50 L 54.30 158.36 C 86.74 240.29 118.67 294.12 179.84 370.00 C 198.21 392.78 234.93 437.00 235.48 437.00 C 235.88 437.00 230.24 414.94 227.00 403.87 C 220.40 381.27 213.78 362.10 203.78 336.64 C 197.08 319.58 196.80 318.51 197.43 312.91 C 199.06 298.50 204.22 290.42 214.84 285.65 C 220.46 283.13 221.21 283.04 227.98 284.00 C 237.72 285.38 245.00 289.15 251.53 296.21 C 259.08 304.36 262.91 311.75 274.75 340.94 C 280.45 355.00 289.32 375.27 294.47 386.00 C 332.80 465.81 349.90 529.89 346.05 579.32 C 342.90 619.74 328.90 656.56 299.11 702.74 L 292.50 712.99 L 199.64 712.99 C 125.73 713.00 106.90 712.74 107.33 711.75 M 155.84 305.50 C 120.89 220.31 102.00 153.37 102.00 114.78 C 102.00 106.29 102.38 101.00 103.00 101.00 C 104.85 101.00 111.78 108.02 113.50 111.64 C 114.44 113.61 116.24 119.12 117.51 123.87 C 119.47 131.20 120.01 136.99 121.09 162.25 L 122.36 192.00 L 126.57 194.03 C 138.51 199.82 147.94 216.33 153.95 242.00 C 157.90 258.91 167.53 324.30 166.80 329.36 C 166.63 330.60 161.98 320.49 155.84 305.50 M 131.26 281.31 C 130.18 279.76 125.03 271.30 119.81 262.50 C 94.93 220.55 82.33 194.25 69.40 157.31 L 64.08 142.12 L 63.06 118.81 C 62.50 105.99 61.55 81.33 60.96 64.00 C 59.64 25.11 59.13 22.89 49.30 13.22 L 42.92 6.93 L 49.49 3.86 C 55.24 1.16 56.92 0.83 62.82 1.16 C 72.68 1.72 79.40 5.37 84.19 12.79 C 88.20 19.00 91.37 25.87 92.40 30.56 C 92.76 32.19 92.39 43.20 91.59 55.02 C 87.87 109.32 88.27 118.51 95.97 157.07 C 104.16 198.08 111.94 225.24 126.90 264.99 C 130.73 275.15 133.72 283.62 133.54 283.79 C 133.36 283.97 132.34 282.85 131.26 281.31 Z" stroke-linecap="round"></path>
</g>
</g>
</g>

        </g>
      
<g id="1ac40857-822c-48ac-835d-235241a09e6c">
<g style="">
		<g id="1ac40857-822c-48ac-835d-235241a09e6c-child-0">
<path style="stroke: rgb(193,193,193); stroke-opacity: 1.00; stroke-width: 0; stroke-dasharray: none; stroke-linecap: butt; stroke-dashoffset: 0; stroke-linejoin: miter; stroke-miterlimit: 4; fill: rgb(68,132,24); fill-opacity: 1.00; fill-rule: nonzero; opacity: 1;" d="M70.9721,12.61287c-4.55167,0.0163 -8.68297,2.66439 -10.59845,6.79342c-2.34473,-4.96743 -7.82273,-7.64238 -13.1818,-6.43677c-5.35907,1.20562 -9.16372,5.96885 -9.15519,11.46186c0.03466,13.1772 13.33626,16.59657 22.42941,29.5996c8.53066,-12.96926 22.30411,-16.96179 22.27123,-29.71867c-0.02156,-6.47816 -5.28702,-11.71419 -11.7652,-11.69944z" stroke-linecap="round"></path>
</g>
</g>
</g>

        </g>
      
  </svg>