<svg xmlns="http://www.w3.org/2000/svg" xmlns:xlink="http://www.w3.org/1999/xlink" width="197px" height="94px" viewBox="0 0 197.4884617685138 93.90826507350982">
    <g id="e6b25a53-c6c9-4c06-bd8a-74519c71c40e">
<rect style="stroke: rgb(193,193,193); stroke-width: 0; stroke-dasharray: none; stroke-linecap: butt; stroke-dashoffset: 0; stroke-linejoin: miter; stroke-miterlimit: 4; fill: none; fill-rule: nonzero; opacity: 1;" x="-98.7442308842569" y="-46.95413253675491" rx="0" ry="0" width="197.4884617685138" height="93.90826507350982" transform="matrix(1 0 0 1 98.744231 46.954133)"/>
</g>
<g id="83ed3545-6bb0-4969-9d4e-60deb1e30741">
<g style="">
		<g id="83ed3545-6bb0-4969-9d4e-60deb1e30741-child-0">
<path style="stroke: rgb(193,193,193); stroke-width: 0; stroke-dasharray: none; stroke-linecap: butt; stroke-dashoffset: 0; stroke-linejoin: miter; stroke-miterlimit: 4; fill: rgb(255,255,255); fill-rule: nonzero; opacity: 1;" transform="matrix(0.107957 0 0 0.107594 75.364695 46.95378) matrix(1 0 0 1 0 0)  translate(-173.472105, -357.022575)" d="M 107.33 711.75 C 130.10 659.31 138.07 632.47 141.04 598.08 C 141.81 589.16 141.80 581.97 141.02 572.58 C 137.74 533.54 123.81 499.95 89.96 449.50 C 34.30 366.55 12.88 296.40 1.40 159.50 C -1.03 130.60 0.85 89.93 6.66 45.50 C 8.12 34.32 8.82 31.71 11.65 26.88 C 16.25 19.04 21.07 15.00 25.84 15.00 C 30.78 15.00 37.25 19.14 42.94 25.93 L 47.35 31.20 L 47.49 86.35 L 47.63 141.50 L 54.30 158.36 C 86.74 240.29 118.67 294.12 179.84 370.00 C 198.21 392.78 234.93 437.00 235.48 437.00 C 235.88 437.00 230.24 414.94 227.00 403.87 C 220.40 381.27 213.78 362.10 203.78 336.64 C 197.08 319.58 196.80 318.51 197.43 312.91 C 199.06 298.50 204.22 290.42 214.84 285.65 C 220.46 283.13 221.21 283.04 227.98 284.00 C 237.72 285.38 245.00 289.15 251.53 296.21 C 259.08 304.36 262.91 311.75 274.75 340.94 C 280.45 355.00 289.32 375.27 294.47 386.00 C 332.80 465.81 349.90 529.89 346.05 579.32 C 342.90 619.74 328.90 656.56 299.11 702.74 L 292.50 712.99 L 199.64 712.99 C 125.73 713.00 106.90 712.74 107.33 711.75 M 155.84 305.50 C 120.89 220.31 102.00 153.37 102.00 114.78 C 102.00 106.29 102.38 101.00 103.00 101.00 C 104.85 101.00 111.78 108.02 113.50 111.64 C 114.44 113.61 116.24 119.12 117.51 123.87 C 119.47 131.20 120.01 136.99 121.09 162.25 L 122.36 192.00 L 126.57 194.03 C 138.51 199.82 147.94 216.33 153.95 242.00 C 157.90 258.91 167.53 324.30 166.80 329.36 C 166.63 330.60 161.98 320.49 155.84 305.50 M 131.26 281.31 C 130.18 279.76 125.03 271.30 119.81 262.50 C 94.93 220.55 82.33 194.25 69.40 157.31 L 64.08 142.12 L 63.06 118.81 C 62.50 105.99 61.55 81.33 60.96 64.00 C 59.64 25.11 59.13 22.89 49.30 13.22 L 42.92 6.93 L 49.49 3.86 C 55.24 1.16 56.92 0.83 62.82 1.16 C 72.68 1.72 79.40 5.37 84.19 12.79 C 88.20 19.00 91.37 25.87 92.40 30.56 C 92.76 32.19 92.39 43.20 91.59 55.02 C 87.87 109.32 88.27 118.51 95.97 157.07 C 104.16 198.08 111.94 225.24 126.90 264.99 C 130.73 275.15 133.72 283.62 133.54 283.79 C 133.36 283.97 132.34 282.85 131.26 281.31 Z" stroke-linecap="round"/>
</g>
</g>
</g>
<g id="f05c2470-3fa1-40d1-acc0-6e2caa66cc94">
<g style="">
		<g id="f05c2470-3fa1-40d1-acc0-6e2caa66cc94-child-0">
<path style="stroke: rgb(193,193,193); stroke-width: 0; stroke-dasharray: none; stroke-linecap: butt; stroke-dashoffset: 0; stroke-linejoin: miter; stroke-miterlimit: 4; fill: rgb(255,255,255); fill-rule: nonzero; opacity: 1;" transform="matrix(-0.107957 0 0 0.107592 122.124272 46.954122) matrix(1 0 0 1 0 0)  translate(-173.472105, -357.022575)" d="M 107.33 711.75 C 130.10 659.31 138.07 632.47 141.04 598.08 C 141.81 589.16 141.80 581.97 141.02 572.58 C 137.74 533.54 123.81 499.95 89.96 449.50 C 34.30 366.55 12.88 296.40 1.40 159.50 C -1.03 130.60 0.85 89.93 6.66 45.50 C 8.12 34.32 8.82 31.71 11.65 26.88 C 16.25 19.04 21.07 15.00 25.84 15.00 C 30.78 15.00 37.25 19.14 42.94 25.93 L 47.35 31.20 L 47.49 86.35 L 47.63 141.50 L 54.30 158.36 C 86.74 240.29 118.67 294.12 179.84 370.00 C 198.21 392.78 234.93 437.00 235.48 437.00 C 235.88 437.00 230.24 414.94 227.00 403.87 C 220.40 381.27 213.78 362.10 203.78 336.64 C 197.08 319.58 196.80 318.51 197.43 312.91 C 199.06 298.50 204.22 290.42 214.84 285.65 C 220.46 283.13 221.21 283.04 227.98 284.00 C 237.72 285.38 245.00 289.15 251.53 296.21 C 259.08 304.36 262.91 311.75 274.75 340.94 C 280.45 355.00 289.32 375.27 294.47 386.00 C 332.80 465.81 349.90 529.89 346.05 579.32 C 342.90 619.74 328.90 656.56 299.11 702.74 L 292.50 712.99 L 199.64 712.99 C 125.73 713.00 106.90 712.74 107.33 711.75 M 155.84 305.50 C 120.89 220.31 102.00 153.37 102.00 114.78 C 102.00 106.29 102.38 101.00 103.00 101.00 C 104.85 101.00 111.78 108.02 113.50 111.64 C 114.44 113.61 116.24 119.12 117.51 123.87 C 119.47 131.20 120.01 136.99 121.09 162.25 L 122.36 192.00 L 126.57 194.03 C 138.51 199.82 147.94 216.33 153.95 242.00 C 157.90 258.91 167.53 324.30 166.80 329.36 C 166.63 330.60 161.98 320.49 155.84 305.50 M 131.26 281.31 C 130.18 279.76 125.03 271.30 119.81 262.50 C 94.93 220.55 82.33 194.25 69.40 157.31 L 64.08 142.12 L 63.06 118.81 C 62.50 105.99 61.55 81.33 60.96 64.00 C 59.64 25.11 59.13 22.89 49.30 13.22 L 42.92 6.93 L 49.49 3.86 C 55.24 1.16 56.92 0.83 62.82 1.16 C 72.68 1.72 79.40 5.37 84.19 12.79 C 88.20 19.00 91.37 25.87 92.40 30.56 C 92.76 32.19 92.39 43.20 91.59 55.02 C 87.87 109.32 88.27 118.51 95.97 157.07 C 104.16 198.08 111.94 225.24 126.90 264.99 C 130.73 275.15 133.72 283.62 133.54 283.79 C 133.36 283.97 132.34 282.85 131.26 281.31 Z" stroke-linecap="round"/>
</g>
</g>
</g>
<g id="93dc36af-fce5-4c80-b00c-275f6e01e442">
<g style="">
		<g id="93dc36af-fce5-4c80-b00c-275f6e01e442-child-0">
<path style="stroke: rgb(193,193,193); stroke-width: 0; stroke-dasharray: none; stroke-linecap: butt; stroke-dashoffset: 0; stroke-linejoin: miter; stroke-miterlimit: 4; fill: rgb(255,255,255); fill-rule: nonzero; opacity: 1;" d="M107.65003,8.65426c-3.82959,0.01371 -7.3055,2.24171 -8.9171,5.71571c-1.97276,-4.1794 -6.58172,-6.42999 -11.09062,-5.41563c-4.5089,1.01436 -7.70998,5.02195 -7.7028,9.64353c0.02916,11.08675 11.22058,13.96367 18.87118,24.90389c7.17734,-10.91181 18.76576,-14.27095 18.7381,-25.00407c-0.01814,-5.45046 -4.44828,-9.85584 -9.89875,-9.84343z" stroke-linecap="round"/>
</g>
</g>
</g>
<g id="d47dfef3-8a3c-4863-9cdb-76b414ab33a7">
<g style="">
		<g id="d47dfef3-8a3c-4863-9cdb-76b414ab33a7-child-0">
<path style="stroke: rgb(193,193,193); stroke-width: 0; stroke-dasharray: none; stroke-linecap: butt; stroke-dashoffset: 0; stroke-linejoin: miter; stroke-miterlimit: 4; fill: rgb(255,255,255); fill-rule: nonzero; opacity: 1;" transform="matrix(0.04946 -0.023038 0.023038 0.04946 154.904534 46.953431) matrix(1 0 0 1 0 0)  translate(-531.166992, -701.94353)" d="M 842.00 375.16 C 839.27 347.65 834.50 320.38 827.74 293.58 C 826.37 288.12 825.78 282.49 826.00 276.86 C 827.14 252.32 830.85 228.18 839.23 204.95 C 843.91 191.95 849.06 179.13 853.64 166.10 C 857.38 155.45 861.14 144.75 863.81 133.81 C 865.41 127.25 865.11 120.18 865.24 113.34 C 865.24 112.18 863.18 110.85 861.85 109.94 C 861.61 109.78 859.85 111.10 859.46 112.02 C 850.66 131.46 841.78 150.86 833.29 170.43 C 826.29 186.54 819.78 202.85 813.05 219.06 C 812.68 220.26 812.16 221.40 811.51 222.47 C 810.87 223.33 809.69 224.47 808.88 224.35 C 807.81 223.97 807.00 223.08 806.72 221.97 C 805.47 212.03 803.31 202.07 803.45 192.14 C 804.20 137.58 825.27 90.84 860.58 50.27 C 872.92 36.00 885.68 22.22 896.26 6.56 C 897.68 4.53 899.27 2.61 901.00 0.83 C 902.62 -0.88 906.46 0.22 907.08 2.67 C 908.14 6.26 908.86 9.95 909.26 13.67 C 910.12 26.18 910.54 38.67 911.37 51.24 C 915.37 111.95 902.83 168.47 869.27 219.81 C 863.09 229.27 857.27 239.01 851.86 248.92 C 845.13 261.25 841.10 274.25 843.60 288.69 C 844.88 296.08 844.97 303.69 846.02 311.12 C 849.51 335.98 853.17 360.81 856.83 385.63 C 857.00 386.75 857.59 388.51 858.29 388.63 C 859.53 388.73 860.74 388.25 861.58 387.33 C 872.89 373.89 883.49 359.78 895.47 346.96 C 921.78 318.81 943.33 287.17 964.36 255.14 C 969.51 247.30 973.46 238.67 977.80 230.32 C 978.09 229.25 977.80 228.11 977.03 227.32 C 975.99 226.96 974.83 227.16 973.97 227.86 C 970.30 232.14 966.76 236.54 963.31 241.01 C 951.06 257.00 938.92 273.00 926.57 288.87 C 921.57 295.31 916.18 301.47 910.80 307.61 C 909.70 308.86 907.80 309.43 906.33 310.32 C 905.88 308.08 904.63 305.66 905.11 303.65 C 910.69 280.29 919.23 258.10 931.90 237.65 C 948.14 211.48 966.76 186.87 987.53 164.13 C 1004.24 145.77 1024.32 131.99 1045.53 119.58 C 1047.74 118.41 1050.05 117.43 1052.44 116.67 C 1055.99 115.38 1058.78 117.81 1057.73 121.57 C 1055.01 131.23 1052.22 140.87 1049.10 150.41 Q 1031.27 204.98 1013.19 259.48 C 1008.96 272.25 1001.57 282.96 992.19 292.60 C 971.93 313.49 950.00 332.00 922.12 342.08 C 911.12 346.08 902.56 353.08 895.57 362.35 C 888.75 371.35 881.38 379.96 874.84 389.17 C 863.02 405.82 855.17 423.55 855.54 444.97 C 855.85 462.41 853.20 479.97 851.20 497.37 C 849.20 514.77 846.29 532.13 844.03 549.54 C 843.75 551.68 845.03 554.02 845.55 556.27 C 846.96 555.08 848.63 554.10 849.74 552.68 C 862.57 536.43 875.08 519.93 888.13 503.86 C 901.66 487.18 913.86 469.55 922.56 450.02 C 928.63 436.39 932.02 421.55 936.46 407.20 C 936.73 406.33 935.64 405.04 935.18 403.95 C 934.31 404.53 933.07 404.95 932.62 405.74 C 930.83 409.03 929.43 412.53 927.62 415.82 C 917.38 434.54 907.28 453.35 896.62 471.82 C 893.21 477.75 888.37 482.87 884.03 488.22 C 883.19 489.12 881.99 489.59 880.76 489.48 C 879.70 488.95 878.99 487.92 878.86 486.75 C 879.02 477.41 878.06 467.75 879.96 458.75 C 884.36 437.91 890.51 417.46 895.31 396.70 C 899.01 380.70 909.23 370.49 922.77 362.70 C 925.48 361.14 928.24 359.61 931.10 358.32 C 948.83 350.32 966.19 341.57 982.43 330.75 C 986.60 327.97 989.37 329.75 989.14 335.12 C 988.20 357.03 987.52 378.96 985.92 400.82 C 984.76 419.01 980.93 436.94 974.58 454.03 C 961.96 487.11 939.22 509.81 905.28 520.84 C 900.51 522.39 895.49 523.40 890.97 525.50 C 886.45 527.60 881.65 529.87 878.72 533.50 C 856.04 561.50 836.66 591.32 828.65 627.33 C 821.18 661.70 811.61 695.57 800.00 728.77 C 798.91 731.71 798.01 734.72 797.29 737.77 C 797.18 738.91 797.64 740.02 798.50 740.77 C 799.59 741.36 800.89 741.44 802.04 740.98 C 817.88 732.20 834.88 725.20 847.20 711.05 C 851.73 705.84 856.80 701.11 861.47 696.05 C 878.86 677.05 900.68 664.95 924.27 655.69 C 964.10 640.07 1005.97 636.69 1048.16 635.59 C 1051.84 635.49 1055.58 636.50 1059.24 637.26 C 1061.91 637.82 1063.18 641.17 1061.54 643.03 C 1059.90 644.89 1058.08 646.66 1056.26 648.37 Q 1029.52 673.52 1002.72 698.65 C 995.39 705.52 988.27 712.65 980.56 719.07 C 950.56 744.02 916.34 751.96 878.32 743.16 C 876.06 742.63 874.04 741.02 871.91 739.92 C 873.73 737.82 875.16 735.05 877.44 733.73 C 890.44 726.16 903.76 719.10 916.79 711.55 C 927.09 705.55 937.23 699.32 947.21 692.83 C 948.82 691.83 949.21 688.92 950.21 686.89 C 948.44 686.89 946.41 686.24 944.94 686.89 C 922.60 696.89 900.04 706.39 878.12 717.22 C 856.79 727.76 836.43 740.22 814.04 748.67 C 809.96 750.21 806.13 752.46 802.19 754.39 C 792.19 759.29 785.65 766.68 781.32 777.39 C 772.58 798.90 762.76 820.00 752.69 840.93 C 747.28 852.21 740.30 862.72 734.37 873.77 C 733.37 875.69 734.03 878.54 733.93 880.96 C 735.69 880.90 737.59 881.28 739.19 880.73 Q 790.88 863.15 842.52 845.37 C 850.23 842.73 857.99 840.21 865.66 837.45 C 866.46 836.76 866.84 835.70 866.66 834.66 C 866.12 833.59 865.11 832.83 863.94 832.60 C 861.44 832.46 858.93 832.62 856.47 833.10 C 843.53 835.69 830.65 838.50 817.71 841.10 C 811.15 842.40 804.52 843.35 797.92 844.45 C 798.92 835.83 806.66 833.25 812.25 829.05 C 824.89 819.62 839.51 813.17 855.00 810.19 C 873.59 806.41 892.28 805.35 911.14 805.05 C 931.94 804.72 950.56 811.65 968.28 821.64 C 974.92 825.38 974.92 828.48 968.34 831.81 C 942.59 844.81 917.01 858.24 890.84 870.37 C 877.25 876.67 862.72 881.17 848.31 885.44 C 832.97 889.98 816.52 891.34 802.12 884.44 C 788.67 878.00 776.91 879.44 764.25 884.12 C 756.02 887.18 747.81 890.32 739.50 893.12 C 725.90 897.75 716.01 906.12 708.33 918.60 C 682.33 961.03 651.56 999.95 617.87 1036.55 C 614.87 1039.78 611.87 1042.99 609.10 1046.36 C 608.39 1047.28 608.14 1048.47 608.43 1049.59 C 609.12 1050.48 610.21 1050.95 611.33 1050.85 C 616.18 1049.58 621.14 1048.45 625.72 1046.48 C 642.45 1039.30 659.26 1032.28 675.60 1024.30 C 691.94 1016.32 706.81 1005.59 718.66 991.35 C 720.29 989.45 721.71 987.38 722.89 985.17 C 723.24 984.07 723.06 982.87 722.40 981.93 C 722.11 981.53 720.19 981.76 719.45 982.31 C 715.94 984.94 712.62 987.82 709.15 990.52 C 696.85 1000.28 683.31 1008.38 668.88 1014.59 C 667.25 1015.27 665.27 1015.13 663.46 1015.38 C 663.56 1013.61 663.07 1011.52 663.84 1010.13 C 671.78 995.89 678.79 980.96 688.24 967.78 C 705.69 943.47 730.00 928.39 759.05 921.00 C 763.87 919.78 768.93 919.43 773.90 919.00 C 775.13 919.07 776.25 919.74 776.90 920.79 C 777.17 921.94 776.92 923.14 776.22 924.09 C 770.59 931.61 764.01 938.55 759.30 946.59 C 750.74 961.21 742.30 976.06 735.58 991.59 C 725.88 1013.95 709.26 1029.65 689.72 1042.59 C 679.32 1049.50 668.03 1055.37 654.53 1053.82 C 651.53 1053.48 648.32 1054.43 645.39 1055.36 Q 631.95 1059.62 618.71 1064.44 C 617.39 1064.93 616.60 1066.87 615.56 1068.14 C 616.94 1069.24 618.16 1070.90 619.72 1071.35 C 640.81 1077.45 661.78 1084.09 683.12 1089.18 C 707.96 1095.10 732.98 1093.97 757.65 1087.18 C 761.83 1086.03 766.26 1084.94 768.14 1080.18 C 769.14 1077.58 767.68 1077.44 757.25 1078.58 C 748.51 1079.53 739.76 1080.82 730.99 1080.99 C 719.73 1081.21 708.44 1080.57 697.18 1079.99 C 694.05 1079.70 690.97 1079.03 688.01 1077.99 C 686.93 1077.48 686.13 1076.52 685.83 1075.36 C 685.81 1074.28 686.35 1073.26 687.25 1072.67 C 694.10 1069.59 700.87 1066.20 707.98 1063.85 C 730.29 1056.47 753.46 1054.27 776.75 1054.60 C 791.16 1054.98 805.52 1056.32 819.75 1058.60 C 831.01 1060.28 841.61 1064.94 850.46 1072.10 C 854.46 1075.32 853.46 1080.45 848.54 1082.10 C 828.38 1089.10 808.17 1095.90 788.05 1102.99 C 776.81 1106.99 765.71 1111.32 754.55 1115.49 C 726.39 1126.01 700.15 1121.07 675.60 1105.09 C 654.05 1091.09 629.60 1085.63 605.05 1080.45 C 595.66 1078.51 585.88 1080.42 577.90 1085.73 C 561.00 1096.54 543.82 1107.00 527.56 1118.73 C 500.56 1138.21 473.38 1157.30 443.88 1172.87 C 442.17 1173.65 440.54 1174.59 439.01 1175.68 C 438.08 1176.48 437.45 1177.56 437.21 1178.76 C 436.68 1181.83 439.32 1181.42 440.88 1181.38 C 498.12 1179.93 554.88 1184.90 611.55 1192.77 C 616.53 1193.38 621.54 1193.73 626.55 1193.83 C 627.55 1193.83 628.68 1192.75 629.74 1192.16 C 629.14 1191.26 628.74 1189.76 627.92 1189.55 C 614.61 1185.95 601.33 1182.22 587.92 1179.15 C 579.99 1177.33 571.79 1176.76 563.78 1175.29 C 562.33 1175.02 561.17 1173.14 559.87 1172.01 C 560.87 1171.37 561.68 1170.42 562.72 1170.14 C 574.94 1166.87 587.44 1164.90 600.00 1166.60 C 628.09 1170.40 655.53 1176.83 681.63 1188.33 C 699.91 1196.33 714.46 1209.02 726.99 1224.21 C 730.57 1228.55 728.99 1232.65 723.44 1233.49 C 709.79 1235.56 696.09 1237.38 682.44 1239.15 C 667.51 1241.09 652.60 1243.47 637.60 1244.53 C 620.03 1245.74 602.39 1244.58 585.13 1241.09 C 562.77 1236.61 543.39 1226.43 529.96 1207.84 C 522.85 1198.02 514.62 1194.03 503.12 1194.08 C 476.77 1194.19 450.40 1193.31 424.12 1194.08 C 409.12 1194.55 394.04 1197.15 380.05 1203.25 C 355.86 1213.78 330.83 1222.28 305.23 1228.65 C 298.58 1230.32 292.23 1233.04 285.81 1235.65 C 285.23 1235.88 284.98 1239.24 285.71 1239.91 C 287.64 1241.51 289.83 1242.78 292.18 1243.66 C 317.53 1254.48 342.57 1266.18 368.42 1275.66 C 385.42 1281.89 403.52 1284.99 421.19 1289.24 C 424.19 1289.95 427.42 1289.41 430.54 1289.32 C 431.00 1289.32 431.67 1288.63 431.81 1288.14 C 431.95 1287.65 431.69 1286.63 431.35 1286.50 C 429.03 1285.61 426.62 1284.97 424.29 1284.11 C 401.29 1275.64 378.38 1267.18 355.49 1258.53 C 354.20 1258.04 353.49 1255.93 352.56 1254.53 C 353.66 1254.14 354.77 1253.38 355.86 1253.43 C 420.58 1256.00 478.07 1278.88 530.00 1317.00 C 531.07 1317.64 532.00 1318.50 532.73 1319.52 C 533.41 1321.04 533.95 1322.61 534.34 1324.23 C 533.22 1324.46 532.01 1325.05 530.97 1324.84 C 511.79 1320.84 492.33 1321.03 472.88 1320.69 C 447.79 1320.25 422.69 1319.82 397.63 1318.62 C 385.74 1317.91 373.91 1316.37 362.24 1314.00 C 348.92 1311.45 337.51 1304.92 329.03 1294.00 Q 320.38 1282.89 312.19 1271.41 C 309.26 1267.31 306.67 1263.14 301.62 1261.12 C 288.22 1255.77 274.99 1250.00 261.55 1244.79 C 253.80 1241.79 245.76 1241.85 237.46 1243.20 C 211.44 1247.55 185.13 1249.89 158.75 1250.20 C 156.24 1250.22 153.75 1250.49 151.29 1250.99 C 150.16 1251.22 149.19 1251.96 148.67 1252.99 C 148.57 1254.21 148.99 1255.41 149.82 1256.30 C 158.42 1265.44 167.11 1274.49 175.77 1283.56 C 184.44 1305.31 203.01 1315.29 223.15 1323.40 C 223.73 1323.63 224.27 1323.96 224.85 1324.21 C 239.19 1330.57 253.53 1336.96 267.92 1343.21 C 268.99 1343.41 270.09 1343.03 270.81 1342.21 C 271.22 1341.38 270.98 1339.43 270.34 1339.02 C 262.98 1334.26 255.52 1329.65 248.03 1325.11 C 236.24 1317.96 224.36 1310.95 212.65 1303.68 C 211.65 1303.03 211.51 1300.85 210.98 1299.39 C 212.14 1299.05 213.37 1298.28 214.46 1298.39 C 240.16 1302.19 264.74 1308.99 286.30 1324.39 C 312.38 1343.04 331.14 1367.98 347.83 1394.78 C 348.23 1395.27 348.50 1395.85 348.59 1396.48 C 348.44 1398.77 348.59 1401.27 347.66 1403.23 C 347.29 1403.99 344.13 1404.09 342.61 1403.52 Q 309.97 1391.32 277.44 1378.81 C 265.12 1374.10 252.69 1369.65 240.60 1364.39 C 223.81 1357.08 208.11 1347.77 194.96 1334.86 C 190.10 1330.09 184.39 1324.86 182.47 1318.71 C 177.74 1303.71 167.65 1292.76 158.06 1281.23 C 141.26 1261.05 119.55 1249.65 94.06 1244.59 C 77.44 1241.31 60.74 1238.04 44.52 1233.26 C 30.15 1229.02 16.33 1222.85 2.45 1217.09 C 0.96 1216.47 -0.36 1212.54 0.19 1210.74 C 0.67 1209.13 3.80 1207.52 5.86 1207.39 C 8.17 1207.24 10.70 1208.51 12.96 1209.55 C 42.41 1223.07 74.22 1227.73 105.54 1234.16 C 111.67 1235.42 117.98 1235.79 124.19 1236.66 C 130.19 1237.51 135.36 1235.94 139.42 1231.26 C 158.71 1209.01 180.54 1188.79 193.61 1161.65 C 199.87 1148.65 206.91 1136.01 213.40 1123.11 C 213.99 1121.93 213.07 1119.99 212.85 1118.40 C 211.85 1118.88 210.34 1119.07 209.77 1119.88 Q 195.77 1139.88 181.93 1160.08 C 177.34 1166.81 173.06 1173.75 168.48 1180.49 C 167.94 1181.27 166.37 1181.35 165.28 1181.75 C 164.93 1180.75 164.04 1179.58 164.28 1178.75 C 169.62 1161.37 174.93 1143.99 180.64 1126.75 C 182.13 1122.61 184.25 1118.72 186.94 1115.24 C 204.30 1091.91 223.84 1070.72 248.81 1055.32 C 256.81 1050.41 265.39 1046.50 273.93 1042.63 C 275.73 1041.81 279.37 1042.35 280.58 1043.69 C 281.79 1045.03 281.81 1048.33 281.45 1050.62 C 281.09 1052.91 279.70 1055.29 278.66 1057.62 C 267.50 1082.30 257.00 1107.20 245.00 1131.39 C 237.43 1146.57 228.72 1161.14 218.94 1175.00 C 208.05 1190.50 194.65 1203.89 176.83 1211.70 C 167.13 1215.96 161.36 1224.22 154.98 1231.91 C 154.30 1232.73 153.84 1234.73 154.33 1235.32 C 155.33 1236.52 157.06 1237.94 158.39 1237.85 C 180.29 1236.31 202.25 1235.23 224.01 1232.52 C 233.37 1231.41 242.37 1228.27 250.39 1223.32 C 278.15 1205.46 302.22 1183.70 317.12 1153.32 C 331.22 1124.57 345.54 1095.94 359.70 1067.22 C 360.16 1066.29 359.86 1064.99 359.91 1063.86 C 358.39 1064.48 356.41 1064.68 355.41 1065.78 C 343.88 1078.45 336.10 1093.55 327.97 1108.43 C 324.71 1114.43 321.24 1120.30 317.87 1126.23 C 314.76 1118.62 318.70 1111.75 320.45 1104.80 C 324.35 1088.91 330.72 1073.72 339.32 1059.80 C 354.77 1035.11 377.99 1021.06 405.18 1012.80 C 408.63 1011.80 412.59 1011.93 416.27 1012.19 C 420.21 1012.47 422.65 1016.55 421.69 1020.42 C 421.39 1021.63 420.93 1022.81 420.52 1024.00 C 413.39 1044.77 406.21 1065.53 399.14 1086.33 C 393.08 1104.22 383.51 1120.72 371.00 1134.87 C 360.14 1147.11 347.17 1157.30 332.72 1164.97 C 327.29 1167.91 321.72 1170.57 317.97 1176.19 C 308.47 1190.37 296.41 1202.29 283.44 1213.33 C 281.55 1214.97 279.88 1216.83 278.44 1218.87 C 278.08 1219.38 278.79 1221.36 279.51 1221.76 C 280.68 1222.22 281.97 1222.29 283.18 1221.96 C 332.83 1211.88 378.96 1192.24 423.95 1169.64 C 427.46 1167.88 430.45 1163.64 432.06 1159.91 C 434.25 1154.81 435.28 1149.11 436.06 1143.56 C 438.91 1124.28 439.37 1104.89 438.52 1085.42 C 437.34 1058.34 438.36 1031.42 448.36 1005.72 C 449.16 1004.02 449.70 1002.20 449.95 1000.34 C 450.05 998.81 449.20 997.22 448.77 995.66 C 447.77 996.25 446.29 996.57 445.69 997.46 C 443.24 1001.10 441.32 1005.12 438.64 1008.56 C 437.11 1010.56 438.15 1015.62 433.64 1013.93 C 432.64 1013.53 432.54 1009.28 432.79 1006.93 C 435.28 983.02 443.25 961.77 462.88 946.36 C 468.28 942.11 473.58 937.70 479.26 933.87 C 481.64 932.27 484.20 933.75 484.66 936.74 C 485.06 939.82 485.21 942.93 485.10 946.04 C 484.93 960.45 484.81 974.86 484.42 989.26 C 483.94 1006.79 483.67 1024.35 482.47 1041.83 C 480.97 1063.45 475.38 1083.83 461.47 1101.27 C 458.47 1105.01 456.96 1110.15 455.73 1114.90 C 453.20 1124.60 451.20 1134.45 449.28 1144.30 C 448.71 1147.21 449.13 1150.30 449.11 1153.30 C 451.94 1152.69 455.24 1152.81 457.53 1151.30 C 472.88 1141.55 488.82 1132.48 503.05 1121.30 C 529.77 1100.24 544.21 1073.30 539.87 1037.77 C 536.68 1012.86 536.88 987.63 540.49 962.77 C 546.77 921.00 574.00 897.00 608.47 878.41 C 609.62 877.93 610.93 878.02 612.01 878.64 C 612.72 879.56 612.92 880.78 612.54 881.88 C 602.45 902.68 600.90 925.31 598.25 947.71 C 597.51 953.94 596.77 960.18 595.62 966.33 C 592.62 982.53 587.28 997.88 578.14 1011.72 C 576.71 1013.78 575.18 1015.76 573.53 1017.65 C 573.11 1018.10 572.51 1018.32 571.90 1018.25 C 570.97 1017.84 569.55 1017.19 569.44 1016.47 C 568.72 1011.53 567.73 1006.53 567.85 1001.57 C 568.22 986.57 569.13 971.57 569.64 956.57 C 569.65 952.88 569.35 949.21 568.74 945.57 C 568.74 945.23 566.01 944.67 565.74 945.01 C 563.74 948.08 561.32 951.13 560.26 954.56 C 555.26 970.90 553.94 987.78 554.60 1004.77 C 555.60 1030.50 556.97 1056.22 547.04 1080.87 C 546.90 1081.95 547.34 1083.03 548.20 1083.70 C 549.35 1084.08 550.60 1083.91 551.61 1083.25 C 556.91 1078.83 562.15 1074.33 567.24 1069.68 C 622.82 1018.88 668.99 960.46 708.61 896.55 C 717.31 882.55 721.61 868.21 720.61 852.13 C 719.97 841.49 718.61 830.89 717.70 820.25 C 717.20 814.25 713.82 811.14 708.30 810.25 C 699.02 808.70 689.55 808.08 680.43 805.92 C 659.99 801.09 639.36 800.92 618.67 802.53 C 611.21 803.10 603.81 804.93 596.50 806.67 C 591.57 807.84 585.57 814.24 587.09 814.53 C 590.76 815.11 594.48 815.27 598.18 814.99 C 605.07 814.65 611.96 813.49 618.83 813.59 C 631.32 813.77 643.83 814.53 656.29 815.30 C 657.73 815.39 660.22 817.03 660.23 817.96 C 660.02 819.80 659.11 821.48 657.69 822.67 C 654.81 825.08 651.78 827.31 648.63 829.36 C 635.63 838.17 620.76 841.22 605.63 841.67 C 576.79 842.54 547.92 842.17 519.05 842.22 C 516.54 842.11 514.04 841.74 511.61 841.11 C 508.38 840.41 507.84 837.89 509.14 835.52 C 511.27 831.70 513.71 828.06 516.42 824.63 C 532.31 804.32 553.54 791.26 576.42 780.30 C 590.99 773.30 606.48 771.20 622.19 770.78 C 635.73 770.41 649.08 773.72 658.37 783.92 C 665.96 792.24 674.66 794.67 684.92 795.39 C 691.17 795.84 697.34 797.15 703.58 797.86 C 712.03 798.86 713.58 797.27 710.90 788.42 C 707.90 778.23 704.17 768.21 700.35 758.27 C 688.09 726.42 671.53 697.04 649.35 671.00 C 645.17 666.34 640.76 661.90 636.14 657.69 C 635.37 656.95 633.82 657.02 632.64 656.69 C 632.47 658.35 631.56 660.49 632.27 661.59 C 638.36 671.08 644.51 680.59 651.09 689.70 C 665.36 709.57 677.29 731.02 686.65 753.62 C 687.21 754.96 686.48 756.85 686.35 758.48 C 685.17 758.20 683.74 758.25 682.86 757.59 Q 668.53 746.86 654.36 735.93 C 622.80 711.53 599.26 681.35 586.94 642.93 C 580.94 624.07 579.65 604.84 581.38 585.30 C 581.80 582.19 582.58 579.14 583.70 576.21 C 585.95 569.52 589.83 568.29 594.50 573.34 C 612.93 593.34 634.36 609.59 656.26 625.50 C 679.07 642.09 695.42 664.43 706.65 690.08 C 713.15 704.93 719.71 720.08 719.93 736.91 C 720.10 750.03 719.93 763.19 725.55 775.56 C 726.55 777.76 726.55 780.46 726.79 782.96 C 727.97 796.70 729.12 810.44 730.16 824.19 C 730.69 831.06 730.91 837.96 731.47 844.83 C 731.54 845.72 732.74 847.15 733.47 847.19 C 734.67 847.15 735.78 846.55 736.47 845.57 C 740.61 837.82 744.76 830.07 748.54 822.15 C 775.92 764.89 797.44 705.01 812.75 643.42 C 815.59 632.00 814.05 622.80 807.24 613.42 C 796.77 599.06 784.70 586.27 770.05 576.42 C 757.58 567.97 746.32 557.86 736.58 546.36 C 730.45 539.22 723.97 532.36 717.66 525.36 C 698.25 503.90 680.53 481.20 666.46 455.81 C 665.22 453.63 663.79 451.57 662.17 449.65 C 661.49 448.84 660.17 448.56 659.17 448.03 C 658.54 449.47 657.17 451.03 657.41 452.32 C 659.20 464.32 665.30 474.73 670.74 485.32 C 681.15 505.51 695.12 523.22 709.74 540.45 C 711.10 542.05 711.22 544.69 711.92 546.85 C 710.14 546.31 708.32 545.85 706.58 545.18 C 705.42 544.69 704.31 544.09 703.28 543.37 C 640.47 502.88 607.98 445.37 606.52 370.55 C 606.60 366.17 607.31 361.83 608.64 357.65 C 610.41 351.36 615.52 350.10 619.75 355.16 C 634.80 373.16 653.41 387.11 671.24 401.97 C 678.00 407.60 684.81 413.19 691.24 419.21 C 707.70 434.70 723.64 450.67 736.73 469.28 C 751.19 489.85 758.54 512.87 761.25 537.61 C 757.89 547.89 764.44 553.98 770.81 560.14 L 820.04 607.82 C 821.44 602.28 823.28 596.46 824.34 590.49 C 828.29 568.27 831.59 545.92 835.87 523.76 C 839.81 503.33 837.46 483.50 830.16 464.54 C 818.89 435.31 806.65 406.43 794.28 377.64 C 781.38 347.64 763.28 320.34 747.74 291.72 C 739.95 277.40 732.20 263.06 724.02 248.97 C 720.91 243.62 716.68 238.89 712.79 234.03 C 712.49 233.67 709.86 234.36 709.79 234.78 C 709.51 236.62 709.57 238.50 709.96 240.32 C 714.44 260.10 723.60 278.05 732.59 295.95 C 741.58 313.85 751.93 331.05 761.52 348.64 C 762.25 349.97 761.64 352.03 761.65 353.74 C 760.43 353.56 759.05 353.69 758.02 353.15 C 728.38 337.36 705.15 314.96 690.02 284.91 C 668.70 242.62 663.07 197.81 670.78 151.26 C 671.89 145.09 673.53 139.03 675.69 133.14 C 677.24 129.03 679.29 125.13 681.81 121.54 C 685.33 116.32 690.52 116.30 694.08 121.13 C 694.82 122.13 695.25 123.36 695.99 124.37 C 708.24 141.03 719.99 158.07 732.92 174.21 C 748.65 193.76 762.26 214.93 773.50 237.37 C 788.44 267.37 799.43 298.84 799.50 332.79 C 799.44 349.80 803.38 366.58 811.00 381.78 Q 824.38 408.71 838.14 435.43 C 839.21 437.53 841.01 439.25 843.38 442.31 C 845.11 418.77 844.06 396.94 842.00 375.16 Z" stroke-linecap="round"/>
</g>
</g>
</g>
<g id="a17ef999-46bb-44bb-b0de-7adb3e1fcb04">
<g style="">
		<g id="a17ef999-46bb-44bb-b0de-7adb3e1fcb04-child-0">
<path style="stroke: rgb(193,193,193); stroke-width: 0; stroke-dasharray: none; stroke-linecap: butt; stroke-dashoffset: 0; stroke-linejoin: miter; stroke-miterlimit: 4; fill: rgb(255,255,255); fill-rule: nonzero; opacity: 1;" transform="matrix(-0.04946 -0.023038 -0.023038 0.04946 42.583906 46.954852) matrix(1 0 0 1 0 0)  translate(-531.166992, -701.94353)" d="M 842.00 375.16 C 839.27 347.65 834.50 320.38 827.74 293.58 C 826.37 288.12 825.78 282.49 826.00 276.86 C 827.14 252.32 830.85 228.18 839.23 204.95 C 843.91 191.95 849.06 179.13 853.64 166.10 C 857.38 155.45 861.14 144.75 863.81 133.81 C 865.41 127.25 865.11 120.18 865.24 113.34 C 865.24 112.18 863.18 110.85 861.85 109.94 C 861.61 109.78 859.85 111.10 859.46 112.02 C 850.66 131.46 841.78 150.86 833.29 170.43 C 826.29 186.54 819.78 202.85 813.05 219.06 C 812.68 220.26 812.16 221.40 811.51 222.47 C 810.87 223.33 809.69 224.47 808.88 224.35 C 807.81 223.97 807.00 223.08 806.72 221.97 C 805.47 212.03 803.31 202.07 803.45 192.14 C 804.20 137.58 825.27 90.84 860.58 50.27 C 872.92 36.00 885.68 22.22 896.26 6.56 C 897.68 4.53 899.27 2.61 901.00 0.83 C 902.62 -0.88 906.46 0.22 907.08 2.67 C 908.14 6.26 908.86 9.95 909.26 13.67 C 910.12 26.18 910.54 38.67 911.37 51.24 C 915.37 111.95 902.83 168.47 869.27 219.81 C 863.09 229.27 857.27 239.01 851.86 248.92 C 845.13 261.25 841.10 274.25 843.60 288.69 C 844.88 296.08 844.97 303.69 846.02 311.12 C 849.51 335.98 853.17 360.81 856.83 385.63 C 857.00 386.75 857.59 388.51 858.29 388.63 C 859.53 388.73 860.74 388.25 861.58 387.33 C 872.89 373.89 883.49 359.78 895.47 346.96 C 921.78 318.81 943.33 287.17 964.36 255.14 C 969.51 247.30 973.46 238.67 977.80 230.32 C 978.09 229.25 977.80 228.11 977.03 227.32 C 975.99 226.96 974.83 227.16 973.97 227.86 C 970.30 232.14 966.76 236.54 963.31 241.01 C 951.06 257.00 938.92 273.00 926.57 288.87 C 921.57 295.31 916.18 301.47 910.80 307.61 C 909.70 308.86 907.80 309.43 906.33 310.32 C 905.88 308.08 904.63 305.66 905.11 303.65 C 910.69 280.29 919.23 258.10 931.90 237.65 C 948.14 211.48 966.76 186.87 987.53 164.13 C 1004.24 145.77 1024.32 131.99 1045.53 119.58 C 1047.74 118.41 1050.05 117.43 1052.44 116.67 C 1055.99 115.38 1058.78 117.81 1057.73 121.57 C 1055.01 131.23 1052.22 140.87 1049.10 150.41 Q 1031.27 204.98 1013.19 259.48 C 1008.96 272.25 1001.57 282.96 992.19 292.60 C 971.93 313.49 950.00 332.00 922.12 342.08 C 911.12 346.08 902.56 353.08 895.57 362.35 C 888.75 371.35 881.38 379.96 874.84 389.17 C 863.02 405.82 855.17 423.55 855.54 444.97 C 855.85 462.41 853.20 479.97 851.20 497.37 C 849.20 514.77 846.29 532.13 844.03 549.54 C 843.75 551.68 845.03 554.02 845.55 556.27 C 846.96 555.08 848.63 554.10 849.74 552.68 C 862.57 536.43 875.08 519.93 888.13 503.86 C 901.66 487.18 913.86 469.55 922.56 450.02 C 928.63 436.39 932.02 421.55 936.46 407.20 C 936.73 406.33 935.64 405.04 935.18 403.95 C 934.31 404.53 933.07 404.95 932.62 405.74 C 930.83 409.03 929.43 412.53 927.62 415.82 C 917.38 434.54 907.28 453.35 896.62 471.82 C 893.21 477.75 888.37 482.87 884.03 488.22 C 883.19 489.12 881.99 489.59 880.76 489.48 C 879.70 488.95 878.99 487.92 878.86 486.75 C 879.02 477.41 878.06 467.75 879.96 458.75 C 884.36 437.91 890.51 417.46 895.31 396.70 C 899.01 380.70 909.23 370.49 922.77 362.70 C 925.48 361.14 928.24 359.61 931.10 358.32 C 948.83 350.32 966.19 341.57 982.43 330.75 C 986.60 327.97 989.37 329.75 989.14 335.12 C 988.20 357.03 987.52 378.96 985.92 400.82 C 984.76 419.01 980.93 436.94 974.58 454.03 C 961.96 487.11 939.22 509.81 905.28 520.84 C 900.51 522.39 895.49 523.40 890.97 525.50 C 886.45 527.60 881.65 529.87 878.72 533.50 C 856.04 561.50 836.66 591.32 828.65 627.33 C 821.18 661.70 811.61 695.57 800.00 728.77 C 798.91 731.71 798.01 734.72 797.29 737.77 C 797.18 738.91 797.64 740.02 798.50 740.77 C 799.59 741.36 800.89 741.44 802.04 740.98 C 817.88 732.20 834.88 725.20 847.20 711.05 C 851.73 705.84 856.80 701.11 861.47 696.05 C 878.86 677.05 900.68 664.95 924.27 655.69 C 964.10 640.07 1005.97 636.69 1048.16 635.59 C 1051.84 635.49 1055.58 636.50 1059.24 637.26 C 1061.91 637.82 1063.18 641.17 1061.54 643.03 C 1059.90 644.89 1058.08 646.66 1056.26 648.37 Q 1029.52 673.52 1002.72 698.65 C 995.39 705.52 988.27 712.65 980.56 719.07 C 950.56 744.02 916.34 751.96 878.32 743.16 C 876.06 742.63 874.04 741.02 871.91 739.92 C 873.73 737.82 875.16 735.05 877.44 733.73 C 890.44 726.16 903.76 719.10 916.79 711.55 C 927.09 705.55 937.23 699.32 947.21 692.83 C 948.82 691.83 949.21 688.92 950.21 686.89 C 948.44 686.89 946.41 686.24 944.94 686.89 C 922.60 696.89 900.04 706.39 878.12 717.22 C 856.79 727.76 836.43 740.22 814.04 748.67 C 809.96 750.21 806.13 752.46 802.19 754.39 C 792.19 759.29 785.65 766.68 781.32 777.39 C 772.58 798.90 762.76 820.00 752.69 840.93 C 747.28 852.21 740.30 862.72 734.37 873.77 C 733.37 875.69 734.03 878.54 733.93 880.96 C 735.69 880.90 737.59 881.28 739.19 880.73 Q 790.88 863.15 842.52 845.37 C 850.23 842.73 857.99 840.21 865.66 837.45 C 866.46 836.76 866.84 835.70 866.66 834.66 C 866.12 833.59 865.11 832.83 863.94 832.60 C 861.44 832.46 858.93 832.62 856.47 833.10 C 843.53 835.69 830.65 838.50 817.71 841.10 C 811.15 842.40 804.52 843.35 797.92 844.45 C 798.92 835.83 806.66 833.25 812.25 829.05 C 824.89 819.62 839.51 813.17 855.00 810.19 C 873.59 806.41 892.28 805.35 911.14 805.05 C 931.94 804.72 950.56 811.65 968.28 821.64 C 974.92 825.38 974.92 828.48 968.34 831.81 C 942.59 844.81 917.01 858.24 890.84 870.37 C 877.25 876.67 862.72 881.17 848.31 885.44 C 832.97 889.98 816.52 891.34 802.12 884.44 C 788.67 878.00 776.91 879.44 764.25 884.12 C 756.02 887.18 747.81 890.32 739.50 893.12 C 725.90 897.75 716.01 906.12 708.33 918.60 C 682.33 961.03 651.56 999.95 617.87 1036.55 C 614.87 1039.78 611.87 1042.99 609.10 1046.36 C 608.39 1047.28 608.14 1048.47 608.43 1049.59 C 609.12 1050.48 610.21 1050.95 611.33 1050.85 C 616.18 1049.58 621.14 1048.45 625.72 1046.48 C 642.45 1039.30 659.26 1032.28 675.60 1024.30 C 691.94 1016.32 706.81 1005.59 718.66 991.35 C 720.29 989.45 721.71 987.38 722.89 985.17 C 723.24 984.07 723.06 982.87 722.40 981.93 C 722.11 981.53 720.19 981.76 719.45 982.31 C 715.94 984.94 712.62 987.82 709.15 990.52 C 696.85 1000.28 683.31 1008.38 668.88 1014.59 C 667.25 1015.27 665.27 1015.13 663.46 1015.38 C 663.56 1013.61 663.07 1011.52 663.84 1010.13 C 671.78 995.89 678.79 980.96 688.24 967.78 C 705.69 943.47 730.00 928.39 759.05 921.00 C 763.87 919.78 768.93 919.43 773.90 919.00 C 775.13 919.07 776.25 919.74 776.90 920.79 C 777.17 921.94 776.92 923.14 776.22 924.09 C 770.59 931.61 764.01 938.55 759.30 946.59 C 750.74 961.21 742.30 976.06 735.58 991.59 C 725.88 1013.95 709.26 1029.65 689.72 1042.59 C 679.32 1049.50 668.03 1055.37 654.53 1053.82 C 651.53 1053.48 648.32 1054.43 645.39 1055.36 Q 631.95 1059.62 618.71 1064.44 C 617.39 1064.93 616.60 1066.87 615.56 1068.14 C 616.94 1069.24 618.16 1070.90 619.72 1071.35 C 640.81 1077.45 661.78 1084.09 683.12 1089.18 C 707.96 1095.10 732.98 1093.97 757.65 1087.18 C 761.83 1086.03 766.26 1084.94 768.14 1080.18 C 769.14 1077.58 767.68 1077.44 757.25 1078.58 C 748.51 1079.53 739.76 1080.82 730.99 1080.99 C 719.73 1081.21 708.44 1080.57 697.18 1079.99 C 694.05 1079.70 690.97 1079.03 688.01 1077.99 C 686.93 1077.48 686.13 1076.52 685.83 1075.36 C 685.81 1074.28 686.35 1073.26 687.25 1072.67 C 694.10 1069.59 700.87 1066.20 707.98 1063.85 C 730.29 1056.47 753.46 1054.27 776.75 1054.60 C 791.16 1054.98 805.52 1056.32 819.75 1058.60 C 831.01 1060.28 841.61 1064.94 850.46 1072.10 C 854.46 1075.32 853.46 1080.45 848.54 1082.10 C 828.38 1089.10 808.17 1095.90 788.05 1102.99 C 776.81 1106.99 765.71 1111.32 754.55 1115.49 C 726.39 1126.01 700.15 1121.07 675.60 1105.09 C 654.05 1091.09 629.60 1085.63 605.05 1080.45 C 595.66 1078.51 585.88 1080.42 577.90 1085.73 C 561.00 1096.54 543.82 1107.00 527.56 1118.73 C 500.56 1138.21 473.38 1157.30 443.88 1172.87 C 442.17 1173.65 440.54 1174.59 439.01 1175.68 C 438.08 1176.48 437.45 1177.56 437.21 1178.76 C 436.68 1181.83 439.32 1181.42 440.88 1181.38 C 498.12 1179.93 554.88 1184.90 611.55 1192.77 C 616.53 1193.38 621.54 1193.73 626.55 1193.83 C 627.55 1193.83 628.68 1192.75 629.74 1192.16 C 629.14 1191.26 628.74 1189.76 627.92 1189.55 C 614.61 1185.95 601.33 1182.22 587.92 1179.15 C 579.99 1177.33 571.79 1176.76 563.78 1175.29 C 562.33 1175.02 561.17 1173.14 559.87 1172.01 C 560.87 1171.37 561.68 1170.42 562.72 1170.14 C 574.94 1166.87 587.44 1164.90 600.00 1166.60 C 628.09 1170.40 655.53 1176.83 681.63 1188.33 C 699.91 1196.33 714.46 1209.02 726.99 1224.21 C 730.57 1228.55 728.99 1232.65 723.44 1233.49 C 709.79 1235.56 696.09 1237.38 682.44 1239.15 C 667.51 1241.09 652.60 1243.47 637.60 1244.53 C 620.03 1245.74 602.39 1244.58 585.13 1241.09 C 562.77 1236.61 543.39 1226.43 529.96 1207.84 C 522.85 1198.02 514.62 1194.03 503.12 1194.08 C 476.77 1194.19 450.40 1193.31 424.12 1194.08 C 409.12 1194.55 394.04 1197.15 380.05 1203.25 C 355.86 1213.78 330.83 1222.28 305.23 1228.65 C 298.58 1230.32 292.23 1233.04 285.81 1235.65 C 285.23 1235.88 284.98 1239.24 285.71 1239.91 C 287.64 1241.51 289.83 1242.78 292.18 1243.66 C 317.53 1254.48 342.57 1266.18 368.42 1275.66 C 385.42 1281.89 403.52 1284.99 421.19 1289.24 C 424.19 1289.95 427.42 1289.41 430.54 1289.32 C 431.00 1289.32 431.67 1288.63 431.81 1288.14 C 431.95 1287.65 431.69 1286.63 431.35 1286.50 C 429.03 1285.61 426.62 1284.97 424.29 1284.11 C 401.29 1275.64 378.38 1267.18 355.49 1258.53 C 354.20 1258.04 353.49 1255.93 352.56 1254.53 C 353.66 1254.14 354.77 1253.38 355.86 1253.43 C 420.58 1256.00 478.07 1278.88 530.00 1317.00 C 531.07 1317.64 532.00 1318.50 532.73 1319.52 C 533.41 1321.04 533.95 1322.61 534.34 1324.23 C 533.22 1324.46 532.01 1325.05 530.97 1324.84 C 511.79 1320.84 492.33 1321.03 472.88 1320.69 C 447.79 1320.25 422.69 1319.82 397.63 1318.62 C 385.74 1317.91 373.91 1316.37 362.24 1314.00 C 348.92 1311.45 337.51 1304.92 329.03 1294.00 Q 320.38 1282.89 312.19 1271.41 C 309.26 1267.31 306.67 1263.14 301.62 1261.12 C 288.22 1255.77 274.99 1250.00 261.55 1244.79 C 253.80 1241.79 245.76 1241.85 237.46 1243.20 C 211.44 1247.55 185.13 1249.89 158.75 1250.20 C 156.24 1250.22 153.75 1250.49 151.29 1250.99 C 150.16 1251.22 149.19 1251.96 148.67 1252.99 C 148.57 1254.21 148.99 1255.41 149.82 1256.30 C 158.42 1265.44 167.11 1274.49 175.77 1283.56 C 184.44 1305.31 203.01 1315.29 223.15 1323.40 C 223.73 1323.63 224.27 1323.96 224.85 1324.21 C 239.19 1330.57 253.53 1336.96 267.92 1343.21 C 268.99 1343.41 270.09 1343.03 270.81 1342.21 C 271.22 1341.38 270.98 1339.43 270.34 1339.02 C 262.98 1334.26 255.52 1329.65 248.03 1325.11 C 236.24 1317.96 224.36 1310.95 212.65 1303.68 C 211.65 1303.03 211.51 1300.85 210.98 1299.39 C 212.14 1299.05 213.37 1298.28 214.46 1298.39 C 240.16 1302.19 264.74 1308.99 286.30 1324.39 C 312.38 1343.04 331.14 1367.98 347.83 1394.78 C 348.23 1395.27 348.50 1395.85 348.59 1396.48 C 348.44 1398.77 348.59 1401.27 347.66 1403.23 C 347.29 1403.99 344.13 1404.09 342.61 1403.52 Q 309.97 1391.32 277.44 1378.81 C 265.12 1374.10 252.69 1369.65 240.60 1364.39 C 223.81 1357.08 208.11 1347.77 194.96 1334.86 C 190.10 1330.09 184.39 1324.86 182.47 1318.71 C 177.74 1303.71 167.65 1292.76 158.06 1281.23 C 141.26 1261.05 119.55 1249.65 94.06 1244.59 C 77.44 1241.31 60.74 1238.04 44.52 1233.26 C 30.15 1229.02 16.33 1222.85 2.45 1217.09 C 0.96 1216.47 -0.36 1212.54 0.19 1210.74 C 0.67 1209.13 3.80 1207.52 5.86 1207.39 C 8.17 1207.24 10.70 1208.51 12.96 1209.55 C 42.41 1223.07 74.22 1227.73 105.54 1234.16 C 111.67 1235.42 117.98 1235.79 124.19 1236.66 C 130.19 1237.51 135.36 1235.94 139.42 1231.26 C 158.71 1209.01 180.54 1188.79 193.61 1161.65 C 199.87 1148.65 206.91 1136.01 213.40 1123.11 C 213.99 1121.93 213.07 1119.99 212.85 1118.40 C 211.85 1118.88 210.34 1119.07 209.77 1119.88 Q 195.77 1139.88 181.93 1160.08 C 177.34 1166.81 173.06 1173.75 168.48 1180.49 C 167.94 1181.27 166.37 1181.35 165.28 1181.75 C 164.93 1180.75 164.04 1179.58 164.28 1178.75 C 169.62 1161.37 174.93 1143.99 180.64 1126.75 C 182.13 1122.61 184.25 1118.72 186.94 1115.24 C 204.30 1091.91 223.84 1070.72 248.81 1055.32 C 256.81 1050.41 265.39 1046.50 273.93 1042.63 C 275.73 1041.81 279.37 1042.35 280.58 1043.69 C 281.79 1045.03 281.81 1048.33 281.45 1050.62 C 281.09 1052.91 279.70 1055.29 278.66 1057.62 C 267.50 1082.30 257.00 1107.20 245.00 1131.39 C 237.43 1146.57 228.72 1161.14 218.94 1175.00 C 208.05 1190.50 194.65 1203.89 176.83 1211.70 C 167.13 1215.96 161.36 1224.22 154.98 1231.91 C 154.30 1232.73 153.84 1234.73 154.33 1235.32 C 155.33 1236.52 157.06 1237.94 158.39 1237.85 C 180.29 1236.31 202.25 1235.23 224.01 1232.52 C 233.37 1231.41 242.37 1228.27 250.39 1223.32 C 278.15 1205.46 302.22 1183.70 317.12 1153.32 C 331.22 1124.57 345.54 1095.94 359.70 1067.22 C 360.16 1066.29 359.86 1064.99 359.91 1063.86 C 358.39 1064.48 356.41 1064.68 355.41 1065.78 C 343.88 1078.45 336.10 1093.55 327.97 1108.43 C 324.71 1114.43 321.24 1120.30 317.87 1126.23 C 314.76 1118.62 318.70 1111.75 320.45 1104.80 C 324.35 1088.91 330.72 1073.72 339.32 1059.80 C 354.77 1035.11 377.99 1021.06 405.18 1012.80 C 408.63 1011.80 412.59 1011.93 416.27 1012.19 C 420.21 1012.47 422.65 1016.55 421.69 1020.42 C 421.39 1021.63 420.93 1022.81 420.52 1024.00 C 413.39 1044.77 406.21 1065.53 399.14 1086.33 C 393.08 1104.22 383.51 1120.72 371.00 1134.87 C 360.14 1147.11 347.17 1157.30 332.72 1164.97 C 327.29 1167.91 321.72 1170.57 317.97 1176.19 C 308.47 1190.37 296.41 1202.29 283.44 1213.33 C 281.55 1214.97 279.88 1216.83 278.44 1218.87 C 278.08 1219.38 278.79 1221.36 279.51 1221.76 C 280.68 1222.22 281.97 1222.29 283.18 1221.96 C 332.83 1211.88 378.96 1192.24 423.95 1169.64 C 427.46 1167.88 430.45 1163.64 432.06 1159.91 C 434.25 1154.81 435.28 1149.11 436.06 1143.56 C 438.91 1124.28 439.37 1104.89 438.52 1085.42 C 437.34 1058.34 438.36 1031.42 448.36 1005.72 C 449.16 1004.02 449.70 1002.20 449.95 1000.34 C 450.05 998.81 449.20 997.22 448.77 995.66 C 447.77 996.25 446.29 996.57 445.69 997.46 C 443.24 1001.10 441.32 1005.12 438.64 1008.56 C 437.11 1010.56 438.15 1015.62 433.64 1013.93 C 432.64 1013.53 432.54 1009.28 432.79 1006.93 C 435.28 983.02 443.25 961.77 462.88 946.36 C 468.28 942.11 473.58 937.70 479.26 933.87 C 481.64 932.27 484.20 933.75 484.66 936.74 C 485.06 939.82 485.21 942.93 485.10 946.04 C 484.93 960.45 484.81 974.86 484.42 989.26 C 483.94 1006.79 483.67 1024.35 482.47 1041.83 C 480.97 1063.45 475.38 1083.83 461.47 1101.27 C 458.47 1105.01 456.96 1110.15 455.73 1114.90 C 453.20 1124.60 451.20 1134.45 449.28 1144.30 C 448.71 1147.21 449.13 1150.30 449.11 1153.30 C 451.94 1152.69 455.24 1152.81 457.53 1151.30 C 472.88 1141.55 488.82 1132.48 503.05 1121.30 C 529.77 1100.24 544.21 1073.30 539.87 1037.77 C 536.68 1012.86 536.88 987.63 540.49 962.77 C 546.77 921.00 574.00 897.00 608.47 878.41 C 609.62 877.93 610.93 878.02 612.01 878.64 C 612.72 879.56 612.92 880.78 612.54 881.88 C 602.45 902.68 600.90 925.31 598.25 947.71 C 597.51 953.94 596.77 960.18 595.62 966.33 C 592.62 982.53 587.28 997.88 578.14 1011.72 C 576.71 1013.78 575.18 1015.76 573.53 1017.65 C 573.11 1018.10 572.51 1018.32 571.90 1018.25 C 570.97 1017.84 569.55 1017.19 569.44 1016.47 C 568.72 1011.53 567.73 1006.53 567.85 1001.57 C 568.22 986.57 569.13 971.57 569.64 956.57 C 569.65 952.88 569.35 949.21 568.74 945.57 C 568.74 945.23 566.01 944.67 565.74 945.01 C 563.74 948.08 561.32 951.13 560.26 954.56 C 555.26 970.90 553.94 987.78 554.60 1004.77 C 555.60 1030.50 556.97 1056.22 547.04 1080.87 C 546.90 1081.95 547.34 1083.03 548.20 1083.70 C 549.35 1084.08 550.60 1083.91 551.61 1083.25 C 556.91 1078.83 562.15 1074.33 567.24 1069.68 C 622.82 1018.88 668.99 960.46 708.61 896.55 C 717.31 882.55 721.61 868.21 720.61 852.13 C 719.97 841.49 718.61 830.89 717.70 820.25 C 717.20 814.25 713.82 811.14 708.30 810.25 C 699.02 808.70 689.55 808.08 680.43 805.92 C 659.99 801.09 639.36 800.92 618.67 802.53 C 611.21 803.10 603.81 804.93 596.50 806.67 C 591.57 807.84 585.57 814.24 587.09 814.53 C 590.76 815.11 594.48 815.27 598.18 814.99 C 605.07 814.65 611.96 813.49 618.83 813.59 C 631.32 813.77 643.83 814.53 656.29 815.30 C 657.73 815.39 660.22 817.03 660.23 817.96 C 660.02 819.80 659.11 821.48 657.69 822.67 C 654.81 825.08 651.78 827.31 648.63 829.36 C 635.63 838.17 620.76 841.22 605.63 841.67 C 576.79 842.54 547.92 842.17 519.05 842.22 C 516.54 842.11 514.04 841.74 511.61 841.11 C 508.38 840.41 507.84 837.89 509.14 835.52 C 511.27 831.70 513.71 828.06 516.42 824.63 C 532.31 804.32 553.54 791.26 576.42 780.30 C 590.99 773.30 606.48 771.20 622.19 770.78 C 635.73 770.41 649.08 773.72 658.37 783.92 C 665.96 792.24 674.66 794.67 684.92 795.39 C 691.17 795.84 697.34 797.15 703.58 797.86 C 712.03 798.86 713.58 797.27 710.90 788.42 C 707.90 778.23 704.17 768.21 700.35 758.27 C 688.09 726.42 671.53 697.04 649.35 671.00 C 645.17 666.34 640.76 661.90 636.14 657.69 C 635.37 656.95 633.82 657.02 632.64 656.69 C 632.47 658.35 631.56 660.49 632.27 661.59 C 638.36 671.08 644.51 680.59 651.09 689.70 C 665.36 709.57 677.29 731.02 686.65 753.62 C 687.21 754.96 686.48 756.85 686.35 758.48 C 685.17 758.20 683.74 758.25 682.86 757.59 Q 668.53 746.86 654.36 735.93 C 622.80 711.53 599.26 681.35 586.94 642.93 C 580.94 624.07 579.65 604.84 581.38 585.30 C 581.80 582.19 582.58 579.14 583.70 576.21 C 585.95 569.52 589.83 568.29 594.50 573.34 C 612.93 593.34 634.36 609.59 656.26 625.50 C 679.07 642.09 695.42 664.43 706.65 690.08 C 713.15 704.93 719.71 720.08 719.93 736.91 C 720.10 750.03 719.93 763.19 725.55 775.56 C 726.55 777.76 726.55 780.46 726.79 782.96 C 727.97 796.70 729.12 810.44 730.16 824.19 C 730.69 831.06 730.91 837.96 731.47 844.83 C 731.54 845.72 732.74 847.15 733.47 847.19 C 734.67 847.15 735.78 846.55 736.47 845.57 C 740.61 837.82 744.76 830.07 748.54 822.15 C 775.92 764.89 797.44 705.01 812.75 643.42 C 815.59 632.00 814.05 622.80 807.24 613.42 C 796.77 599.06 784.70 586.27 770.05 576.42 C 757.58 567.97 746.32 557.86 736.58 546.36 C 730.45 539.22 723.97 532.36 717.66 525.36 C 698.25 503.90 680.53 481.20 666.46 455.81 C 665.22 453.63 663.79 451.57 662.17 449.65 C 661.49 448.84 660.17 448.56 659.17 448.03 C 658.54 449.47 657.17 451.03 657.41 452.32 C 659.20 464.32 665.30 474.73 670.74 485.32 C 681.15 505.51 695.12 523.22 709.74 540.45 C 711.10 542.05 711.22 544.69 711.92 546.85 C 710.14 546.31 708.32 545.85 706.58 545.18 C 705.42 544.69 704.31 544.09 703.28 543.37 C 640.47 502.88 607.98 445.37 606.52 370.55 C 606.60 366.17 607.31 361.83 608.64 357.65 C 610.41 351.36 615.52 350.10 619.75 355.16 C 634.80 373.16 653.41 387.11 671.24 401.97 C 678.00 407.60 684.81 413.19 691.24 419.21 C 707.70 434.70 723.64 450.67 736.73 469.28 C 751.19 489.85 758.54 512.87 761.25 537.61 C 757.89 547.89 764.44 553.98 770.81 560.14 L 820.04 607.82 C 821.44 602.28 823.28 596.46 824.34 590.49 C 828.29 568.27 831.59 545.92 835.87 523.76 C 839.81 503.33 837.46 483.50 830.16 464.54 C 818.89 435.31 806.65 406.43 794.28 377.64 C 781.38 347.64 763.28 320.34 747.74 291.72 C 739.95 277.40 732.20 263.06 724.02 248.97 C 720.91 243.62 716.68 238.89 712.79 234.03 C 712.49 233.67 709.86 234.36 709.79 234.78 C 709.51 236.62 709.57 238.50 709.96 240.32 C 714.44 260.10 723.60 278.05 732.59 295.95 C 741.58 313.85 751.93 331.05 761.52 348.64 C 762.25 349.97 761.64 352.03 761.65 353.74 C 760.43 353.56 759.05 353.69 758.02 353.15 C 728.38 337.36 705.15 314.96 690.02 284.91 C 668.70 242.62 663.07 197.81 670.78 151.26 C 671.89 145.09 673.53 139.03 675.69 133.14 C 677.24 129.03 679.29 125.13 681.81 121.54 C 685.33 116.32 690.52 116.30 694.08 121.13 C 694.82 122.13 695.25 123.36 695.99 124.37 C 708.24 141.03 719.99 158.07 732.92 174.21 C 748.65 193.76 762.26 214.93 773.50 237.37 C 788.44 267.37 799.43 298.84 799.50 332.79 C 799.44 349.80 803.38 366.58 811.00 381.78 Q 824.38 408.71 838.14 435.43 C 839.21 437.53 841.01 439.25 843.38 442.31 C 845.11 418.77 844.06 396.94 842.00 375.16 Z" stroke-linecap="round"/>
</g>
</g>
</g>

  </svg>