<svg xmlns="http://www.w3.org/2000/svg" xmlns:xlink="http://www.w3.org/1999/xlink" width="1133px" height="301px" viewBox="0 0 1132.553722048036 300.926210462784">
    <g id="13b06fdd-7384-41c2-acca-9a8758b8334f">
<rect style="stroke: rgb(193,193,193); stroke-opacity: 1.00; stroke-width: 0; stroke-dasharray: none; stroke-linecap: butt; stroke-dashoffset: 0; stroke-linejoin: miter; stroke-miterlimit: 4; fill: none; fill-rule: nonzero; opacity: 1;" x="-566.276861024018" y="-150.463105231392" rx="0" ry="0" width="1132.553722048036" height="300.926210462784" transform="matrix(1 0 0 1 566.276861 150.463105)"></rect>
</g>

        <g id="e9632436-947c-4e6b-8358-0437e34eaa9d" name="New Group">
          <g style="" id="c72be153-5113-49bc-90c7-dda55510a493">
<g style=""><path d="M-269.07274 -9.46042C-269.07274 37.23967 -258.30983 51.46860 -242.43910 51.46860C-226.38595 51.46860 -215.80546 37.23967 -215.80546 -9.46042C-215.80546 -55.97808 -226.38595 -70.38943 -242.43910 -70.38943C-258.30983 -70.38943 -269.07274 -55.97808 -269.07274 -9.46042ZM-300.63178 -9.46042C-300.63178 -51.23510 -277.46416 -77.86874 -242.43910 -77.86874C-207.41404 -77.86874 -184.06400 -51.23510 -184.06400 -9.46042C-184.06400 32.49669 -207.41404 59.13033 -242.43910 59.13033C-277.46416 59.13033 -300.63178 32.49669 -300.63178 -9.46042Z" fill="rgb(68,132,24)" fill-opacity="1.00" transform="matrix(1 0 0 1 810.404096 90.551049) translate(0 -2.1423701923595218e-8)"></path><path d="M-188.25971 -73.85545C-188.25971 -75.86209 -184.97611 -76.04452 -181.87493 -76.04452L-177.49680 -76.04452C-173.30109 -76.04452 -167.09873 -75.13241 -160.89638 -75.13241C-154.51160 -75.13241 -148.30925 -76.04452 -144.11354 -76.04452L-139.73540 -76.04452C-136.63423 -76.04452 -133.71547 -75.86209 -133.71547 -73.85545C-133.71547 -71.30154 -140.46509 -68.20036 -142.83658 -64.91676C-145.39049 -61.45074 -145.39049 -53.24174 -145.39049 -48.86361L-145.39049 -16.57488L-108.54121 -16.57488L-108.54121 -48.86361C-108.54121 -53.24174 -108.72363 -62.54527 -111.82481 -65.82887C-113.46661 -67.47067 -119.66896 -71.30154 -119.66896 -73.85545C-119.66896 -75.86209 -116.56778 -76.04452 -113.28418 -76.04452L-108.90605 -76.04452C-104.71034 -76.04452 -98.69041 -75.13241 -92.30563 -75.13241C-86.10328 -75.13241 -79.71850 -76.04452 -75.52279 -76.04452L-71.14466 -76.04452C-68.04348 -76.04452 -65.12472 -75.86209 -65.12472 -73.85545C-65.12472 -71.30154 -71.87435 -68.20036 -74.24583 -64.91676C-76.98217 -61.45074 -76.98217 -53.24174 -76.98217 -48.86361L-76.98217 29.94278C-76.98217 34.32091 -76.98217 42.52991 -74.24583 46.17836C-71.87435 49.46195 -65.12472 52.38071 -65.12472 55.11704C-65.12472 56.94126 -67.67864 57.30611 -70.41497 57.30611L-75.52279 57.12369C-79.71850 57.12369 -86.10328 56.21158 -92.30563 56.21158C-98.69041 56.21158 -104.71034 57.12369 -108.90605 57.12369L-114.01387 57.30611C-116.93263 57.30611 -119.66896 56.94126 -119.66896 55.11704C-119.66896 52.38071 -113.46661 48.73227 -111.82481 46.90804C-108.72363 43.62444 -108.54121 34.32091 -108.54121 29.94278L-108.54121 -9.09557L-145.39049 -9.09557L-145.39049 29.94278C-145.39049 34.32091 -145.39049 42.52991 -142.83658 46.17836C-140.46509 49.46195 -133.71547 52.38071 -133.71547 55.11704C-133.71547 56.94126 -136.26938 57.30611 -139.00571 57.30611L-144.11354 57.12369C-148.30925 57.12369 -154.51160 56.21158 -160.89638 56.21158C-167.09873 56.21158 -173.30109 57.12369 -177.49680 57.12369L-182.60462 57.30611C-185.52337 57.30611 -188.25971 56.94126 -188.25971 55.11704C-188.25971 52.38071 -182.05735 48.73227 -180.23313 46.90804C-177.13195 43.62444 -176.94953 34.32091 -176.94953 29.94278L-176.94953 -48.86361C-176.94953 -53.24174 -177.13195 -62.54527 -180.23313 -65.82887C-182.05735 -67.47067 -188.25971 -71.30154 -188.25971 -73.85545Z" fill="rgb(68,132,24)" fill-opacity="1.00" transform="matrix(1 0 0 1 810.404096 90.551049) translate(0 -2.1423701923595218e-8)"></path><path d="M8.39142 19.36229L-12.22229 -37.18859L-32.83600 19.36229ZM1.82422 -76.04452C5.10782 -76.04452 7.84415 -74.03787 8.93869 -71.11912L46.15282 29.94278C47.61219 34.32091 51.26064 43.62444 55.45635 46.90804C57.82784 48.73227 65.48957 52.38071 66.58410 55.11704C67.13137 56.94126 64.57746 57.30611 61.65870 57.30611L56.36846 57.12369C52.17275 57.12369 45.78797 56.21158 39.40319 56.21158C33.20084 56.21158 25.17426 57.12369 20.97855 57.12369L15.87073 57.30611C13.13440 57.30611 10.39807 56.94126 9.85080 55.11704C8.75627 52.38071 14.59378 49.46195 15.68831 46.17836C16.96526 42.52991 14.04651 34.32091 12.40471 29.94278L11.31018 27.02402L-35.57233 27.02402L-36.66686 29.94278C-38.12624 34.32091 -41.40984 43.62444 -39.58562 46.90804C-38.49108 48.73227 -33.56568 52.38071 -34.66022 55.11704C-35.20748 56.94126 -38.12624 57.30611 -41.04499 57.30611L-46.15282 57.12369L-55.45635 57.12369L-60.56417 57.30611C-63.30050 57.30611 -65.85441 56.94126 -65.30715 55.11704C-64.21261 52.38071 -56.18604 49.46195 -52.90244 46.17836C-48.88915 42.52991 -45.78797 34.32091 -44.32859 29.94278L-7.47931 -71.11912C-6.38478 -74.03787 -3.46602 -76.04452 -0.36484 -76.04452L1.82422 -76.04452Z" fill="rgb(68,132,24)" fill-opacity="1.00" transform="matrix(1 0 0 1 810.404096 90.551049) translate(0 -2.1423701923595218e-8)"></path><path d="M167.09873 52.01587C167.09873 55.11704 165.09209 57.12369 161.99091 57.12369L158.16005 57.12369C155.05887 57.12369 151.95769 55.48189 150.31589 52.74555L85.19117 -53.05932L85.19117 29.94278C85.19117 34.32091 85.19117 42.52991 87.92750 46.17836C90.11657 49.46195 97.04861 52.38071 97.04861 55.11704C97.04861 56.94126 94.49470 57.30611 91.57594 57.30611L86.65054 57.12369L77.16459 57.12369L72.05677 57.30611C69.13801 57.30611 66.40168 56.94126 66.40168 55.11704C66.40168 52.38071 72.60403 48.73227 74.42826 46.90804C77.52943 43.62444 77.71186 34.32091 77.71186 29.94278L77.71186 -48.86361C77.71186 -53.24174 77.52943 -62.54527 74.42826 -65.82887C72.60403 -67.47067 66.40168 -71.30154 66.40168 -73.85545C66.40168 -75.86209 69.68528 -76.04452 72.78646 -76.04452L77.16459 -76.04452L86.65054 -76.04452L91.02868 -76.04452L93.40017 -76.04452L103.06854 -76.04452C106.16972 -76.04452 109.45332 -74.40272 110.91270 -71.66638L159.43700 7.14000L159.43700 -48.86361C159.43700 -53.24174 159.25458 -62.54527 156.33582 -65.82887C154.51160 -67.47067 148.30925 -71.30154 148.30925 -73.85545C148.30925 -75.86209 151.41042 -76.04452 154.69402 -76.04452L159.07216 -76.04452L168.37569 -76.04452L172.75382 -76.04452C175.85500 -76.04452 178.95618 -75.86209 178.95618 -73.85545C178.95618 -71.30154 172.02413 -68.20036 169.83507 -64.91676C167.09873 -61.45074 167.09873 -53.24174 167.09873 -48.86361L167.09873 52.01587Z" fill="rgb(68,132,24)" fill-opacity="1.00" transform="matrix(1 0 0 1 810.404096 90.551049) translate(0 -2.1423701923595218e-8)"></path><path d="M246.45239 19.36229L225.83868 -37.18859L205.22497 19.36229ZM239.88519 -76.04452C243.16879 -76.04452 245.90512 -74.03787 246.99966 -71.11912L284.21378 29.94278C285.67316 34.32091 289.32160 43.62444 293.51732 46.90804C295.88880 48.73227 303.55054 52.38071 304.64507 55.11704C305.19234 56.94126 302.63843 57.30611 299.71967 57.30611L294.42943 57.12369C290.23372 57.12369 283.84894 56.21158 277.46416 56.21158C271.26181 56.21158 263.23523 57.12369 259.03952 57.12369L253.93170 57.30611C251.19537 57.30611 248.45903 56.94126 247.91177 55.11704C246.81723 52.38071 252.65474 49.46195 253.74928 46.17836C255.02623 42.52991 252.10748 34.32091 250.46568 29.94278L249.37114 27.02402L202.48864 27.02402L201.39411 29.94278C199.93473 34.32091 196.65113 43.62444 198.47535 46.90804C199.56988 48.73227 204.49528 52.38071 203.40075 55.11704C202.85348 56.94126 199.93473 57.30611 197.01597 57.30611L191.90815 57.12369L182.60462 57.12369L177.49680 57.30611C174.76047 57.30611 172.20655 56.94126 172.75382 55.11704C173.84835 52.38071 181.87493 49.46195 185.15853 46.17836C189.17182 42.52991 192.27300 34.32091 193.73237 29.94278L230.58166 -71.11912C231.67619 -74.03787 234.59495 -76.04452 237.69612 -76.04452L239.88519 -76.04452Z" fill="rgb(68,132,24)" fill-opacity="1.00" transform="matrix(1 0 0 1 810.404096 90.551049) translate(0 -2.1423701923595218e-8)"></path></g></g>

<g style="" id="487bbc48-7d9e-4db5-a1af-f695dc7a03b7">
<g style=""><path d="M-265.74217 19.35206C-265.74217 1.64270 -299.22711 -3.95509 -299.22711 -25.02312C-299.22711 -41.81648 -277.75196 -43.44493 -271.84884 -43.44493C-260.95860 -43.44493 -249.86481 -37.84714 -249.86481 -30.21380C-249.86481 -24.92134 -255.25904 -21.96978 -259.53371 -21.96978C-264.21550 -21.96978 -267.98128 -25.63379 -267.98128 -30.01024C-267.98128 -32.45291 -266.75995 -35.30269 -266.75995 -36.52403C-266.75995 -38.25425 -269.40617 -39.27203 -271.54351 -39.27203C-277.14130 -39.27203 -282.53553 -37.23647 -282.53553 -30.72269C-282.53553 -14.64177 -249.05059 -6.80487 -249.05059 16.09516C-249.05059 33.29563 -267.98128 33.29563 -275.71640 33.29563C-288.64220 33.29563 -299.43066 27.29073 -299.43066 19.25028C-299.43066 13.65249 -294.13821 10.70093 -289.86354 10.70093C-285.18175 10.70093 -281.41597 14.36494 -281.41597 18.74139C-281.41597 21.18406 -282.63730 24.13562 -282.63730 25.45873C-282.63730 27.29073 -280.09286 29.12274 -276.53063 29.12274C-273.98618 29.12274 -265.74217 28.20673 -265.74217 19.35206Z" fill="rgb(68,132,24)" fill-opacity="1.00" transform="matrix(1 0 0 1 814.201666 201.100698) translate(0 -2.1781807646448215e-7)"></path><path d="M-250.37370 -41.20581C-250.37370 -42.32537 -248.54170 -42.42715 -246.81147 -42.42715L-244.36880 -42.42715C-242.02791 -42.42715 -238.56746 -41.91826 -235.10701 -41.91826C-231.54478 -41.91826 -228.18611 -42.42715 -225.84522 -42.42715L-225.74344 -42.42715L-210.27320 -42.52892C-199.79007 -42.52892 -196.22784 -38.96670 -196.22784 -33.47069C-196.22784 -28.07646 -199.79007 -24.51423 -205.08252 -24.51423C-210.57853 -24.51423 -214.14076 -28.07646 -214.14076 -33.47069C-214.14076 -35.30269 -213.83542 -36.93114 -213.12298 -38.15247L-222.89366 -38.15247C-226.15055 -38.15247 -226.45589 -29.19602 -226.45589 -27.26224L-226.45589 -9.24754L-223.50433 -9.24754C-221.06166 -9.24754 -215.87098 -9.34932 -214.03898 -11.07955C-213.12298 -12.09732 -210.98564 -15.55777 -209.45897 -15.55777C-207.93230 -15.55777 -208.33942 -11.48666 -208.33942 -9.45110L-208.33942 -4.26042C-208.33942 -2.32664 -207.93230 1.54092 -209.45897 1.54092C-210.98564 1.54092 -212.71587 -2.32664 -214.44609 -3.54798C-216.48165 -5.07465 -221.06166 -5.07465 -223.50433 -5.07465L-226.45589 -5.07465L-226.45589 16.70583C-226.45589 18.63961 -226.15055 27.69785 -222.89366 27.69785L-213.02120 27.69785C-213.73365 26.27295 -214.14076 24.74629 -214.14076 22.81250C-214.14076 17.41827 -210.57853 13.75427 -205.08252 13.75427C-199.79007 13.75427 -196.22784 17.41827 -196.22784 22.81250C-196.22784 28.20673 -199.79007 31.87074 -205.08252 31.87074L-225.84522 31.87074C-228.18611 31.87074 -231.54478 31.36185 -235.10701 31.36185C-238.56746 31.36185 -242.02791 31.87074 -244.36880 31.87074L-247.21858 31.97252C-248.84703 31.97252 -250.37370 31.76896 -250.37370 30.75118C-250.37370 29.22451 -246.91325 27.18896 -245.89547 26.17118C-244.16525 24.33917 -244.06347 19.14850 -244.06347 16.70583L-244.06347 -27.26224C-244.06347 -29.70491 -244.16525 -34.89558 -245.89547 -36.72758C-246.91325 -37.64358 -250.37370 -39.78092 -250.37370 -41.20581Z" fill="rgb(68,132,24)" fill-opacity="1.00" transform="matrix(1 0 0 1 814.201666 201.100698) translate(0 -2.1781807646448215e-7)"></path><path d="M-140.04643 29.02096C-140.04643 30.75118 -141.16598 31.87074 -142.89621 31.87074L-145.03355 31.87074C-146.76377 31.87074 -148.49400 30.95474 -149.41000 29.42807L-185.74472 -29.60313L-185.74472 16.70583C-185.74472 19.14850 -185.74472 23.72851 -184.21805 25.76406C-182.99671 27.59607 -179.12915 29.22451 -179.12915 30.75118C-179.12915 31.76896 -180.55404 31.97252 -182.18249 31.97252L-184.93049 31.87074L-190.22295 31.87074L-193.07273 31.97252C-194.70117 31.97252 -196.22784 31.76896 -196.22784 30.75118C-196.22784 29.22451 -192.76739 27.18896 -191.74961 26.17118C-190.01939 24.33917 -189.91761 19.14850 -189.91761 16.70583L-189.91761 -27.26224C-189.91761 -29.70491 -190.01939 -34.89558 -191.74961 -36.72758C-192.76739 -37.64358 -196.22784 -39.78092 -196.22784 -41.20581C-196.22784 -42.32537 -194.39584 -42.42715 -192.66562 -42.42715L-190.22295 -42.42715L-184.93049 -42.42715L-182.48782 -42.42715L-181.16471 -42.42715L-175.77048 -42.42715C-174.04026 -42.42715 -172.20825 -41.51115 -171.39403 -39.98448L-144.32110 3.98359L-144.32110 -27.26224C-144.32110 -29.70491 -144.42288 -34.89558 -146.05133 -36.72758C-147.06910 -37.64358 -150.52955 -39.78092 -150.52955 -41.20581C-150.52955 -42.32537 -148.79933 -42.42715 -146.96733 -42.42715L-144.52466 -42.42715L-139.33398 -42.42715L-136.89131 -42.42715C-135.16109 -42.42715 -133.43086 -42.32537 -133.43086 -41.20581C-133.43086 -39.78092 -137.29842 -38.05070 -138.51976 -36.21869C-140.04643 -34.28491 -140.04643 -29.70491 -140.04643 -27.26224L-140.04643 29.02096Z" fill="rgb(68,132,24)" fill-opacity="1.00" transform="matrix(1 0 0 1 814.201666 201.100698) translate(0 -2.1781807646448215e-7)"></path><path d="M-130.98819 31.97252C-132.61664 31.97252 -134.14331 31.76896 -134.14331 30.75118C-134.14331 29.22451 -130.68286 27.18896 -129.66508 26.17118C-127.93485 24.33917 -127.83308 19.14850 -127.83308 16.70583L-127.83308 -27.26224C-127.83308 -29.70491 -127.93485 -34.89558 -129.66508 -36.72758C-130.68286 -37.64358 -134.14331 -39.78092 -134.14331 -41.20581C-134.14331 -42.32537 -132.31131 -42.42715 -130.58108 -42.42715L-128.13841 -42.42715C-125.79752 -42.42715 -122.33707 -41.91826 -118.87662 -41.91826C-115.31439 -41.91826 -111.85394 -42.42715 -109.51305 -42.42715L-107.07038 -42.42715C-105.34015 -42.42715 -103.71171 -42.32537 -103.71171 -41.20581C-103.71171 -39.78092 -107.47749 -38.05070 -108.80060 -36.21869C-110.22549 -34.28491 -110.22549 -29.70491 -110.22549 -27.26224L-110.22549 16.70583C-110.22549 19.14850 -110.22549 23.72851 -108.80060 25.76406C-107.47749 27.59607 -103.71171 29.22451 -103.71171 30.75118C-103.71171 31.76896 -105.13660 31.97252 -106.66327 31.97252L-109.51305 31.87074C-111.85394 31.87074 -115.31439 31.36185 -118.87662 31.36185C-122.33707 31.36185 -125.79752 31.87074 -128.13841 31.87074Z" fill="rgb(68,132,24)" fill-opacity="1.00" transform="matrix(1 0 0 1 814.201666 201.100698) translate(0 -2.1781807646448215e-7)"></path><path d="M-88.64857 -5.27820C-88.64857 20.77695 -82.64368 28.71562 -73.78900 28.71562C-64.83254 28.71562 -58.92942 20.77695 -58.92942 -5.27820C-58.92942 -31.23157 -64.83254 -39.27203 -73.78900 -39.27203C-82.64368 -39.27203 -88.64857 -31.23157 -88.64857 -5.27820ZM-106.25616 -5.27820C-106.25616 -28.58535 -93.33036 -43.44493 -73.78900 -43.44493C-54.24764 -43.44493 -41.22006 -28.58535 -41.22006 -5.27820C-41.22006 18.13072 -54.24764 32.99030 -73.78900 32.99030C-93.33036 32.99030 -106.25616 18.13072 -106.25616 -5.27820Z" fill="rgb(68,132,24)" fill-opacity="1.00" transform="matrix(1 0 0 1 814.201666 201.100698) translate(0 -2.1781807646448215e-7)"></path><path d="M-39.08272 -36.72758C-40.10050 -37.64358 -43.56095 -39.78092 -43.56095 -41.20581C-43.56095 -42.32537 -41.72895 -42.42715 -39.99873 -42.42715L-37.55606 -42.42715C-35.21516 -42.42715 -31.75471 -41.91826 -28.29426 -41.91826C-24.73204 -41.91826 -21.37336 -42.42715 -19.03247 -42.42715L-6.81912 -42.42715C5.19067 -42.42715 13.23113 -34.38669 13.23113 -22.17334C13.23113 -11.69021 7.42979 -4.26042 -1.83200 -2.42842C4.17290 4.39070 6.81912 9.27604 11.19557 16.90938C12.62046 19.35206 15.36847 23.93206 18.01469 25.96762C20.25381 27.79962 23.40892 29.42807 24.32492 30.95474C24.83381 32.07430 23.20537 32.17607 21.47514 32.17607L19.13425 32.17607L3.96934 32.17607C1.11956 32.17607 -1.73022 30.44585 -3.05334 27.90140L-19.54136 -1.81775L-19.64314 -1.81775L-19.64314 16.70583C-19.64314 19.14850 -19.64314 23.72851 -18.21825 25.76406C-16.89514 27.59607 -13.12935 29.22451 -13.12935 30.75118C-13.12935 31.76896 -14.55424 31.97252 -16.08091 31.97252L-18.93069 31.87074C-21.27159 31.87074 -24.73204 31.36185 -28.29426 31.36185C-31.75471 31.36185 -35.21516 31.87074 -37.55606 31.87074L-40.40584 31.97252C-42.03428 31.97252 -43.56095 31.76896 -43.56095 30.75118C-43.56095 29.22451 -40.10050 27.18896 -39.08272 26.17118C-37.35250 24.33917 -37.25072 19.14850 -37.25072 16.70583L-37.25072 -27.26224C-37.25072 -29.70491 -37.35250 -34.89558 -39.08272 -36.72758ZM-16.79336 -6.09243C-6.20845 -6.09243 -4.37645 -13.62399 -4.37645 -20.34134C-4.37645 -27.36401 -6.41201 -38.25425 -13.23113 -38.25425C-14.24891 -38.25425 -15.47024 -37.94892 -16.79336 -37.33825C-19.43958 -36.11692 -19.64314 -28.99246 -19.64314 -27.26224L-19.64314 -6.09243L-16.79336 -6.09243Z" fill="rgb(68,132,24)" fill-opacity="1.00" transform="matrix(1 0 0 1 814.201666 201.100698) translate(0 -2.1781807646448215e-7)"></path><path d="M106.25616 18.53783C107.27394 18.94494 107.57927 19.86094 106.96860 20.67517C101.26904 28.61385 93.83925 32.99030 82.74545 32.99030C62.18631 32.99030 49.26052 18.13072 49.26052 -5.27820C49.26052 -28.58535 62.18631 -43.44493 82.03301 -43.44493C90.37880 -43.44493 105.44193 -40.08625 105.44193 -29.39957C105.44193 -23.90356 101.87970 -20.34134 96.48547 -20.34134C91.09124 -20.34134 87.52902 -23.90356 87.52902 -29.39957C87.52902 -32.96180 89.05569 -35.81158 91.80369 -37.33825C89.66635 -37.94892 87.42724 -38.15247 85.18812 -38.15247C72.87300 -38.15247 66.86810 -31.23157 66.86810 -5.27820C66.86810 20.77695 72.87300 27.69785 84.47568 27.69785C91.70191 27.69785 98.31748 25.05162 102.99926 18.84317C103.40637 18.23250 104.01704 17.92716 104.72949 17.92716C105.03482 17.92716 105.23838 18.02894 105.54371 18.13072L106.25616 18.53783Z" fill="rgb(68,132,24)" fill-opacity="1.00" transform="matrix(1 0 0 1 814.201666 201.100698) translate(0 -2.1781807646448215e-7)"></path><path d="M145.13532 10.80271L133.63442 -20.74845L122.13351 10.80271ZM141.47132 -42.42715C143.30332 -42.42715 144.82999 -41.30759 145.44066 -39.67914L166.20335 16.70583C167.01758 19.14850 169.05314 24.33917 171.39403 26.17118C172.71714 27.18896 176.99182 29.22451 177.60248 30.75118C177.90782 31.76896 176.48293 31.97252 174.85448 31.97252L171.90292 31.87074C169.56203 31.87074 165.99980 31.36185 162.43757 31.36185C158.97712 31.36185 154.49889 31.87074 152.15800 31.87074L149.30822 31.97252C147.78155 31.97252 146.25488 31.76896 145.94955 30.75118C145.33888 29.22451 148.59577 27.59607 149.20644 25.76406C149.91889 23.72851 148.29044 19.14850 147.37444 16.70583L146.76377 15.07738L120.60684 15.07738L119.99618 16.70583C119.18195 19.14850 117.34995 24.33917 118.36773 26.17118C118.97840 27.18896 121.72640 29.22451 121.11573 30.75118C120.81040 31.76896 119.18195 31.97252 117.55351 31.97252L114.70372 31.87074L109.51305 31.87074L106.66327 31.97252C105.13660 31.97252 103.71171 31.76896 104.01704 30.75118C104.62771 29.22451 109.10594 27.59607 110.93794 25.76406C113.17705 23.72851 114.90728 19.14850 115.72150 16.70583L136.28064 -39.67914C136.89131 -41.30759 138.51976 -42.42715 140.24998 -42.42715L141.47132 -42.42715Z" fill="rgb(68,132,24)" fill-opacity="1.00" transform="matrix(1 0 0 1 814.201666 201.100698) translate(0 -2.1781807646448215e-7)"></path><path d="M181.97893 -36.72758C180.96115 -37.64358 177.50070 -39.78092 177.50070 -41.20581C177.50070 -42.32537 179.33271 -42.42715 181.06293 -42.42715L183.50560 -42.42715C185.84649 -42.42715 189.30694 -41.91826 192.76739 -41.91826C196.32962 -41.91826 199.68829 -42.42715 202.02919 -42.42715L214.24254 -42.42715C226.25233 -42.42715 234.29279 -34.38669 234.29279 -22.17334C234.29279 -11.69021 228.49145 -4.26042 219.22965 -2.42842C225.23455 4.39070 227.88078 9.27604 232.25723 16.90938C233.68212 19.35206 236.43012 23.93206 239.07635 25.96762C241.31547 27.79962 244.47058 29.42807 245.38658 30.95474C245.89547 32.07430 244.26702 32.17607 242.53680 32.17607L240.19591 32.17607L225.03100 32.17607C222.18121 32.17607 219.33143 30.44585 218.00832 27.90140L201.52030 -1.81775L201.41852 -1.81775L201.41852 16.70583C201.41852 19.14850 201.41852 23.72851 202.84341 25.76406C204.16652 27.59607 207.93230 29.22451 207.93230 30.75118C207.93230 31.76896 206.50741 31.97252 204.98075 31.97252L202.13096 31.87074C199.79007 31.87074 196.32962 31.36185 192.76739 31.36185C189.30694 31.36185 185.84649 31.87074 183.50560 31.87074L180.65582 31.97252C179.02737 31.97252 177.50070 31.76896 177.50070 30.75118C177.50070 29.22451 180.96115 27.18896 181.97893 26.17118C183.70916 24.33917 183.81094 19.14850 183.81094 16.70583L183.81094 -27.26224C183.81094 -29.70491 183.70916 -34.89558 181.97893 -36.72758ZM204.26830 -6.09243C214.85320 -6.09243 216.68521 -13.62399 216.68521 -20.34134C216.68521 -27.36401 214.64965 -38.25425 207.83053 -38.25425C206.81275 -38.25425 205.59141 -37.94892 204.26830 -37.33825C201.62207 -36.11692 201.41852 -28.99246 201.41852 -27.26224L201.41852 -6.09243L204.26830 -6.09243Z" fill="rgb(68,132,24)" fill-opacity="1.00" transform="matrix(1 0 0 1 814.201666 201.100698) translate(0 -2.1781807646448215e-7)"></path><path d="M245.59014 -41.20581C245.59014 -42.32537 247.42214 -42.42715 249.15237 -42.42715L251.59504 -42.42715C253.93593 -42.42715 257.39638 -41.91826 260.85683 -41.91826C264.41905 -41.91826 267.77773 -42.42715 270.11862 -42.42715L270.22040 -42.42715L285.69064 -42.52892C296.17377 -42.52892 299.73600 -38.96670 299.73600 -33.47069C299.73600 -28.07646 296.17377 -24.51423 290.88132 -24.51423C285.38531 -24.51423 281.82308 -28.07646 281.82308 -33.47069C281.82308 -35.30269 282.12841 -36.93114 282.84086 -38.15247L273.07018 -38.15247C269.81328 -38.15247 269.50795 -29.19602 269.50795 -27.26224L269.50795 -9.24754L272.45951 -9.24754C274.90218 -9.24754 280.09286 -9.34932 281.92486 -11.07955C282.84086 -12.09732 284.97820 -15.55777 286.50486 -15.55777C288.03153 -15.55777 287.62442 -11.48666 287.62442 -9.45110L287.62442 -4.26042C287.62442 -2.32664 288.03153 1.54092 286.50486 1.54092C284.97820 1.54092 283.24797 -2.32664 281.51775 -3.54798C279.48219 -5.07465 274.90218 -5.07465 272.45951 -5.07465L269.50795 -5.07465L269.50795 16.70583C269.50795 18.63961 269.81328 27.69785 273.07018 27.69785L282.94264 27.69785C282.23019 26.27295 281.82308 24.74629 281.82308 22.81250C281.82308 17.41827 285.38531 13.75427 290.88132 13.75427C296.17377 13.75427 299.73600 17.41827 299.73600 22.81250C299.73600 28.20673 296.17377 31.87074 290.88132 31.87074L270.11862 31.87074C267.77773 31.87074 264.41905 31.36185 260.85683 31.36185C257.39638 31.36185 253.93593 31.87074 251.59504 31.87074L248.74525 31.97252C247.11681 31.97252 245.59014 31.76896 245.59014 30.75118C245.59014 29.22451 249.05059 27.18896 250.06837 26.17118C251.79859 24.33917 251.90037 19.14850 251.90037 16.70583L251.90037 -27.26224C251.90037 -29.70491 251.79859 -34.89558 250.06837 -36.72758C249.05059 -37.64358 245.59014 -39.78092 245.59014 -41.20581Z" fill="rgb(68,132,24)" fill-opacity="1.00" transform="matrix(1 0 0 1 814.201666 201.100698) translate(0 -2.1781807646448215e-7)"></path></g></g>

<g style="" id="d4a60619-ec9b-4650-8ecd-d7a493cdef72">
<g style=""><path d="M-61.95191 19.52928C-63.13307 19.52928 -63.90083 19.29305 -64.19612 18.82059C-64.37329 18.52530 -64.60952 17.87566 -64.78670 16.98979C-65.55445 17.52131 -66.55844 18.17095 -67.79866 18.87964C-70.22004 20.35610 -73.17294 18.76153 -73.82258 17.52131C-74.17693 16.93073 -74.29504 16.04486 -74.11787 14.86370C-73.70446 12.26514 -71.87366 8.83977 -70.16098 6.77274C-68.68453 5.06006 -67.44431 4.05607 -66.49938 3.64266C-63.42836 2.40244 -58.99901 2.57962 -57.75879 3.93795C-56.75480 4.94194 -57.05009 5.70970 -58.88089 6.71368C-60.06205 7.36332 -60.88886 7.65861 -61.36133 7.48144C-61.95191 7.24521 -62.54249 7.42238 -63.07401 7.95390C-64.78670 9.60753 -66.20409 11.43833 -67.44431 13.38724C-68.68453 15.39522 -68.80264 16.75355 -67.91677 17.40319C-66.55844 16.04486 -63.95988 12.44232 -62.36532 10.07999L-61.18415 8.30825C-60.82981 7.95390 -60.47546 7.83579 -60.06205 8.01296C-59.17618 8.42637 -58.17219 9.54847 -58.58560 10.25717C-58.88089 10.78869 -59.17618 11.61550 -59.47147 12.61949C-60.00299 14.09594 -60.53452 16.39921 -59.47147 16.93073C-56.40045 15.92674 -52.08921 11.91079 -51.38052 9.01695C-50.96711 7.42238 -48.72290 6.24122 -48.19138 7.12709C-47.95515 7.48144 -48.01421 8.13108 -48.42761 9.07601C-48.84102 10.07999 -49.49066 11.14304 -50.37653 12.26514C-53.32943 15.92674 -57.52255 19.52928 -61.95191 19.52928Z" fill="rgb(68,132,24)" fill-opacity="1.00" transform="matrix(1 0 0 1 814.265509 245.399029) translate(0 1.854152955615973e-7)"></path><path d="M-56.03429 44.86519C-56.80205 44.33367 -57.56980 43.50686 -58.33756 42.44381C-58.86908 41.55794 -59.34154 40.61301 -59.69589 39.60902C-59.93212 38.84127 -60.10930 37.95540 -60.16836 36.95141C-60.22741 35.53402 -60.16836 34.23474 -59.87307 33.11264C-59.34154 30.98655 -56.15241 27.79741 -54.20349 29.74633C-53.84914 30.10068 -53.84914 30.45502 -54.26255 30.80937C-55.50277 31.99053 -56.44770 33.64416 -57.09734 35.82931C-57.62886 37.66011 -57.80603 39.13656 -57.74698 40.31772C-57.74698 40.84924 -57.68792 41.43982 -57.51074 42.08946C-56.97922 42.50287 -56.44770 42.44381 -55.67994 41.91229C-52.90421 39.96337 -48.06145 31.45901 -41.21072 16.51732C-41.38789 16.63544 -41.56507 16.75355 -41.86036 16.93073C-42.15565 17.10790 -42.33282 17.22602 -42.50999 17.34413C-44.28174 18.46624 -45.46290 19.17493 -45.99442 19.47022C-46.64406 19.82457 -47.17558 20.06081 -47.52993 20.11986C-48.47486 20.35610 -49.00638 19.88363 -50.12848 18.05283C-51.66399 15.57239 -51.36870 12.79666 -49.24261 9.78470C-47.88428 7.71767 -46.28971 6.18216 -44.57703 5.11912C-43.57304 4.46948 -42.45094 4.23324 -41.26978 4.23324C-39.73427 4.23324 -38.25781 5.17817 -36.89948 7.12709C-36.24984 8.07202 -35.71832 9.13506 -35.42303 10.25717C-35.30491 10.67057 -35.30491 10.90681 -35.42303 10.96586C-35.71832 11.14304 -36.30890 10.67057 -37.13571 9.48941C-37.66723 8.72166 -38.19876 8.36731 -38.96651 8.60354C-39.26180 8.66260 -39.49803 8.78072 -39.73427 8.95789C-42.27376 10.61152 -47.11652 15.69051 -48.23863 18.05283C-46.05348 19.47022 -44.63609 16.63544 -40.73825 12.73761C-39.14369 11.14304 -38.37593 10.25717 -38.37593 10.13905C-38.19876 9.90282 -34.83245 11.67456 -35.48209 12.97384C-36.54513 15.74957 -37.84441 18.87964 -39.37992 22.42313C-38.61216 21.77349 -37.96252 21.30102 -37.49006 21.00573C-36.24984 20.11986 -33.94658 17.93472 -30.58027 14.45029C-29.16287 12.97384 -27.86359 11.14304 -26.68243 9.07601C-26.38714 8.54448 -25.97374 8.07202 -25.32410 7.65861C-24.08388 6.89086 -23.37518 6.65462 -23.19801 6.94992C-22.84366 7.30426 -22.72554 7.59955 -22.78460 7.77673C-24.26105 10.72963 -25.91468 13.15101 -27.74548 15.09993C-30.99367 18.46624 -33.76940 20.82856 -36.01361 22.12784C-37.07665 22.71842 -38.31687 23.54523 -39.02557 24.19487C-39.73427 24.72639 -40.79731 25.78944 -40.97449 25.96661C-45.69913 36.00648 -49.18356 41.85323 -51.36870 43.56592C-52.19552 44.21555 -53.08139 44.62896 -54.02632 44.86519C-54.79407 45.04237 -55.50277 45.04237 -56.03429 44.86519Z" fill="rgb(68,132,24)" fill-opacity="1.00" transform="matrix(1 0 0 1 814.265509 245.399029) translate(0 1.854152955615973e-7)"></path><path d="M-21.59163 19.52928C-22.71373 19.11588 -23.77678 18.40718 -24.78076 17.40319C-26.67062 14.03688 -24.66265 7.48144 -19.05213 5.11912C-16.86698 4.17419 -15.15430 4.41042 -14.15031 5.06006C-11.78799 6.59557 -11.78799 9.90282 -12.61480 10.96586C-13.50067 12.14702 -17.51662 13.56442 -19.58365 13.15101C-19.99706 14.15500 -19.93800 15.09993 -19.46554 15.92674C-17.75285 18.76153 -14.68183 17.46225 -11.43364 15.51333C-8.24451 13.68253 -5.82313 11.43833 -4.11044 8.89883C-3.87421 8.48542 -3.34269 8.07202 -2.57493 7.65861C-1.45283 7.00897 -0.68507 6.83180 -0.38978 7.06803C-0.27167 7.12709 -0.27167 7.30426 -0.44884 7.48144C-2.63399 10.78869 -6.05936 13.80065 -10.84306 16.57638C-15.33147 19.17493 -18.93402 20.17892 -21.59163 19.52928ZM-16.86698 10.25717C-14.50466 8.54448 -13.50067 7.83579 -13.67785 7.48144C-13.91408 7.18615 -14.26843 7.12709 -14.74089 7.24521C-15.74488 8.01296 -16.57169 8.78072 -17.33945 9.66659C-17.33945 9.96188 -17.16227 10.13905 -16.86698 10.25717Z" fill="rgb(68,132,24)" fill-opacity="1.00" transform="matrix(1 0 0 1 814.265509 245.399029) translate(0 1.854152955615973e-7)"></path><path d="M7.06334 18.99776C6.53182 18.93870 5.82313 18.58435 5.52783 17.93472C5.29160 17.46225 5.88218 15.21804 7.29958 11.20210C6.17747 11.85173 5.29160 12.38326 4.70102 12.79666C3.51986 13.56442 1.63000 15.09993 1.15754 16.51732C0.98036 16.98979 0.98036 17.52131 1.15754 18.05283C1.39377 19.05682 0.03543 19.64740 -1.20478 18.64341C-3.38993 16.87167 -2.91747 12.85572 -1.61819 9.90282C-0.20080 6.77274 0.86225 4.94194 2.45682 3.93795C3.34269 3.46549 4.87820 3.87890 5.40972 4.41042C6.05936 5.06006 6.05936 5.76875 5.82313 6.71368C5.70501 7.18615 5.46878 7.77673 5.17349 8.42637C4.58291 9.60753 4.16950 10.31622 3.51986 11.55644L3.34269 11.91079C5.76407 9.25318 9.66190 5.82781 10.66589 5.17817C12.31951 4.35136 15.50865 4.52853 15.50865 6.59557C15.50865 11.02492 8.30356 15.86768 10.66589 16.28109C11.78799 16.45826 15.33147 15.21804 16.98510 13.80065C18.16626 12.79666 19.28836 11.26115 20.41047 9.31224C20.94199 8.42637 21.35540 7.83579 21.70974 7.59955C22.59562 7.00897 23.18620 6.94992 23.59960 7.42238C23.71772 7.54050 23.71772 7.71767 23.65866 7.89484C23.00902 10.02093 21.17822 12.32420 18.16626 14.74558C14.85901 17.40319 9.01226 19.41117 7.06334 18.99776Z" fill="rgb(68,132,24)" fill-opacity="1.00" transform="matrix(1 0 0 1 814.265509 245.399029) translate(0 1.854152955615973e-7)"></path><path d="M26.03279 20.47421C24.85163 20.47421 23.67047 20.00175 22.43025 18.99776C19.41829 16.51732 22.01685 7.83579 28.45418 4.17419C29.69439 3.46549 31.11179 3.11114 32.76541 3.11114C34.41904 3.11114 35.54114 3.58361 36.07267 4.52853C36.84042 5.88687 36.60419 7.24521 36.48607 7.54050C35.77738 8.30825 33.94658 9.90282 33.53317 9.25318C33.47411 9.13506 33.59223 8.72166 33.88752 8.07202C34.18281 7.42238 34.24187 6.83180 34.06469 6.30028C33.82846 5.65064 33.41505 5.65064 32.88353 6.06404C32.41107 6.30028 31.52519 7.18615 30.16686 8.72166C27.45019 11.85173 25.02881 16.39921 27.80454 17.75754C29.22193 18.46624 33.06070 17.28508 37.25383 14.92275C40.14767 13.26913 43.27775 9.96188 43.98645 9.01695C44.93138 7.83579 45.75819 7.12709 46.46688 6.83180C47.11652 6.53651 47.58899 6.65462 47.82522 7.18615C47.05747 9.72564 43.57304 13.38724 39.02557 15.98580C34.83245 18.40718 29.04476 20.47421 26.03279 20.47421Z" fill="rgb(68,132,24)" fill-opacity="1.00" transform="matrix(1 0 0 1 814.265509 245.399029) translate(0 1.854152955615973e-7)"></path><path d="M38.32868 44.98331C37.56093 45.04237 36.73412 43.38874 36.43883 42.38475C36.26165 41.97135 36.32071 41.38077 36.55694 40.49490C37.08846 38.72315 37.79716 38.01446 38.03339 38.07352C40.21854 38.84127 42.46275 38.36881 44.64790 36.71518C46.36058 33.93945 48.25044 30.39597 50.31747 26.08473C52.20733 22.18690 53.97907 18.28906 55.69175 14.33217C51.79392 17.81660 49.31348 19.47022 48.30950 19.29305L47.01022 18.64341C44.70695 17.52131 45.41565 12.97384 46.59681 9.90282C47.83703 6.65462 49.01819 4.82382 50.67182 3.93795C51.67581 3.40643 53.09320 3.64266 53.62472 4.41042C54.09719 5.06006 54.21530 5.82781 54.03813 6.71368C53.92001 7.18615 53.68378 7.77673 53.38849 8.42637C52.73885 9.78470 52.62074 10.07999 51.73486 11.55644C50.14030 14.27312 49.78595 15.80862 50.78994 16.22203C51.73486 15.86768 52.73885 14.68652 53.80190 13.56442C55.80987 11.26115 56.40045 10.55246 56.69574 10.13905C57.46350 9.19412 58.17219 8.24919 58.70372 7.30426C59.35335 6.00499 60.00299 5.11912 60.65263 4.58759C61.18415 4.11513 61.77474 3.87890 62.30626 3.93795C63.48742 4.05607 64.19612 5.06006 64.19612 5.65064C61.65662 12.02891 58.93995 18.23001 56.04610 24.25393C55.98704 24.37204 55.92799 24.54922 55.86893 24.72639C55.75081 24.90357 55.69175 25.02168 55.63270 25.08074C56.99103 23.84052 61.12510 19.88363 63.01495 18.05283C67.32619 13.80065 69.74757 11.08398 70.75156 9.01695C70.86968 8.78072 71.22403 8.42637 71.81461 7.89484C72.75954 7.12709 74.05881 6.65462 74.35410 6.94992C74.41316 7.00897 74.35410 7.30426 74.11787 7.71767C69.68852 15.80862 60.23923 23.13182 54.92400 28.86046C54.56965 29.21481 54.09719 29.74633 53.44755 30.45502C52.79791 31.16372 52.32544 31.69524 52.03015 31.99053C51.26240 33.46699 50.55370 34.64815 49.90406 35.65213C48.90008 37.18764 48.01421 38.54598 47.12834 39.66808C46.41964 40.55395 45.47471 41.55794 44.29355 42.56193C43.52579 43.21157 42.81710 43.68403 42.16746 44.03838C41.63594 44.33367 40.39572 44.62896 38.32868 44.98331ZM41.16347 41.49888C41.22253 41.43982 41.51782 41.14453 42.04934 40.49490C42.16746 40.31772 42.40369 40.08149 42.69898 39.66808C41.87217 40.08149 40.80912 40.49490 39.56890 40.79019C40.10043 41.26265 40.75006 41.49888 41.16347 41.49888ZM50.43559 16.28109L50.43559 16.28109L50.43559 16.28109Z" fill="rgb(68,132,24)" fill-opacity="1.00" transform="matrix(1 0 0 1 814.265509 245.399029) translate(0 1.854152955615973e-7)"></path></g></g>


        <g id="10e12086-9efc-4e6e-8420-b7c9470573e1" name="New Group">
          
        <g id="4f698f01-4608-4f24-bf4c-708a29014324" name="New Group">
          <g id="e0d30a63-4cf3-4c1c-94fc-623b27e87e7d">
<g style="">
		<g id="e0d30a63-4cf3-4c1c-94fc-623b27e87e7d-child-0">
<path style="stroke: rgb(193,193,193); stroke-opacity: 1.00; stroke-width: 0; stroke-dasharray: none; stroke-linecap: butt; stroke-dashoffset: 0; stroke-linejoin: miter; stroke-miterlimit: 4; fill: rgb(68,132,24); fill-opacity: 1.00; fill-rule: nonzero; opacity: 1;" transform="matrix(0.319906 0 0 0.31883 184.863979 149.670745) matrix(1 0 0 1 0 0)  translate(-173.472105, -357.022575)" d="M 107.33 711.75 C 130.10 659.31 138.07 632.47 141.04 598.08 C 141.81 589.16 141.80 581.97 141.02 572.58 C 137.74 533.54 123.81 499.95 89.96 449.50 C 34.30 366.55 12.88 296.40 1.40 159.50 C -1.03 130.60 0.85 89.93 6.66 45.50 C 8.12 34.32 8.82 31.71 11.65 26.88 C 16.25 19.04 21.07 15.00 25.84 15.00 C 30.78 15.00 37.25 19.14 42.94 25.93 L 47.35 31.20 L 47.49 86.35 L 47.63 141.50 L 54.30 158.36 C 86.74 240.29 118.67 294.12 179.84 370.00 C 198.21 392.78 234.93 437.00 235.48 437.00 C 235.88 437.00 230.24 414.94 227.00 403.87 C 220.40 381.27 213.78 362.10 203.78 336.64 C 197.08 319.58 196.80 318.51 197.43 312.91 C 199.06 298.50 204.22 290.42 214.84 285.65 C 220.46 283.13 221.21 283.04 227.98 284.00 C 237.72 285.38 245.00 289.15 251.53 296.21 C 259.08 304.36 262.91 311.75 274.75 340.94 C 280.45 355.00 289.32 375.27 294.47 386.00 C 332.80 465.81 349.90 529.89 346.05 579.32 C 342.90 619.74 328.90 656.56 299.11 702.74 L 292.50 712.99 L 199.64 712.99 C 125.73 713.00 106.90 712.74 107.33 711.75 M 155.84 305.50 C 120.89 220.31 102.00 153.37 102.00 114.78 C 102.00 106.29 102.38 101.00 103.00 101.00 C 104.85 101.00 111.78 108.02 113.50 111.64 C 114.44 113.61 116.24 119.12 117.51 123.87 C 119.47 131.20 120.01 136.99 121.09 162.25 L 122.36 192.00 L 126.57 194.03 C 138.51 199.82 147.94 216.33 153.95 242.00 C 157.90 258.91 167.53 324.30 166.80 329.36 C 166.63 330.60 161.98 320.49 155.84 305.50 M 131.26 281.31 C 130.18 279.76 125.03 271.30 119.81 262.50 C 94.93 220.55 82.33 194.25 69.40 157.31 L 64.08 142.12 L 63.06 118.81 C 62.50 105.99 61.55 81.33 60.96 64.00 C 59.64 25.11 59.13 22.89 49.30 13.22 L 42.92 6.93 L 49.49 3.86 C 55.24 1.16 56.92 0.83 62.82 1.16 C 72.68 1.72 79.40 5.37 84.19 12.79 C 88.20 19.00 91.37 25.87 92.40 30.56 C 92.76 32.19 92.39 43.20 91.59 55.02 C 87.87 109.32 88.27 118.51 95.97 157.07 C 104.16 198.08 111.94 225.24 126.90 264.99 C 130.73 275.15 133.72 283.62 133.54 283.79 C 133.36 283.97 132.34 282.85 131.26 281.31 Z" stroke-linecap="round"></path>
</g>
</g>
</g>

<g id="b4f3e88e-48e8-4345-80d0-898ac60718a8">
<g style="">
		<g id="b4f3e88e-48e8-4345-80d0-898ac60718a8-child-0">
<path style="stroke: rgb(193,193,193); stroke-opacity: 1.00; stroke-width: 0; stroke-dasharray: none; stroke-linecap: butt; stroke-dashoffset: 0; stroke-linejoin: miter; stroke-miterlimit: 4; fill: rgb(68,132,24); fill-opacity: 1.00; fill-rule: nonzero; opacity: 1;" transform="matrix(-0.319906 0 0 0.318828 323.425574 149.670801) matrix(1 0 0 1 0 0)  translate(-173.472105, -357.022575)" d="M 107.33 711.75 C 130.10 659.31 138.07 632.47 141.04 598.08 C 141.81 589.16 141.80 581.97 141.02 572.58 C 137.74 533.54 123.81 499.95 89.96 449.50 C 34.30 366.55 12.88 296.40 1.40 159.50 C -1.03 130.60 0.85 89.93 6.66 45.50 C 8.12 34.32 8.82 31.71 11.65 26.88 C 16.25 19.04 21.07 15.00 25.84 15.00 C 30.78 15.00 37.25 19.14 42.94 25.93 L 47.35 31.20 L 47.49 86.35 L 47.63 141.50 L 54.30 158.36 C 86.74 240.29 118.67 294.12 179.84 370.00 C 198.21 392.78 234.93 437.00 235.48 437.00 C 235.88 437.00 230.24 414.94 227.00 403.87 C 220.40 381.27 213.78 362.10 203.78 336.64 C 197.08 319.58 196.80 318.51 197.43 312.91 C 199.06 298.50 204.22 290.42 214.84 285.65 C 220.46 283.13 221.21 283.04 227.98 284.00 C 237.72 285.38 245.00 289.15 251.53 296.21 C 259.08 304.36 262.91 311.75 274.75 340.94 C 280.45 355.00 289.32 375.27 294.47 386.00 C 332.80 465.81 349.90 529.89 346.05 579.32 C 342.90 619.74 328.90 656.56 299.11 702.74 L 292.50 712.99 L 199.64 712.99 C 125.73 713.00 106.90 712.74 107.33 711.75 M 155.84 305.50 C 120.89 220.31 102.00 153.37 102.00 114.78 C 102.00 106.29 102.38 101.00 103.00 101.00 C 104.85 101.00 111.78 108.02 113.50 111.64 C 114.44 113.61 116.24 119.12 117.51 123.87 C 119.47 131.20 120.01 136.99 121.09 162.25 L 122.36 192.00 L 126.57 194.03 C 138.51 199.82 147.94 216.33 153.95 242.00 C 157.90 258.91 167.53 324.30 166.80 329.36 C 166.63 330.60 161.98 320.49 155.84 305.50 M 131.26 281.31 C 130.18 279.76 125.03 271.30 119.81 262.50 C 94.93 220.55 82.33 194.25 69.40 157.31 L 64.08 142.12 L 63.06 118.81 C 62.50 105.99 61.55 81.33 60.96 64.00 C 59.64 25.11 59.13 22.89 49.30 13.22 L 42.92 6.93 L 49.49 3.86 C 55.24 1.16 56.92 0.83 62.82 1.16 C 72.68 1.72 79.40 5.37 84.19 12.79 C 88.20 19.00 91.37 25.87 92.40 30.56 C 92.76 32.19 92.39 43.20 91.59 55.02 C 87.87 109.32 88.27 118.51 95.97 157.07 C 104.16 198.08 111.94 225.24 126.90 264.99 C 130.73 275.15 133.72 283.62 133.54 283.79 C 133.36 283.97 132.34 282.85 131.26 281.31 Z" stroke-linecap="round"></path>
</g>
</g>
</g>

        </g>
      
<g id="13424f9f-b6c0-4d6e-adda-4939aac3b7e1">
<g style="">
		<g id="13424f9f-b6c0-4d6e-adda-4939aac3b7e1-child-0">
<path style="stroke: rgb(193,193,193); stroke-opacity: 1.00; stroke-width: 0; stroke-dasharray: none; stroke-linecap: butt; stroke-dashoffset: 0; stroke-linejoin: miter; stroke-miterlimit: 4; fill: rgb(68,132,24); fill-opacity: 1.00; fill-rule: nonzero; opacity: 1;" d="M280.53315,36.17894c-11.34796,0.04063 -21.64787,6.64269 -26.42343,16.93696c-5.84573,-12.38451 -19.50316,-19.05353 -32.86408,-16.04776c-13.36092,3.00577 -22.84645,14.88119 -22.82519,28.57602c0.0864,32.85261 33.24917,41.37759 55.91967,73.79597c21.26813,-32.3342 55.60729,-42.28813 55.52532,-74.09284c-0.05376,-16.15096 -13.18128,-29.20512 -29.33229,-29.16835z" stroke-linecap="round"></path>
</g>
</g>
</g>

<g id="4ca3e4c3-9bae-428a-a945-0ed0d225e44d">
<g style="">
		<g id="4ca3e4c3-9bae-428a-a945-0ed0d225e44d-child-0">
<path style="stroke: rgb(193,193,193); stroke-opacity: 1.00; stroke-width: 0; stroke-dasharray: none; stroke-linecap: butt; stroke-dashoffset: 0; stroke-linejoin: miter; stroke-miterlimit: 4; fill: rgb(68,132,24); fill-opacity: 1.00; fill-rule: nonzero; opacity: 1;" transform="matrix(0.146561 -0.068268 0.068268 0.146561 420.561512 149.66943) matrix(1 0 0 1 0 0)  translate(-531.166992, -701.94353)" d="M 842.00 375.16 C 839.27 347.65 834.50 320.38 827.74 293.58 C 826.37 288.12 825.78 282.49 826.00 276.86 C 827.14 252.32 830.85 228.18 839.23 204.95 C 843.91 191.95 849.06 179.13 853.64 166.10 C 857.38 155.45 861.14 144.75 863.81 133.81 C 865.41 127.25 865.11 120.18 865.24 113.34 C 865.24 112.18 863.18 110.85 861.85 109.94 C 861.61 109.78 859.85 111.10 859.46 112.02 C 850.66 131.46 841.78 150.86 833.29 170.43 C 826.29 186.54 819.78 202.85 813.05 219.06 C 812.68 220.26 812.16 221.40 811.51 222.47 C 810.87 223.33 809.69 224.47 808.88 224.35 C 807.81 223.97 807.00 223.08 806.72 221.97 C 805.47 212.03 803.31 202.07 803.45 192.14 C 804.20 137.58 825.27 90.84 860.58 50.27 C 872.92 36.00 885.68 22.22 896.26 6.56 C 897.68 4.53 899.27 2.61 901.00 0.83 C 902.62 -0.88 906.46 0.22 907.08 2.67 C 908.14 6.26 908.86 9.95 909.26 13.67 C 910.12 26.18 910.54 38.67 911.37 51.24 C 915.37 111.95 902.83 168.47 869.27 219.81 C 863.09 229.27 857.27 239.01 851.86 248.92 C 845.13 261.25 841.10 274.25 843.60 288.69 C 844.88 296.08 844.97 303.69 846.02 311.12 C 849.51 335.98 853.17 360.81 856.83 385.63 C 857.00 386.75 857.59 388.51 858.29 388.63 C 859.53 388.73 860.74 388.25 861.58 387.33 C 872.89 373.89 883.49 359.78 895.47 346.96 C 921.78 318.81 943.33 287.17 964.36 255.14 C 969.51 247.30 973.46 238.67 977.80 230.32 C 978.09 229.25 977.80 228.11 977.03 227.32 C 975.99 226.96 974.83 227.16 973.97 227.86 C 970.30 232.14 966.76 236.54 963.31 241.01 C 951.06 257.00 938.92 273.00 926.57 288.87 C 921.57 295.31 916.18 301.47 910.80 307.61 C 909.70 308.86 907.80 309.43 906.33 310.32 C 905.88 308.08 904.63 305.66 905.11 303.65 C 910.69 280.29 919.23 258.10 931.90 237.65 C 948.14 211.48 966.76 186.87 987.53 164.13 C 1004.24 145.77 1024.32 131.99 1045.53 119.58 C 1047.74 118.41 1050.05 117.43 1052.44 116.67 C 1055.99 115.38 1058.78 117.81 1057.73 121.57 C 1055.01 131.23 1052.22 140.87 1049.10 150.41 Q 1031.27 204.98 1013.19 259.48 C 1008.96 272.25 1001.57 282.96 992.19 292.60 C 971.93 313.49 950.00 332.00 922.12 342.08 C 911.12 346.08 902.56 353.08 895.57 362.35 C 888.75 371.35 881.38 379.96 874.84 389.17 C 863.02 405.82 855.17 423.55 855.54 444.97 C 855.85 462.41 853.20 479.97 851.20 497.37 C 849.20 514.77 846.29 532.13 844.03 549.54 C 843.75 551.68 845.03 554.02 845.55 556.27 C 846.96 555.08 848.63 554.10 849.74 552.68 C 862.57 536.43 875.08 519.93 888.13 503.86 C 901.66 487.18 913.86 469.55 922.56 450.02 C 928.63 436.39 932.02 421.55 936.46 407.20 C 936.73 406.33 935.64 405.04 935.18 403.95 C 934.31 404.53 933.07 404.95 932.62 405.74 C 930.83 409.03 929.43 412.53 927.62 415.82 C 917.38 434.54 907.28 453.35 896.62 471.82 C 893.21 477.75 888.37 482.87 884.03 488.22 C 883.19 489.12 881.99 489.59 880.76 489.48 C 879.70 488.95 878.99 487.92 878.86 486.75 C 879.02 477.41 878.06 467.75 879.96 458.75 C 884.36 437.91 890.51 417.46 895.31 396.70 C 899.01 380.70 909.23 370.49 922.77 362.70 C 925.48 361.14 928.24 359.61 931.10 358.32 C 948.83 350.32 966.19 341.57 982.43 330.75 C 986.60 327.97 989.37 329.75 989.14 335.12 C 988.20 357.03 987.52 378.96 985.92 400.82 C 984.76 419.01 980.93 436.94 974.58 454.03 C 961.96 487.11 939.22 509.81 905.28 520.84 C 900.51 522.39 895.49 523.40 890.97 525.50 C 886.45 527.60 881.65 529.87 878.72 533.50 C 856.04 561.50 836.66 591.32 828.65 627.33 C 821.18 661.70 811.61 695.57 800.00 728.77 C 798.91 731.71 798.01 734.72 797.29 737.77 C 797.18 738.91 797.64 740.02 798.50 740.77 C 799.59 741.36 800.89 741.44 802.04 740.98 C 817.88 732.20 834.88 725.20 847.20 711.05 C 851.73 705.84 856.80 701.11 861.47 696.05 C 878.86 677.05 900.68 664.95 924.27 655.69 C 964.10 640.07 1005.97 636.69 1048.16 635.59 C 1051.84 635.49 1055.58 636.50 1059.24 637.26 C 1061.91 637.82 1063.18 641.17 1061.54 643.03 C 1059.90 644.89 1058.08 646.66 1056.26 648.37 Q 1029.52 673.52 1002.72 698.65 C 995.39 705.52 988.27 712.65 980.56 719.07 C 950.56 744.02 916.34 751.96 878.32 743.16 C 876.06 742.63 874.04 741.02 871.91 739.92 C 873.73 737.82 875.16 735.05 877.44 733.73 C 890.44 726.16 903.76 719.10 916.79 711.55 C 927.09 705.55 937.23 699.32 947.21 692.83 C 948.82 691.83 949.21 688.92 950.21 686.89 C 948.44 686.89 946.41 686.24 944.94 686.89 C 922.60 696.89 900.04 706.39 878.12 717.22 C 856.79 727.76 836.43 740.22 814.04 748.67 C 809.96 750.21 806.13 752.46 802.19 754.39 C 792.19 759.29 785.65 766.68 781.32 777.39 C 772.58 798.90 762.76 820.00 752.69 840.93 C 747.28 852.21 740.30 862.72 734.37 873.77 C 733.37 875.69 734.03 878.54 733.93 880.96 C 735.69 880.90 737.59 881.28 739.19 880.73 Q 790.88 863.15 842.52 845.37 C 850.23 842.73 857.99 840.21 865.66 837.45 C 866.46 836.76 866.84 835.70 866.66 834.66 C 866.12 833.59 865.11 832.83 863.94 832.60 C 861.44 832.46 858.93 832.62 856.47 833.10 C 843.53 835.69 830.65 838.50 817.71 841.10 C 811.15 842.40 804.52 843.35 797.92 844.45 C 798.92 835.83 806.66 833.25 812.25 829.05 C 824.89 819.62 839.51 813.17 855.00 810.19 C 873.59 806.41 892.28 805.35 911.14 805.05 C 931.94 804.72 950.56 811.65 968.28 821.64 C 974.92 825.38 974.92 828.48 968.34 831.81 C 942.59 844.81 917.01 858.24 890.84 870.37 C 877.25 876.67 862.72 881.17 848.31 885.44 C 832.97 889.98 816.52 891.34 802.12 884.44 C 788.67 878.00 776.91 879.44 764.25 884.12 C 756.02 887.18 747.81 890.32 739.50 893.12 C 725.90 897.75 716.01 906.12 708.33 918.60 C 682.33 961.03 651.56 999.95 617.87 1036.55 C 614.87 1039.78 611.87 1042.99 609.10 1046.36 C 608.39 1047.28 608.14 1048.47 608.43 1049.59 C 609.12 1050.48 610.21 1050.95 611.33 1050.85 C 616.18 1049.58 621.14 1048.45 625.72 1046.48 C 642.45 1039.30 659.26 1032.28 675.60 1024.30 C 691.94 1016.32 706.81 1005.59 718.66 991.35 C 720.29 989.45 721.71 987.38 722.89 985.17 C 723.24 984.07 723.06 982.87 722.40 981.93 C 722.11 981.53 720.19 981.76 719.45 982.31 C 715.94 984.94 712.62 987.82 709.15 990.52 C 696.85 1000.28 683.31 1008.38 668.88 1014.59 C 667.25 1015.27 665.27 1015.13 663.46 1015.38 C 663.56 1013.61 663.07 1011.52 663.84 1010.13 C 671.78 995.89 678.79 980.96 688.24 967.78 C 705.69 943.47 730.00 928.39 759.05 921.00 C 763.87 919.78 768.93 919.43 773.90 919.00 C 775.13 919.07 776.25 919.74 776.90 920.79 C 777.17 921.94 776.92 923.14 776.22 924.09 C 770.59 931.61 764.01 938.55 759.30 946.59 C 750.74 961.21 742.30 976.06 735.58 991.59 C 725.88 1013.95 709.26 1029.65 689.72 1042.59 C 679.32 1049.50 668.03 1055.37 654.53 1053.82 C 651.53 1053.48 648.32 1054.43 645.39 1055.36 Q 631.95 1059.62 618.71 1064.44 C 617.39 1064.93 616.60 1066.87 615.56 1068.14 C 616.94 1069.24 618.16 1070.90 619.72 1071.35 C 640.81 1077.45 661.78 1084.09 683.12 1089.18 C 707.96 1095.10 732.98 1093.97 757.65 1087.18 C 761.83 1086.03 766.26 1084.94 768.14 1080.18 C 769.14 1077.58 767.68 1077.44 757.25 1078.58 C 748.51 1079.53 739.76 1080.82 730.99 1080.99 C 719.73 1081.21 708.44 1080.57 697.18 1079.99 C 694.05 1079.70 690.97 1079.03 688.01 1077.99 C 686.93 1077.48 686.13 1076.52 685.83 1075.36 C 685.81 1074.28 686.35 1073.26 687.25 1072.67 C 694.10 1069.59 700.87 1066.20 707.98 1063.85 C 730.29 1056.47 753.46 1054.27 776.75 1054.60 C 791.16 1054.98 805.52 1056.32 819.75 1058.60 C 831.01 1060.28 841.61 1064.94 850.46 1072.10 C 854.46 1075.32 853.46 1080.45 848.54 1082.10 C 828.38 1089.10 808.17 1095.90 788.05 1102.99 C 776.81 1106.99 765.71 1111.32 754.55 1115.49 C 726.39 1126.01 700.15 1121.07 675.60 1105.09 C 654.05 1091.09 629.60 1085.63 605.05 1080.45 C 595.66 1078.51 585.88 1080.42 577.90 1085.73 C 561.00 1096.54 543.82 1107.00 527.56 1118.73 C 500.56 1138.21 473.38 1157.30 443.88 1172.87 C 442.17 1173.65 440.54 1174.59 439.01 1175.68 C 438.08 1176.48 437.45 1177.56 437.21 1178.76 C 436.68 1181.83 439.32 1181.42 440.88 1181.38 C 498.12 1179.93 554.88 1184.90 611.55 1192.77 C 616.53 1193.38 621.54 1193.73 626.55 1193.83 C 627.55 1193.83 628.68 1192.75 629.74 1192.16 C 629.14 1191.26 628.74 1189.76 627.92 1189.55 C 614.61 1185.95 601.33 1182.22 587.92 1179.15 C 579.99 1177.33 571.79 1176.76 563.78 1175.29 C 562.33 1175.02 561.17 1173.14 559.87 1172.01 C 560.87 1171.37 561.68 1170.42 562.72 1170.14 C 574.94 1166.87 587.44 1164.90 600.00 1166.60 C 628.09 1170.40 655.53 1176.83 681.63 1188.33 C 699.91 1196.33 714.46 1209.02 726.99 1224.21 C 730.57 1228.55 728.99 1232.65 723.44 1233.49 C 709.79 1235.56 696.09 1237.38 682.44 1239.15 C 667.51 1241.09 652.60 1243.47 637.60 1244.53 C 620.03 1245.74 602.39 1244.58 585.13 1241.09 C 562.77 1236.61 543.39 1226.43 529.96 1207.84 C 522.85 1198.02 514.62 1194.03 503.12 1194.08 C 476.77 1194.19 450.40 1193.31 424.12 1194.08 C 409.12 1194.55 394.04 1197.15 380.05 1203.25 C 355.86 1213.78 330.83 1222.28 305.23 1228.65 C 298.58 1230.32 292.23 1233.04 285.81 1235.65 C 285.23 1235.88 284.98 1239.24 285.71 1239.91 C 287.64 1241.51 289.83 1242.78 292.18 1243.66 C 317.53 1254.48 342.57 1266.18 368.42 1275.66 C 385.42 1281.89 403.52 1284.99 421.19 1289.24 C 424.19 1289.95 427.42 1289.41 430.54 1289.32 C 431.00 1289.32 431.67 1288.63 431.81 1288.14 C 431.95 1287.65 431.69 1286.63 431.35 1286.50 C 429.03 1285.61 426.62 1284.97 424.29 1284.11 C 401.29 1275.64 378.38 1267.18 355.49 1258.53 C 354.20 1258.04 353.49 1255.93 352.56 1254.53 C 353.66 1254.14 354.77 1253.38 355.86 1253.43 C 420.58 1256.00 478.07 1278.88 530.00 1317.00 C 531.07 1317.64 532.00 1318.50 532.73 1319.52 C 533.41 1321.04 533.95 1322.61 534.34 1324.23 C 533.22 1324.46 532.01 1325.05 530.97 1324.84 C 511.79 1320.84 492.33 1321.03 472.88 1320.69 C 447.79 1320.25 422.69 1319.82 397.63 1318.62 C 385.74 1317.91 373.91 1316.37 362.24 1314.00 C 348.92 1311.45 337.51 1304.92 329.03 1294.00 Q 320.38 1282.89 312.19 1271.41 C 309.26 1267.31 306.67 1263.14 301.62 1261.12 C 288.22 1255.77 274.99 1250.00 261.55 1244.79 C 253.80 1241.79 245.76 1241.85 237.46 1243.20 C 211.44 1247.55 185.13 1249.89 158.75 1250.20 C 156.24 1250.22 153.75 1250.49 151.29 1250.99 C 150.16 1251.22 149.19 1251.96 148.67 1252.99 C 148.57 1254.21 148.99 1255.41 149.82 1256.30 C 158.42 1265.44 167.11 1274.49 175.77 1283.56 C 184.44 1305.31 203.01 1315.29 223.15 1323.40 C 223.73 1323.63 224.27 1323.96 224.85 1324.21 C 239.19 1330.57 253.53 1336.96 267.92 1343.21 C 268.99 1343.41 270.09 1343.03 270.81 1342.21 C 271.22 1341.38 270.98 1339.43 270.34 1339.02 C 262.98 1334.26 255.52 1329.65 248.03 1325.11 C 236.24 1317.96 224.36 1310.95 212.65 1303.68 C 211.65 1303.03 211.51 1300.85 210.98 1299.39 C 212.14 1299.05 213.37 1298.28 214.46 1298.39 C 240.16 1302.19 264.74 1308.99 286.30 1324.39 C 312.38 1343.04 331.14 1367.98 347.83 1394.78 C 348.23 1395.27 348.50 1395.85 348.59 1396.48 C 348.44 1398.77 348.59 1401.27 347.66 1403.23 C 347.29 1403.99 344.13 1404.09 342.61 1403.52 Q 309.97 1391.32 277.44 1378.81 C 265.12 1374.10 252.69 1369.65 240.60 1364.39 C 223.81 1357.08 208.11 1347.77 194.96 1334.86 C 190.10 1330.09 184.39 1324.86 182.47 1318.71 C 177.74 1303.71 167.65 1292.76 158.06 1281.23 C 141.26 1261.05 119.55 1249.65 94.06 1244.59 C 77.44 1241.31 60.74 1238.04 44.52 1233.26 C 30.15 1229.02 16.33 1222.85 2.45 1217.09 C 0.96 1216.47 -0.36 1212.54 0.19 1210.74 C 0.67 1209.13 3.80 1207.52 5.86 1207.39 C 8.17 1207.24 10.70 1208.51 12.96 1209.55 C 42.41 1223.07 74.22 1227.73 105.54 1234.16 C 111.67 1235.42 117.98 1235.79 124.19 1236.66 C 130.19 1237.51 135.36 1235.94 139.42 1231.26 C 158.71 1209.01 180.54 1188.79 193.61 1161.65 C 199.87 1148.65 206.91 1136.01 213.40 1123.11 C 213.99 1121.93 213.07 1119.99 212.85 1118.40 C 211.85 1118.88 210.34 1119.07 209.77 1119.88 Q 195.77 1139.88 181.93 1160.08 C 177.34 1166.81 173.06 1173.75 168.48 1180.49 C 167.94 1181.27 166.37 1181.35 165.28 1181.75 C 164.93 1180.75 164.04 1179.58 164.28 1178.75 C 169.62 1161.37 174.93 1143.99 180.64 1126.75 C 182.13 1122.61 184.25 1118.72 186.94 1115.24 C 204.30 1091.91 223.84 1070.72 248.81 1055.32 C 256.81 1050.41 265.39 1046.50 273.93 1042.63 C 275.73 1041.81 279.37 1042.35 280.58 1043.69 C 281.79 1045.03 281.81 1048.33 281.45 1050.62 C 281.09 1052.91 279.70 1055.29 278.66 1057.62 C 267.50 1082.30 257.00 1107.20 245.00 1131.39 C 237.43 1146.57 228.72 1161.14 218.94 1175.00 C 208.05 1190.50 194.65 1203.89 176.83 1211.70 C 167.13 1215.96 161.36 1224.22 154.98 1231.91 C 154.30 1232.73 153.84 1234.73 154.33 1235.32 C 155.33 1236.52 157.06 1237.94 158.39 1237.85 C 180.29 1236.31 202.25 1235.23 224.01 1232.52 C 233.37 1231.41 242.37 1228.27 250.39 1223.32 C 278.15 1205.46 302.22 1183.70 317.12 1153.32 C 331.22 1124.57 345.54 1095.94 359.70 1067.22 C 360.16 1066.29 359.86 1064.99 359.91 1063.86 C 358.39 1064.48 356.41 1064.68 355.41 1065.78 C 343.88 1078.45 336.10 1093.55 327.97 1108.43 C 324.71 1114.43 321.24 1120.30 317.87 1126.23 C 314.76 1118.62 318.70 1111.75 320.45 1104.80 C 324.35 1088.91 330.72 1073.72 339.32 1059.80 C 354.77 1035.11 377.99 1021.06 405.18 1012.80 C 408.63 1011.80 412.59 1011.93 416.27 1012.19 C 420.21 1012.47 422.65 1016.55 421.69 1020.42 C 421.39 1021.63 420.93 1022.81 420.52 1024.00 C 413.39 1044.77 406.21 1065.53 399.14 1086.33 C 393.08 1104.22 383.51 1120.72 371.00 1134.87 C 360.14 1147.11 347.17 1157.30 332.72 1164.97 C 327.29 1167.91 321.72 1170.57 317.97 1176.19 C 308.47 1190.37 296.41 1202.29 283.44 1213.33 C 281.55 1214.97 279.88 1216.83 278.44 1218.87 C 278.08 1219.38 278.79 1221.36 279.51 1221.76 C 280.68 1222.22 281.97 1222.29 283.18 1221.96 C 332.83 1211.88 378.96 1192.24 423.95 1169.64 C 427.46 1167.88 430.45 1163.64 432.06 1159.91 C 434.25 1154.81 435.28 1149.11 436.06 1143.56 C 438.91 1124.28 439.37 1104.89 438.52 1085.42 C 437.34 1058.34 438.36 1031.42 448.36 1005.72 C 449.16 1004.02 449.70 1002.20 449.95 1000.34 C 450.05 998.81 449.20 997.22 448.77 995.66 C 447.77 996.25 446.29 996.57 445.69 997.46 C 443.24 1001.10 441.32 1005.12 438.64 1008.56 C 437.11 1010.56 438.15 1015.62 433.64 1013.93 C 432.64 1013.53 432.54 1009.28 432.79 1006.93 C 435.28 983.02 443.25 961.77 462.88 946.36 C 468.28 942.11 473.58 937.70 479.26 933.87 C 481.64 932.27 484.20 933.75 484.66 936.74 C 485.06 939.82 485.21 942.93 485.10 946.04 C 484.93 960.45 484.81 974.86 484.42 989.26 C 483.94 1006.79 483.67 1024.35 482.47 1041.83 C 480.97 1063.45 475.38 1083.83 461.47 1101.27 C 458.47 1105.01 456.96 1110.15 455.73 1114.90 C 453.20 1124.60 451.20 1134.45 449.28 1144.30 C 448.71 1147.21 449.13 1150.30 449.11 1153.30 C 451.94 1152.69 455.24 1152.81 457.53 1151.30 C 472.88 1141.55 488.82 1132.48 503.05 1121.30 C 529.77 1100.24 544.21 1073.30 539.87 1037.77 C 536.68 1012.86 536.88 987.63 540.49 962.77 C 546.77 921.00 574.00 897.00 608.47 878.41 C 609.62 877.93 610.93 878.02 612.01 878.64 C 612.72 879.56 612.92 880.78 612.54 881.88 C 602.45 902.68 600.90 925.31 598.25 947.71 C 597.51 953.94 596.77 960.18 595.62 966.33 C 592.62 982.53 587.28 997.88 578.14 1011.72 C 576.71 1013.78 575.18 1015.76 573.53 1017.65 C 573.11 1018.10 572.51 1018.32 571.90 1018.25 C 570.97 1017.84 569.55 1017.19 569.44 1016.47 C 568.72 1011.53 567.73 1006.53 567.85 1001.57 C 568.22 986.57 569.13 971.57 569.64 956.57 C 569.65 952.88 569.35 949.21 568.74 945.57 C 568.74 945.23 566.01 944.67 565.74 945.01 C 563.74 948.08 561.32 951.13 560.26 954.56 C 555.26 970.90 553.94 987.78 554.60 1004.77 C 555.60 1030.50 556.97 1056.22 547.04 1080.87 C 546.90 1081.95 547.34 1083.03 548.20 1083.70 C 549.35 1084.08 550.60 1083.91 551.61 1083.25 C 556.91 1078.83 562.15 1074.33 567.24 1069.68 C 622.82 1018.88 668.99 960.46 708.61 896.55 C 717.31 882.55 721.61 868.21 720.61 852.13 C 719.97 841.49 718.61 830.89 717.70 820.25 C 717.20 814.25 713.82 811.14 708.30 810.25 C 699.02 808.70 689.55 808.08 680.43 805.92 C 659.99 801.09 639.36 800.92 618.67 802.53 C 611.21 803.10 603.81 804.93 596.50 806.67 C 591.57 807.84 585.57 814.24 587.09 814.53 C 590.76 815.11 594.48 815.27 598.18 814.99 C 605.07 814.65 611.96 813.49 618.83 813.59 C 631.32 813.77 643.83 814.53 656.29 815.30 C 657.73 815.39 660.22 817.03 660.23 817.96 C 660.02 819.80 659.11 821.48 657.69 822.67 C 654.81 825.08 651.78 827.31 648.63 829.36 C 635.63 838.17 620.76 841.22 605.63 841.67 C 576.79 842.54 547.92 842.17 519.05 842.22 C 516.54 842.11 514.04 841.74 511.61 841.11 C 508.38 840.41 507.84 837.89 509.14 835.52 C 511.27 831.70 513.71 828.06 516.42 824.63 C 532.31 804.32 553.54 791.26 576.42 780.30 C 590.99 773.30 606.48 771.20 622.19 770.78 C 635.73 770.41 649.08 773.72 658.37 783.92 C 665.96 792.24 674.66 794.67 684.92 795.39 C 691.17 795.84 697.34 797.15 703.58 797.86 C 712.03 798.86 713.58 797.27 710.90 788.42 C 707.90 778.23 704.17 768.21 700.35 758.27 C 688.09 726.42 671.53 697.04 649.35 671.00 C 645.17 666.34 640.76 661.90 636.14 657.69 C 635.37 656.95 633.82 657.02 632.64 656.69 C 632.47 658.35 631.56 660.49 632.27 661.59 C 638.36 671.08 644.51 680.59 651.09 689.70 C 665.36 709.57 677.29 731.02 686.65 753.62 C 687.21 754.96 686.48 756.85 686.35 758.48 C 685.17 758.20 683.74 758.25 682.86 757.59 Q 668.53 746.86 654.36 735.93 C 622.80 711.53 599.26 681.35 586.94 642.93 C 580.94 624.07 579.65 604.84 581.38 585.30 C 581.80 582.19 582.58 579.14 583.70 576.21 C 585.95 569.52 589.83 568.29 594.50 573.34 C 612.93 593.34 634.36 609.59 656.26 625.50 C 679.07 642.09 695.42 664.43 706.65 690.08 C 713.15 704.93 719.71 720.08 719.93 736.91 C 720.10 750.03 719.93 763.19 725.55 775.56 C 726.55 777.76 726.55 780.46 726.79 782.96 C 727.97 796.70 729.12 810.44 730.16 824.19 C 730.69 831.06 730.91 837.96 731.47 844.83 C 731.54 845.72 732.74 847.15 733.47 847.19 C 734.67 847.15 735.78 846.55 736.47 845.57 C 740.61 837.82 744.76 830.07 748.54 822.15 C 775.92 764.89 797.44 705.01 812.75 643.42 C 815.59 632.00 814.05 622.80 807.24 613.42 C 796.77 599.06 784.70 586.27 770.05 576.42 C 757.58 567.97 746.32 557.86 736.58 546.36 C 730.45 539.22 723.97 532.36 717.66 525.36 C 698.25 503.90 680.53 481.20 666.46 455.81 C 665.22 453.63 663.79 451.57 662.17 449.65 C 661.49 448.84 660.17 448.56 659.17 448.03 C 658.54 449.47 657.17 451.03 657.41 452.32 C 659.20 464.32 665.30 474.73 670.74 485.32 C 681.15 505.51 695.12 523.22 709.74 540.45 C 711.10 542.05 711.22 544.69 711.92 546.85 C 710.14 546.31 708.32 545.85 706.58 545.18 C 705.42 544.69 704.31 544.09 703.28 543.37 C 640.47 502.88 607.98 445.37 606.52 370.55 C 606.60 366.17 607.31 361.83 608.64 357.65 C 610.41 351.36 615.52 350.10 619.75 355.16 C 634.80 373.16 653.41 387.11 671.24 401.97 C 678.00 407.60 684.81 413.19 691.24 419.21 C 707.70 434.70 723.64 450.67 736.73 469.28 C 751.19 489.85 758.54 512.87 761.25 537.61 C 757.89 547.89 764.44 553.98 770.81 560.14 L 820.04 607.82 C 821.44 602.28 823.28 596.46 824.34 590.49 C 828.29 568.27 831.59 545.92 835.87 523.76 C 839.81 503.33 837.46 483.50 830.16 464.54 C 818.89 435.31 806.65 406.43 794.28 377.64 C 781.38 347.64 763.28 320.34 747.74 291.72 C 739.95 277.40 732.20 263.06 724.02 248.97 C 720.91 243.62 716.68 238.89 712.79 234.03 C 712.49 233.67 709.86 234.36 709.79 234.78 C 709.51 236.62 709.57 238.50 709.96 240.32 C 714.44 260.10 723.60 278.05 732.59 295.95 C 741.58 313.85 751.93 331.05 761.52 348.64 C 762.25 349.97 761.64 352.03 761.65 353.74 C 760.43 353.56 759.05 353.69 758.02 353.15 C 728.38 337.36 705.15 314.96 690.02 284.91 C 668.70 242.62 663.07 197.81 670.78 151.26 C 671.89 145.09 673.53 139.03 675.69 133.14 C 677.24 129.03 679.29 125.13 681.81 121.54 C 685.33 116.32 690.52 116.30 694.08 121.13 C 694.82 122.13 695.25 123.36 695.99 124.37 C 708.24 141.03 719.99 158.07 732.92 174.21 C 748.65 193.76 762.26 214.93 773.50 237.37 C 788.44 267.37 799.43 298.84 799.50 332.79 C 799.44 349.80 803.38 366.58 811.00 381.78 Q 824.38 408.71 838.14 435.43 C 839.21 437.53 841.01 439.25 843.38 442.31 C 845.11 418.77 844.06 396.94 842.00 375.16 Z" stroke-linecap="round"></path>
</g>
</g>
</g>

<g id="f568c980-d628-40b8-9490-d6c289bb7107">
<g style="">
		<g id="f568c980-d628-40b8-9490-d6c289bb7107-child-0">
<path style="stroke: rgb(193,193,193); stroke-opacity: 1.00; stroke-width: 0; stroke-dasharray: none; stroke-linecap: butt; stroke-dashoffset: 0; stroke-linejoin: miter; stroke-miterlimit: 4; fill: rgb(68,132,24); fill-opacity: 1.00; fill-rule: nonzero; opacity: 1;" transform="matrix(-0.146561 -0.068268 -0.068268 0.146561 87.725764 149.67519) matrix(1 0 0 1 0 0)  translate(-531.166992, -701.94353)" d="M 842.00 375.16 C 839.27 347.65 834.50 320.38 827.74 293.58 C 826.37 288.12 825.78 282.49 826.00 276.86 C 827.14 252.32 830.85 228.18 839.23 204.95 C 843.91 191.95 849.06 179.13 853.64 166.10 C 857.38 155.45 861.14 144.75 863.81 133.81 C 865.41 127.25 865.11 120.18 865.24 113.34 C 865.24 112.18 863.18 110.85 861.85 109.94 C 861.61 109.78 859.85 111.10 859.46 112.02 C 850.66 131.46 841.78 150.86 833.29 170.43 C 826.29 186.54 819.78 202.85 813.05 219.06 C 812.68 220.26 812.16 221.40 811.51 222.47 C 810.87 223.33 809.69 224.47 808.88 224.35 C 807.81 223.97 807.00 223.08 806.72 221.97 C 805.47 212.03 803.31 202.07 803.45 192.14 C 804.20 137.58 825.27 90.84 860.58 50.27 C 872.92 36.00 885.68 22.22 896.26 6.56 C 897.68 4.53 899.27 2.61 901.00 0.83 C 902.62 -0.88 906.46 0.22 907.08 2.67 C 908.14 6.26 908.86 9.95 909.26 13.67 C 910.12 26.18 910.54 38.67 911.37 51.24 C 915.37 111.95 902.83 168.47 869.27 219.81 C 863.09 229.27 857.27 239.01 851.86 248.92 C 845.13 261.25 841.10 274.25 843.60 288.69 C 844.88 296.08 844.97 303.69 846.02 311.12 C 849.51 335.98 853.17 360.81 856.83 385.63 C 857.00 386.75 857.59 388.51 858.29 388.63 C 859.53 388.73 860.74 388.25 861.58 387.33 C 872.89 373.89 883.49 359.78 895.47 346.96 C 921.78 318.81 943.33 287.17 964.36 255.14 C 969.51 247.30 973.46 238.67 977.80 230.32 C 978.09 229.25 977.80 228.11 977.03 227.32 C 975.99 226.96 974.83 227.16 973.97 227.86 C 970.30 232.14 966.76 236.54 963.31 241.01 C 951.06 257.00 938.92 273.00 926.57 288.87 C 921.57 295.31 916.18 301.47 910.80 307.61 C 909.70 308.86 907.80 309.43 906.33 310.32 C 905.88 308.08 904.63 305.66 905.11 303.65 C 910.69 280.29 919.23 258.10 931.90 237.65 C 948.14 211.48 966.76 186.87 987.53 164.13 C 1004.24 145.77 1024.32 131.99 1045.53 119.58 C 1047.74 118.41 1050.05 117.43 1052.44 116.67 C 1055.99 115.38 1058.78 117.81 1057.73 121.57 C 1055.01 131.23 1052.22 140.87 1049.10 150.41 Q 1031.27 204.98 1013.19 259.48 C 1008.96 272.25 1001.57 282.96 992.19 292.60 C 971.93 313.49 950.00 332.00 922.12 342.08 C 911.12 346.08 902.56 353.08 895.57 362.35 C 888.75 371.35 881.38 379.96 874.84 389.17 C 863.02 405.82 855.17 423.55 855.54 444.97 C 855.85 462.41 853.20 479.97 851.20 497.37 C 849.20 514.77 846.29 532.13 844.03 549.54 C 843.75 551.68 845.03 554.02 845.55 556.27 C 846.96 555.08 848.63 554.10 849.74 552.68 C 862.57 536.43 875.08 519.93 888.13 503.86 C 901.66 487.18 913.86 469.55 922.56 450.02 C 928.63 436.39 932.02 421.55 936.46 407.20 C 936.73 406.33 935.64 405.04 935.18 403.95 C 934.31 404.53 933.07 404.95 932.62 405.74 C 930.83 409.03 929.43 412.53 927.62 415.82 C 917.38 434.54 907.28 453.35 896.62 471.82 C 893.21 477.75 888.37 482.87 884.03 488.22 C 883.19 489.12 881.99 489.59 880.76 489.48 C 879.70 488.95 878.99 487.92 878.86 486.75 C 879.02 477.41 878.06 467.75 879.96 458.75 C 884.36 437.91 890.51 417.46 895.31 396.70 C 899.01 380.70 909.23 370.49 922.77 362.70 C 925.48 361.14 928.24 359.61 931.10 358.32 C 948.83 350.32 966.19 341.57 982.43 330.75 C 986.60 327.97 989.37 329.75 989.14 335.12 C 988.20 357.03 987.52 378.96 985.92 400.82 C 984.76 419.01 980.93 436.94 974.58 454.03 C 961.96 487.11 939.22 509.81 905.28 520.84 C 900.51 522.39 895.49 523.40 890.97 525.50 C 886.45 527.60 881.65 529.87 878.72 533.50 C 856.04 561.50 836.66 591.32 828.65 627.33 C 821.18 661.70 811.61 695.57 800.00 728.77 C 798.91 731.71 798.01 734.72 797.29 737.77 C 797.18 738.91 797.64 740.02 798.50 740.77 C 799.59 741.36 800.89 741.44 802.04 740.98 C 817.88 732.20 834.88 725.20 847.20 711.05 C 851.73 705.84 856.80 701.11 861.47 696.05 C 878.86 677.05 900.68 664.95 924.27 655.69 C 964.10 640.07 1005.97 636.69 1048.16 635.59 C 1051.84 635.49 1055.58 636.50 1059.24 637.26 C 1061.91 637.82 1063.18 641.17 1061.54 643.03 C 1059.90 644.89 1058.08 646.66 1056.26 648.37 Q 1029.52 673.52 1002.72 698.65 C 995.39 705.52 988.27 712.65 980.56 719.07 C 950.56 744.02 916.34 751.96 878.32 743.16 C 876.06 742.63 874.04 741.02 871.91 739.92 C 873.73 737.82 875.16 735.05 877.44 733.73 C 890.44 726.16 903.76 719.10 916.79 711.55 C 927.09 705.55 937.23 699.32 947.21 692.83 C 948.82 691.83 949.21 688.92 950.21 686.89 C 948.44 686.89 946.41 686.24 944.94 686.89 C 922.60 696.89 900.04 706.39 878.12 717.22 C 856.79 727.76 836.43 740.22 814.04 748.67 C 809.96 750.21 806.13 752.46 802.19 754.39 C 792.19 759.29 785.65 766.68 781.32 777.39 C 772.58 798.90 762.76 820.00 752.69 840.93 C 747.28 852.21 740.30 862.72 734.37 873.77 C 733.37 875.69 734.03 878.54 733.93 880.96 C 735.69 880.90 737.59 881.28 739.19 880.73 Q 790.88 863.15 842.52 845.37 C 850.23 842.73 857.99 840.21 865.66 837.45 C 866.46 836.76 866.84 835.70 866.66 834.66 C 866.12 833.59 865.11 832.83 863.94 832.60 C 861.44 832.46 858.93 832.62 856.47 833.10 C 843.53 835.69 830.65 838.50 817.71 841.10 C 811.15 842.40 804.52 843.35 797.92 844.45 C 798.92 835.83 806.66 833.25 812.25 829.05 C 824.89 819.62 839.51 813.17 855.00 810.19 C 873.59 806.41 892.28 805.35 911.14 805.05 C 931.94 804.72 950.56 811.65 968.28 821.64 C 974.92 825.38 974.92 828.48 968.34 831.81 C 942.59 844.81 917.01 858.24 890.84 870.37 C 877.25 876.67 862.72 881.17 848.31 885.44 C 832.97 889.98 816.52 891.34 802.12 884.44 C 788.67 878.00 776.91 879.44 764.25 884.12 C 756.02 887.18 747.81 890.32 739.50 893.12 C 725.90 897.75 716.01 906.12 708.33 918.60 C 682.33 961.03 651.56 999.95 617.87 1036.55 C 614.87 1039.78 611.87 1042.99 609.10 1046.36 C 608.39 1047.28 608.14 1048.47 608.43 1049.59 C 609.12 1050.48 610.21 1050.95 611.33 1050.85 C 616.18 1049.58 621.14 1048.45 625.72 1046.48 C 642.45 1039.30 659.26 1032.28 675.60 1024.30 C 691.94 1016.32 706.81 1005.59 718.66 991.35 C 720.29 989.45 721.71 987.38 722.89 985.17 C 723.24 984.07 723.06 982.87 722.40 981.93 C 722.11 981.53 720.19 981.76 719.45 982.31 C 715.94 984.94 712.62 987.82 709.15 990.52 C 696.85 1000.28 683.31 1008.38 668.88 1014.59 C 667.25 1015.27 665.27 1015.13 663.46 1015.38 C 663.56 1013.61 663.07 1011.52 663.84 1010.13 C 671.78 995.89 678.79 980.96 688.24 967.78 C 705.69 943.47 730.00 928.39 759.05 921.00 C 763.87 919.78 768.93 919.43 773.90 919.00 C 775.13 919.07 776.25 919.74 776.90 920.79 C 777.17 921.94 776.92 923.14 776.22 924.09 C 770.59 931.61 764.01 938.55 759.30 946.59 C 750.74 961.21 742.30 976.06 735.58 991.59 C 725.88 1013.95 709.26 1029.65 689.72 1042.59 C 679.32 1049.50 668.03 1055.37 654.53 1053.82 C 651.53 1053.48 648.32 1054.43 645.39 1055.36 Q 631.95 1059.62 618.71 1064.44 C 617.39 1064.93 616.60 1066.87 615.56 1068.14 C 616.94 1069.24 618.16 1070.90 619.72 1071.35 C 640.81 1077.45 661.78 1084.09 683.12 1089.18 C 707.96 1095.10 732.98 1093.97 757.65 1087.18 C 761.83 1086.03 766.26 1084.94 768.14 1080.18 C 769.14 1077.58 767.68 1077.44 757.25 1078.58 C 748.51 1079.53 739.76 1080.82 730.99 1080.99 C 719.73 1081.21 708.44 1080.57 697.18 1079.99 C 694.05 1079.70 690.97 1079.03 688.01 1077.99 C 686.93 1077.48 686.13 1076.52 685.83 1075.36 C 685.81 1074.28 686.35 1073.26 687.25 1072.67 C 694.10 1069.59 700.87 1066.20 707.98 1063.85 C 730.29 1056.47 753.46 1054.27 776.75 1054.60 C 791.16 1054.98 805.52 1056.32 819.75 1058.60 C 831.01 1060.28 841.61 1064.94 850.46 1072.10 C 854.46 1075.32 853.46 1080.45 848.54 1082.10 C 828.38 1089.10 808.17 1095.90 788.05 1102.99 C 776.81 1106.99 765.71 1111.32 754.55 1115.49 C 726.39 1126.01 700.15 1121.07 675.60 1105.09 C 654.05 1091.09 629.60 1085.63 605.05 1080.45 C 595.66 1078.51 585.88 1080.42 577.90 1085.73 C 561.00 1096.54 543.82 1107.00 527.56 1118.73 C 500.56 1138.21 473.38 1157.30 443.88 1172.87 C 442.17 1173.65 440.54 1174.59 439.01 1175.68 C 438.08 1176.48 437.45 1177.56 437.21 1178.76 C 436.68 1181.83 439.32 1181.42 440.88 1181.38 C 498.12 1179.93 554.88 1184.90 611.55 1192.77 C 616.53 1193.38 621.54 1193.73 626.55 1193.83 C 627.55 1193.83 628.68 1192.75 629.74 1192.16 C 629.14 1191.26 628.74 1189.76 627.92 1189.55 C 614.61 1185.95 601.33 1182.22 587.92 1179.15 C 579.99 1177.33 571.79 1176.76 563.78 1175.29 C 562.33 1175.02 561.17 1173.14 559.87 1172.01 C 560.87 1171.37 561.68 1170.42 562.72 1170.14 C 574.94 1166.87 587.44 1164.90 600.00 1166.60 C 628.09 1170.40 655.53 1176.83 681.63 1188.33 C 699.91 1196.33 714.46 1209.02 726.99 1224.21 C 730.57 1228.55 728.99 1232.65 723.44 1233.49 C 709.79 1235.56 696.09 1237.38 682.44 1239.15 C 667.51 1241.09 652.60 1243.47 637.60 1244.53 C 620.03 1245.74 602.39 1244.58 585.13 1241.09 C 562.77 1236.61 543.39 1226.43 529.96 1207.84 C 522.85 1198.02 514.62 1194.03 503.12 1194.08 C 476.77 1194.19 450.40 1193.31 424.12 1194.08 C 409.12 1194.55 394.04 1197.15 380.05 1203.25 C 355.86 1213.78 330.83 1222.28 305.23 1228.65 C 298.58 1230.32 292.23 1233.04 285.81 1235.65 C 285.23 1235.88 284.98 1239.24 285.71 1239.91 C 287.64 1241.51 289.83 1242.78 292.18 1243.66 C 317.53 1254.48 342.57 1266.18 368.42 1275.66 C 385.42 1281.89 403.52 1284.99 421.19 1289.24 C 424.19 1289.95 427.42 1289.41 430.54 1289.32 C 431.00 1289.32 431.67 1288.63 431.81 1288.14 C 431.95 1287.65 431.69 1286.63 431.35 1286.50 C 429.03 1285.61 426.62 1284.97 424.29 1284.11 C 401.29 1275.64 378.38 1267.18 355.49 1258.53 C 354.20 1258.04 353.49 1255.93 352.56 1254.53 C 353.66 1254.14 354.77 1253.38 355.86 1253.43 C 420.58 1256.00 478.07 1278.88 530.00 1317.00 C 531.07 1317.64 532.00 1318.50 532.73 1319.52 C 533.41 1321.04 533.95 1322.61 534.34 1324.23 C 533.22 1324.46 532.01 1325.05 530.97 1324.84 C 511.79 1320.84 492.33 1321.03 472.88 1320.69 C 447.79 1320.25 422.69 1319.82 397.63 1318.62 C 385.74 1317.91 373.91 1316.37 362.24 1314.00 C 348.92 1311.45 337.51 1304.92 329.03 1294.00 Q 320.38 1282.89 312.19 1271.41 C 309.26 1267.31 306.67 1263.14 301.62 1261.12 C 288.22 1255.77 274.99 1250.00 261.55 1244.79 C 253.80 1241.79 245.76 1241.85 237.46 1243.20 C 211.44 1247.55 185.13 1249.89 158.75 1250.20 C 156.24 1250.22 153.75 1250.49 151.29 1250.99 C 150.16 1251.22 149.19 1251.96 148.67 1252.99 C 148.57 1254.21 148.99 1255.41 149.82 1256.30 C 158.42 1265.44 167.11 1274.49 175.77 1283.56 C 184.44 1305.31 203.01 1315.29 223.15 1323.40 C 223.73 1323.63 224.27 1323.96 224.85 1324.21 C 239.19 1330.57 253.53 1336.96 267.92 1343.21 C 268.99 1343.41 270.09 1343.03 270.81 1342.21 C 271.22 1341.38 270.98 1339.43 270.34 1339.02 C 262.98 1334.26 255.52 1329.65 248.03 1325.11 C 236.24 1317.96 224.36 1310.95 212.65 1303.68 C 211.65 1303.03 211.51 1300.85 210.98 1299.39 C 212.14 1299.05 213.37 1298.28 214.46 1298.39 C 240.16 1302.19 264.74 1308.99 286.30 1324.39 C 312.38 1343.04 331.14 1367.98 347.83 1394.78 C 348.23 1395.27 348.50 1395.85 348.59 1396.48 C 348.44 1398.77 348.59 1401.27 347.66 1403.23 C 347.29 1403.99 344.13 1404.09 342.61 1403.52 Q 309.97 1391.32 277.44 1378.81 C 265.12 1374.10 252.69 1369.65 240.60 1364.39 C 223.81 1357.08 208.11 1347.77 194.96 1334.86 C 190.10 1330.09 184.39 1324.86 182.47 1318.71 C 177.74 1303.71 167.65 1292.76 158.06 1281.23 C 141.26 1261.05 119.55 1249.65 94.06 1244.59 C 77.44 1241.31 60.74 1238.04 44.52 1233.26 C 30.15 1229.02 16.33 1222.85 2.45 1217.09 C 0.96 1216.47 -0.36 1212.54 0.19 1210.74 C 0.67 1209.13 3.80 1207.52 5.86 1207.39 C 8.17 1207.24 10.70 1208.51 12.96 1209.55 C 42.41 1223.07 74.22 1227.73 105.54 1234.16 C 111.67 1235.42 117.98 1235.79 124.19 1236.66 C 130.19 1237.51 135.36 1235.94 139.42 1231.26 C 158.71 1209.01 180.54 1188.79 193.61 1161.65 C 199.87 1148.65 206.91 1136.01 213.40 1123.11 C 213.99 1121.93 213.07 1119.99 212.85 1118.40 C 211.85 1118.88 210.34 1119.07 209.77 1119.88 Q 195.77 1139.88 181.93 1160.08 C 177.34 1166.81 173.06 1173.75 168.48 1180.49 C 167.94 1181.27 166.37 1181.35 165.28 1181.75 C 164.93 1180.75 164.04 1179.58 164.28 1178.75 C 169.62 1161.37 174.93 1143.99 180.64 1126.75 C 182.13 1122.61 184.25 1118.72 186.94 1115.24 C 204.30 1091.91 223.84 1070.72 248.81 1055.32 C 256.81 1050.41 265.39 1046.50 273.93 1042.63 C 275.73 1041.81 279.37 1042.35 280.58 1043.69 C 281.79 1045.03 281.81 1048.33 281.45 1050.62 C 281.09 1052.91 279.70 1055.29 278.66 1057.62 C 267.50 1082.30 257.00 1107.20 245.00 1131.39 C 237.43 1146.57 228.72 1161.14 218.94 1175.00 C 208.05 1190.50 194.65 1203.89 176.83 1211.70 C 167.13 1215.96 161.36 1224.22 154.98 1231.91 C 154.30 1232.73 153.84 1234.73 154.33 1235.32 C 155.33 1236.52 157.06 1237.94 158.39 1237.85 C 180.29 1236.31 202.25 1235.23 224.01 1232.52 C 233.37 1231.41 242.37 1228.27 250.39 1223.32 C 278.15 1205.46 302.22 1183.70 317.12 1153.32 C 331.22 1124.57 345.54 1095.94 359.70 1067.22 C 360.16 1066.29 359.86 1064.99 359.91 1063.86 C 358.39 1064.48 356.41 1064.68 355.41 1065.78 C 343.88 1078.45 336.10 1093.55 327.97 1108.43 C 324.71 1114.43 321.24 1120.30 317.87 1126.23 C 314.76 1118.62 318.70 1111.75 320.45 1104.80 C 324.35 1088.91 330.72 1073.72 339.32 1059.80 C 354.77 1035.11 377.99 1021.06 405.18 1012.80 C 408.63 1011.80 412.59 1011.93 416.27 1012.19 C 420.21 1012.47 422.65 1016.55 421.69 1020.42 C 421.39 1021.63 420.93 1022.81 420.52 1024.00 C 413.39 1044.77 406.21 1065.53 399.14 1086.33 C 393.08 1104.22 383.51 1120.72 371.00 1134.87 C 360.14 1147.11 347.17 1157.30 332.72 1164.97 C 327.29 1167.91 321.72 1170.57 317.97 1176.19 C 308.47 1190.37 296.41 1202.29 283.44 1213.33 C 281.55 1214.97 279.88 1216.83 278.44 1218.87 C 278.08 1219.38 278.79 1221.36 279.51 1221.76 C 280.68 1222.22 281.97 1222.29 283.18 1221.96 C 332.83 1211.88 378.96 1192.24 423.95 1169.64 C 427.46 1167.88 430.45 1163.64 432.06 1159.91 C 434.25 1154.81 435.28 1149.11 436.06 1143.56 C 438.91 1124.28 439.37 1104.89 438.52 1085.42 C 437.34 1058.34 438.36 1031.42 448.36 1005.72 C 449.16 1004.02 449.70 1002.20 449.95 1000.34 C 450.05 998.81 449.20 997.22 448.77 995.66 C 447.77 996.25 446.29 996.57 445.69 997.46 C 443.24 1001.10 441.32 1005.12 438.64 1008.56 C 437.11 1010.56 438.15 1015.62 433.64 1013.93 C 432.64 1013.53 432.54 1009.28 432.79 1006.93 C 435.28 983.02 443.25 961.77 462.88 946.36 C 468.28 942.11 473.58 937.70 479.26 933.87 C 481.64 932.27 484.20 933.75 484.66 936.74 C 485.06 939.82 485.21 942.93 485.10 946.04 C 484.93 960.45 484.81 974.86 484.42 989.26 C 483.94 1006.79 483.67 1024.35 482.47 1041.83 C 480.97 1063.45 475.38 1083.83 461.47 1101.27 C 458.47 1105.01 456.96 1110.15 455.73 1114.90 C 453.20 1124.60 451.20 1134.45 449.28 1144.30 C 448.71 1147.21 449.13 1150.30 449.11 1153.30 C 451.94 1152.69 455.24 1152.81 457.53 1151.30 C 472.88 1141.55 488.82 1132.48 503.05 1121.30 C 529.77 1100.24 544.21 1073.30 539.87 1037.77 C 536.68 1012.86 536.88 987.63 540.49 962.77 C 546.77 921.00 574.00 897.00 608.47 878.41 C 609.62 877.93 610.93 878.02 612.01 878.64 C 612.72 879.56 612.92 880.78 612.54 881.88 C 602.45 902.68 600.90 925.31 598.25 947.71 C 597.51 953.94 596.77 960.18 595.62 966.33 C 592.62 982.53 587.28 997.88 578.14 1011.72 C 576.71 1013.78 575.18 1015.76 573.53 1017.65 C 573.11 1018.10 572.51 1018.32 571.90 1018.25 C 570.97 1017.84 569.55 1017.19 569.44 1016.47 C 568.72 1011.53 567.73 1006.53 567.85 1001.57 C 568.22 986.57 569.13 971.57 569.64 956.57 C 569.65 952.88 569.35 949.21 568.74 945.57 C 568.74 945.23 566.01 944.67 565.74 945.01 C 563.74 948.08 561.32 951.13 560.26 954.56 C 555.26 970.90 553.94 987.78 554.60 1004.77 C 555.60 1030.50 556.97 1056.22 547.04 1080.87 C 546.90 1081.95 547.34 1083.03 548.20 1083.70 C 549.35 1084.08 550.60 1083.91 551.61 1083.25 C 556.91 1078.83 562.15 1074.33 567.24 1069.68 C 622.82 1018.88 668.99 960.46 708.61 896.55 C 717.31 882.55 721.61 868.21 720.61 852.13 C 719.97 841.49 718.61 830.89 717.70 820.25 C 717.20 814.25 713.82 811.14 708.30 810.25 C 699.02 808.70 689.55 808.08 680.43 805.92 C 659.99 801.09 639.36 800.92 618.67 802.53 C 611.21 803.10 603.81 804.93 596.50 806.67 C 591.57 807.84 585.57 814.24 587.09 814.53 C 590.76 815.11 594.48 815.27 598.18 814.99 C 605.07 814.65 611.96 813.49 618.83 813.59 C 631.32 813.77 643.83 814.53 656.29 815.30 C 657.73 815.39 660.22 817.03 660.23 817.96 C 660.02 819.80 659.11 821.48 657.69 822.67 C 654.81 825.08 651.78 827.31 648.63 829.36 C 635.63 838.17 620.76 841.22 605.63 841.67 C 576.79 842.54 547.92 842.17 519.05 842.22 C 516.54 842.11 514.04 841.74 511.61 841.11 C 508.38 840.41 507.84 837.89 509.14 835.52 C 511.27 831.70 513.71 828.06 516.42 824.63 C 532.31 804.32 553.54 791.26 576.42 780.30 C 590.99 773.30 606.48 771.20 622.19 770.78 C 635.73 770.41 649.08 773.72 658.37 783.92 C 665.96 792.24 674.66 794.67 684.92 795.39 C 691.17 795.84 697.34 797.15 703.58 797.86 C 712.03 798.86 713.58 797.27 710.90 788.42 C 707.90 778.23 704.17 768.21 700.35 758.27 C 688.09 726.42 671.53 697.04 649.35 671.00 C 645.17 666.34 640.76 661.90 636.14 657.69 C 635.37 656.95 633.82 657.02 632.64 656.69 C 632.47 658.35 631.56 660.49 632.27 661.59 C 638.36 671.08 644.51 680.59 651.09 689.70 C 665.36 709.57 677.29 731.02 686.65 753.62 C 687.21 754.96 686.48 756.85 686.35 758.48 C 685.17 758.20 683.74 758.25 682.86 757.59 Q 668.53 746.86 654.36 735.93 C 622.80 711.53 599.26 681.35 586.94 642.93 C 580.94 624.07 579.65 604.84 581.38 585.30 C 581.80 582.19 582.58 579.14 583.70 576.21 C 585.95 569.52 589.83 568.29 594.50 573.34 C 612.93 593.34 634.36 609.59 656.26 625.50 C 679.07 642.09 695.42 664.43 706.65 690.08 C 713.15 704.93 719.71 720.08 719.93 736.91 C 720.10 750.03 719.93 763.19 725.55 775.56 C 726.55 777.76 726.55 780.46 726.79 782.96 C 727.97 796.70 729.12 810.44 730.16 824.19 C 730.69 831.06 730.91 837.96 731.47 844.83 C 731.54 845.72 732.74 847.15 733.47 847.19 C 734.67 847.15 735.78 846.55 736.47 845.57 C 740.61 837.82 744.76 830.07 748.54 822.15 C 775.92 764.89 797.44 705.01 812.75 643.42 C 815.59 632.00 814.05 622.80 807.24 613.42 C 796.77 599.06 784.70 586.27 770.05 576.42 C 757.58 567.97 746.32 557.86 736.58 546.36 C 730.45 539.22 723.97 532.36 717.66 525.36 C 698.25 503.90 680.53 481.20 666.46 455.81 C 665.22 453.63 663.79 451.57 662.17 449.65 C 661.49 448.84 660.17 448.56 659.17 448.03 C 658.54 449.47 657.17 451.03 657.41 452.32 C 659.20 464.32 665.30 474.73 670.74 485.32 C 681.15 505.51 695.12 523.22 709.74 540.45 C 711.10 542.05 711.22 544.69 711.92 546.85 C 710.14 546.31 708.32 545.85 706.58 545.18 C 705.42 544.69 704.31 544.09 703.28 543.37 C 640.47 502.88 607.98 445.37 606.52 370.55 C 606.60 366.17 607.31 361.83 608.64 357.65 C 610.41 351.36 615.52 350.10 619.75 355.16 C 634.80 373.16 653.41 387.11 671.24 401.97 C 678.00 407.60 684.81 413.19 691.24 419.21 C 707.70 434.70 723.64 450.67 736.73 469.28 C 751.19 489.85 758.54 512.87 761.25 537.61 C 757.89 547.89 764.44 553.98 770.81 560.14 L 820.04 607.82 C 821.44 602.28 823.28 596.46 824.34 590.49 C 828.29 568.27 831.59 545.92 835.87 523.76 C 839.81 503.33 837.46 483.50 830.16 464.54 C 818.89 435.31 806.65 406.43 794.28 377.64 C 781.38 347.64 763.28 320.34 747.74 291.72 C 739.95 277.40 732.20 263.06 724.02 248.97 C 720.91 243.62 716.68 238.89 712.79 234.03 C 712.49 233.67 709.86 234.36 709.79 234.78 C 709.51 236.62 709.57 238.50 709.96 240.32 C 714.44 260.10 723.60 278.05 732.59 295.95 C 741.58 313.85 751.93 331.05 761.52 348.64 C 762.25 349.97 761.64 352.03 761.65 353.74 C 760.43 353.56 759.05 353.69 758.02 353.15 C 728.38 337.36 705.15 314.96 690.02 284.91 C 668.70 242.62 663.07 197.81 670.78 151.26 C 671.89 145.09 673.53 139.03 675.69 133.14 C 677.24 129.03 679.29 125.13 681.81 121.54 C 685.33 116.32 690.52 116.30 694.08 121.13 C 694.82 122.13 695.25 123.36 695.99 124.37 C 708.24 141.03 719.99 158.07 732.92 174.21 C 748.65 193.76 762.26 214.93 773.50 237.37 C 788.44 267.37 799.43 298.84 799.50 332.79 C 799.44 349.80 803.38 366.58 811.00 381.78 Q 824.38 408.71 838.14 435.43 C 839.21 437.53 841.01 439.25 843.38 442.31 C 845.11 418.77 844.06 396.94 842.00 375.16 Z" stroke-linecap="round"></path>
</g>
</g>
</g>

        </g>
      
        </g>
      
  </svg>