<svg xmlns="http://www.w3.org/2000/svg" xmlns:xlink="http://www.w3.org/1999/xlink" width="300px" height="300px" viewBox="0 0 300 300">
    <g id="9f51b005-b6f6-4b85-be76-65507778f809">
<rect style="stroke: rgb(193,193,193); stroke-width: 0; stroke-dasharray: none; stroke-linecap: butt; stroke-dashoffset: 0; stroke-linejoin: miter; stroke-miterlimit: 4; fill: none; fill-rule: nonzero; opacity: 1;" x="-150" y="-150" rx="0" ry="0" width="300" height="300" transform="matrix(1 0 0 1 150 150)"/>
</g>
<g id="ad7dcc9f-e5a3-4bba-925c-56a54b8a566a">
<g style="">
		<g id="ad7dcc9f-e5a3-4bba-925c-56a54b8a566a-child-0">
<path style="stroke: rgb(193,193,193); stroke-width: 0; stroke-dasharray: none; stroke-linecap: butt; stroke-dashoffset: 0; stroke-linejoin: miter; stroke-miterlimit: 4; fill: rgb(255,255,255); fill-rule: nonzero; opacity: 1;" transform="matrix(0.140837 0 0 0.140363 119.499977 88.745563) matrix(1 0 0 1 0 0)  translate(-173.472105, -357.022575)" d="M 107.33 711.75 C 130.10 659.31 138.07 632.47 141.04 598.08 C 141.81 589.16 141.80 581.97 141.02 572.58 C 137.74 533.54 123.81 499.95 89.96 449.50 C 34.30 366.55 12.88 296.40 1.40 159.50 C -1.03 130.60 0.85 89.93 6.66 45.50 C 8.12 34.32 8.82 31.71 11.65 26.88 C 16.25 19.04 21.07 15.00 25.84 15.00 C 30.78 15.00 37.25 19.14 42.94 25.93 L 47.35 31.20 L 47.49 86.35 L 47.63 141.50 L 54.30 158.36 C 86.74 240.29 118.67 294.12 179.84 370.00 C 198.21 392.78 234.93 437.00 235.48 437.00 C 235.88 437.00 230.24 414.94 227.00 403.87 C 220.40 381.27 213.78 362.10 203.78 336.64 C 197.08 319.58 196.80 318.51 197.43 312.91 C 199.06 298.50 204.22 290.42 214.84 285.65 C 220.46 283.13 221.21 283.04 227.98 284.00 C 237.72 285.38 245.00 289.15 251.53 296.21 C 259.08 304.36 262.91 311.75 274.75 340.94 C 280.45 355.00 289.32 375.27 294.47 386.00 C 332.80 465.81 349.90 529.89 346.05 579.32 C 342.90 619.74 328.90 656.56 299.11 702.74 L 292.50 712.99 L 199.64 712.99 C 125.73 713.00 106.90 712.74 107.33 711.75 M 155.84 305.50 C 120.89 220.31 102.00 153.37 102.00 114.78 C 102.00 106.29 102.38 101.00 103.00 101.00 C 104.85 101.00 111.78 108.02 113.50 111.64 C 114.44 113.61 116.24 119.12 117.51 123.87 C 119.47 131.20 120.01 136.99 121.09 162.25 L 122.36 192.00 L 126.57 194.03 C 138.51 199.82 147.94 216.33 153.95 242.00 C 157.90 258.91 167.53 324.30 166.80 329.36 C 166.63 330.60 161.98 320.49 155.84 305.50 M 131.26 281.31 C 130.18 279.76 125.03 271.30 119.81 262.50 C 94.93 220.55 82.33 194.25 69.40 157.31 L 64.08 142.12 L 63.06 118.81 C 62.50 105.99 61.55 81.33 60.96 64.00 C 59.64 25.11 59.13 22.89 49.30 13.22 L 42.92 6.93 L 49.49 3.86 C 55.24 1.16 56.92 0.83 62.82 1.16 C 72.68 1.72 79.40 5.37 84.19 12.79 C 88.20 19.00 91.37 25.87 92.40 30.56 C 92.76 32.19 92.39 43.20 91.59 55.02 C 87.87 109.32 88.27 118.51 95.97 157.07 C 104.16 198.08 111.94 225.24 126.90 264.99 C 130.73 275.15 133.72 283.62 133.54 283.79 C 133.36 283.97 132.34 282.85 131.26 281.31 Z" stroke-linecap="round"/>
</g>
</g>
</g>
<g id="446accb1-b8e6-4cb1-b142-0fdb8f00277c">
<g style="">
		<g id="446accb1-b8e6-4cb1-b142-0fdb8f00277c-child-0">
<path style="stroke: rgb(193,193,193); stroke-width: 0; stroke-dasharray: none; stroke-linecap: butt; stroke-dashoffset: 0; stroke-linejoin: miter; stroke-miterlimit: 4; fill: rgb(255,255,255); fill-rule: nonzero; opacity: 1;" transform="matrix(-0.140837 0 0 0.140361 180.500707 88.745915) matrix(1 0 0 1 0 0)  translate(-173.472105, -357.022575)" d="M 107.33 711.75 C 130.10 659.31 138.07 632.47 141.04 598.08 C 141.81 589.16 141.80 581.97 141.02 572.58 C 137.74 533.54 123.81 499.95 89.96 449.50 C 34.30 366.55 12.88 296.40 1.40 159.50 C -1.03 130.60 0.85 89.93 6.66 45.50 C 8.12 34.32 8.82 31.71 11.65 26.88 C 16.25 19.04 21.07 15.00 25.84 15.00 C 30.78 15.00 37.25 19.14 42.94 25.93 L 47.35 31.20 L 47.49 86.35 L 47.63 141.50 L 54.30 158.36 C 86.74 240.29 118.67 294.12 179.84 370.00 C 198.21 392.78 234.93 437.00 235.48 437.00 C 235.88 437.00 230.24 414.94 227.00 403.87 C 220.40 381.27 213.78 362.10 203.78 336.64 C 197.08 319.58 196.80 318.51 197.43 312.91 C 199.06 298.50 204.22 290.42 214.84 285.65 C 220.46 283.13 221.21 283.04 227.98 284.00 C 237.72 285.38 245.00 289.15 251.53 296.21 C 259.08 304.36 262.91 311.75 274.75 340.94 C 280.45 355.00 289.32 375.27 294.47 386.00 C 332.80 465.81 349.90 529.89 346.05 579.32 C 342.90 619.74 328.90 656.56 299.11 702.74 L 292.50 712.99 L 199.64 712.99 C 125.73 713.00 106.90 712.74 107.33 711.75 M 155.84 305.50 C 120.89 220.31 102.00 153.37 102.00 114.78 C 102.00 106.29 102.38 101.00 103.00 101.00 C 104.85 101.00 111.78 108.02 113.50 111.64 C 114.44 113.61 116.24 119.12 117.51 123.87 C 119.47 131.20 120.01 136.99 121.09 162.25 L 122.36 192.00 L 126.57 194.03 C 138.51 199.82 147.94 216.33 153.95 242.00 C 157.90 258.91 167.53 324.30 166.80 329.36 C 166.63 330.60 161.98 320.49 155.84 305.50 M 131.26 281.31 C 130.18 279.76 125.03 271.30 119.81 262.50 C 94.93 220.55 82.33 194.25 69.40 157.31 L 64.08 142.12 L 63.06 118.81 C 62.50 105.99 61.55 81.33 60.96 64.00 C 59.64 25.11 59.13 22.89 49.30 13.22 L 42.92 6.93 L 49.49 3.86 C 55.24 1.16 56.92 0.83 62.82 1.16 C 72.68 1.72 79.40 5.37 84.19 12.79 C 88.20 19.00 91.37 25.87 92.40 30.56 C 92.76 32.19 92.39 43.20 91.59 55.02 C 87.87 109.32 88.27 118.51 95.97 157.07 C 104.16 198.08 111.94 225.24 126.90 264.99 C 130.73 275.15 133.72 283.62 133.54 283.79 C 133.36 283.97 132.34 282.85 131.26 281.31 Z" stroke-linecap="round"/>
</g>
</g>
</g>
<g id="b343e340-0f05-4781-a963-b7a086088d0f">
<g style="">
		<g id="b343e340-0f05-4781-a963-b7a086088d0f-child-0">
<path style="stroke: rgb(193,193,193); stroke-width: 0; stroke-dasharray: none; stroke-linecap: butt; stroke-dashoffset: 0; stroke-linejoin: miter; stroke-miterlimit: 4; fill: rgb(255,255,255); fill-rule: nonzero; opacity: 1;" d="M161.61806,38.78148c-4.99593,0.01789 -9.53045,2.92444 -11.63288,7.45647c-2.57358,-5.45226 -8.58624,-8.38829 -14.46836,-7.06501c-5.88213,1.32329 -10.05812,6.55142 -10.04876,12.58055c0.03804,14.46332 14.6379,18.21643 24.61856,32.48858c9.36326,-14.23509 24.48103,-18.61729 24.44495,-32.61927c-0.02367,-7.11044 -5.80304,-12.85751 -12.9135,-12.84133z" stroke-linecap="round"/>
</g>
</g>
</g>
<g id="fd0ca59f-4607-430f-9b3c-faab63050dbd">
<g style="">
		<g id="fd0ca59f-4607-430f-9b3c-faab63050dbd-child-0">
<path style="stroke: rgb(193,193,193); stroke-width: 0; stroke-dasharray: none; stroke-linecap: butt; stroke-dashoffset: 0; stroke-linejoin: miter; stroke-miterlimit: 4; fill: rgb(255,255,255); fill-rule: nonzero; opacity: 1;" transform="matrix(0.064524 -0.030055 0.030055 0.064524 223.265006 88.745343) matrix(1 0 0 1 0 0)  translate(-531.166992, -701.94353)" d="M 842.00 375.16 C 839.27 347.65 834.50 320.38 827.74 293.58 C 826.37 288.12 825.78 282.49 826.00 276.86 C 827.14 252.32 830.85 228.18 839.23 204.95 C 843.91 191.95 849.06 179.13 853.64 166.10 C 857.38 155.45 861.14 144.75 863.81 133.81 C 865.41 127.25 865.11 120.18 865.24 113.34 C 865.24 112.18 863.18 110.85 861.85 109.94 C 861.61 109.78 859.85 111.10 859.46 112.02 C 850.66 131.46 841.78 150.86 833.29 170.43 C 826.29 186.54 819.78 202.85 813.05 219.06 C 812.68 220.26 812.16 221.40 811.51 222.47 C 810.87 223.33 809.69 224.47 808.88 224.35 C 807.81 223.97 807.00 223.08 806.72 221.97 C 805.47 212.03 803.31 202.07 803.45 192.14 C 804.20 137.58 825.27 90.84 860.58 50.27 C 872.92 36.00 885.68 22.22 896.26 6.56 C 897.68 4.53 899.27 2.61 901.00 0.83 C 902.62 -0.88 906.46 0.22 907.08 2.67 C 908.14 6.26 908.86 9.95 909.26 13.67 C 910.12 26.18 910.54 38.67 911.37 51.24 C 915.37 111.95 902.83 168.47 869.27 219.81 C 863.09 229.27 857.27 239.01 851.86 248.92 C 845.13 261.25 841.10 274.25 843.60 288.69 C 844.88 296.08 844.97 303.69 846.02 311.12 C 849.51 335.98 853.17 360.81 856.83 385.63 C 857.00 386.75 857.59 388.51 858.29 388.63 C 859.53 388.73 860.74 388.25 861.58 387.33 C 872.89 373.89 883.49 359.78 895.47 346.96 C 921.78 318.81 943.33 287.17 964.36 255.14 C 969.51 247.30 973.46 238.67 977.80 230.32 C 978.09 229.25 977.80 228.11 977.03 227.32 C 975.99 226.96 974.83 227.16 973.97 227.86 C 970.30 232.14 966.76 236.54 963.31 241.01 C 951.06 257.00 938.92 273.00 926.57 288.87 C 921.57 295.31 916.18 301.47 910.80 307.61 C 909.70 308.86 907.80 309.43 906.33 310.32 C 905.88 308.08 904.63 305.66 905.11 303.65 C 910.69 280.29 919.23 258.10 931.90 237.65 C 948.14 211.48 966.76 186.87 987.53 164.13 C 1004.24 145.77 1024.32 131.99 1045.53 119.58 C 1047.74 118.41 1050.05 117.43 1052.44 116.67 C 1055.99 115.38 1058.78 117.81 1057.73 121.57 C 1055.01 131.23 1052.22 140.87 1049.10 150.41 Q 1031.27 204.98 1013.19 259.48 C 1008.96 272.25 1001.57 282.96 992.19 292.60 C 971.93 313.49 950.00 332.00 922.12 342.08 C 911.12 346.08 902.56 353.08 895.57 362.35 C 888.75 371.35 881.38 379.96 874.84 389.17 C 863.02 405.82 855.17 423.55 855.54 444.97 C 855.85 462.41 853.20 479.97 851.20 497.37 C 849.20 514.77 846.29 532.13 844.03 549.54 C 843.75 551.68 845.03 554.02 845.55 556.27 C 846.96 555.08 848.63 554.10 849.74 552.68 C 862.57 536.43 875.08 519.93 888.13 503.86 C 901.66 487.18 913.86 469.55 922.56 450.02 C 928.63 436.39 932.02 421.55 936.46 407.20 C 936.73 406.33 935.64 405.04 935.18 403.95 C 934.31 404.53 933.07 404.95 932.62 405.74 C 930.83 409.03 929.43 412.53 927.62 415.82 C 917.38 434.54 907.28 453.35 896.62 471.82 C 893.21 477.75 888.37 482.87 884.03 488.22 C 883.19 489.12 881.99 489.59 880.76 489.48 C 879.70 488.95 878.99 487.92 878.86 486.75 C 879.02 477.41 878.06 467.75 879.96 458.75 C 884.36 437.91 890.51 417.46 895.31 396.70 C 899.01 380.70 909.23 370.49 922.77 362.70 C 925.48 361.14 928.24 359.61 931.10 358.32 C 948.83 350.32 966.19 341.57 982.43 330.75 C 986.60 327.97 989.37 329.75 989.14 335.12 C 988.20 357.03 987.52 378.96 985.92 400.82 C 984.76 419.01 980.93 436.94 974.58 454.03 C 961.96 487.11 939.22 509.81 905.28 520.84 C 900.51 522.39 895.49 523.40 890.97 525.50 C 886.45 527.60 881.65 529.87 878.72 533.50 C 856.04 561.50 836.66 591.32 828.65 627.33 C 821.18 661.70 811.61 695.57 800.00 728.77 C 798.91 731.71 798.01 734.72 797.29 737.77 C 797.18 738.91 797.64 740.02 798.50 740.77 C 799.59 741.36 800.89 741.44 802.04 740.98 C 817.88 732.20 834.88 725.20 847.20 711.05 C 851.73 705.84 856.80 701.11 861.47 696.05 C 878.86 677.05 900.68 664.95 924.27 655.69 C 964.10 640.07 1005.97 636.69 1048.16 635.59 C 1051.84 635.49 1055.58 636.50 1059.24 637.26 C 1061.91 637.82 1063.18 641.17 1061.54 643.03 C 1059.90 644.89 1058.08 646.66 1056.26 648.37 Q 1029.52 673.52 1002.72 698.65 C 995.39 705.52 988.27 712.65 980.56 719.07 C 950.56 744.02 916.34 751.96 878.32 743.16 C 876.06 742.63 874.04 741.02 871.91 739.92 C 873.73 737.82 875.16 735.05 877.44 733.73 C 890.44 726.16 903.76 719.10 916.79 711.55 C 927.09 705.55 937.23 699.32 947.21 692.83 C 948.82 691.83 949.21 688.92 950.21 686.89 C 948.44 686.89 946.41 686.24 944.94 686.89 C 922.60 696.89 900.04 706.39 878.12 717.22 C 856.79 727.76 836.43 740.22 814.04 748.67 C 809.96 750.21 806.13 752.46 802.19 754.39 C 792.19 759.29 785.65 766.68 781.32 777.39 C 772.58 798.90 762.76 820.00 752.69 840.93 C 747.28 852.21 740.30 862.72 734.37 873.77 C 733.37 875.69 734.03 878.54 733.93 880.96 C 735.69 880.90 737.59 881.28 739.19 880.73 Q 790.88 863.15 842.52 845.37 C 850.23 842.73 857.99 840.21 865.66 837.45 C 866.46 836.76 866.84 835.70 866.66 834.66 C 866.12 833.59 865.11 832.83 863.94 832.60 C 861.44 832.46 858.93 832.62 856.47 833.10 C 843.53 835.69 830.65 838.50 817.71 841.10 C 811.15 842.40 804.52 843.35 797.92 844.45 C 798.92 835.83 806.66 833.25 812.25 829.05 C 824.89 819.62 839.51 813.17 855.00 810.19 C 873.59 806.41 892.28 805.35 911.14 805.05 C 931.94 804.72 950.56 811.65 968.28 821.64 C 974.92 825.38 974.92 828.48 968.34 831.81 C 942.59 844.81 917.01 858.24 890.84 870.37 C 877.25 876.67 862.72 881.17 848.31 885.44 C 832.97 889.98 816.52 891.34 802.12 884.44 C 788.67 878.00 776.91 879.44 764.25 884.12 C 756.02 887.18 747.81 890.32 739.50 893.12 C 725.90 897.75 716.01 906.12 708.33 918.60 C 682.33 961.03 651.56 999.95 617.87 1036.55 C 614.87 1039.78 611.87 1042.99 609.10 1046.36 C 608.39 1047.28 608.14 1048.47 608.43 1049.59 C 609.12 1050.48 610.21 1050.95 611.33 1050.85 C 616.18 1049.58 621.14 1048.45 625.72 1046.48 C 642.45 1039.30 659.26 1032.28 675.60 1024.30 C 691.94 1016.32 706.81 1005.59 718.66 991.35 C 720.29 989.45 721.71 987.38 722.89 985.17 C 723.24 984.07 723.06 982.87 722.40 981.93 C 722.11 981.53 720.19 981.76 719.45 982.31 C 715.94 984.94 712.62 987.82 709.15 990.52 C 696.85 1000.28 683.31 1008.38 668.88 1014.59 C 667.25 1015.27 665.27 1015.13 663.46 1015.38 C 663.56 1013.61 663.07 1011.52 663.84 1010.13 C 671.78 995.89 678.79 980.96 688.24 967.78 C 705.69 943.47 730.00 928.39 759.05 921.00 C 763.87 919.78 768.93 919.43 773.90 919.00 C 775.13 919.07 776.25 919.74 776.90 920.79 C 777.17 921.94 776.92 923.14 776.22 924.09 C 770.59 931.61 764.01 938.55 759.30 946.59 C 750.74 961.21 742.30 976.06 735.58 991.59 C 725.88 1013.95 709.26 1029.65 689.72 1042.59 C 679.32 1049.50 668.03 1055.37 654.53 1053.82 C 651.53 1053.48 648.32 1054.43 645.39 1055.36 Q 631.95 1059.62 618.71 1064.44 C 617.39 1064.93 616.60 1066.87 615.56 1068.14 C 616.94 1069.24 618.16 1070.90 619.72 1071.35 C 640.81 1077.45 661.78 1084.09 683.12 1089.18 C 707.96 1095.10 732.98 1093.97 757.65 1087.18 C 761.83 1086.03 766.26 1084.94 768.14 1080.18 C 769.14 1077.58 767.68 1077.44 757.25 1078.58 C 748.51 1079.53 739.76 1080.82 730.99 1080.99 C 719.73 1081.21 708.44 1080.57 697.18 1079.99 C 694.05 1079.70 690.97 1079.03 688.01 1077.99 C 686.93 1077.48 686.13 1076.52 685.83 1075.36 C 685.81 1074.28 686.35 1073.26 687.25 1072.67 C 694.10 1069.59 700.87 1066.20 707.98 1063.85 C 730.29 1056.47 753.46 1054.27 776.75 1054.60 C 791.16 1054.98 805.52 1056.32 819.75 1058.60 C 831.01 1060.28 841.61 1064.94 850.46 1072.10 C 854.46 1075.32 853.46 1080.45 848.54 1082.10 C 828.38 1089.10 808.17 1095.90 788.05 1102.99 C 776.81 1106.99 765.71 1111.32 754.55 1115.49 C 726.39 1126.01 700.15 1121.07 675.60 1105.09 C 654.05 1091.09 629.60 1085.63 605.05 1080.45 C 595.66 1078.51 585.88 1080.42 577.90 1085.73 C 561.00 1096.54 543.82 1107.00 527.56 1118.73 C 500.56 1138.21 473.38 1157.30 443.88 1172.87 C 442.17 1173.65 440.54 1174.59 439.01 1175.68 C 438.08 1176.48 437.45 1177.56 437.21 1178.76 C 436.68 1181.83 439.32 1181.42 440.88 1181.38 C 498.12 1179.93 554.88 1184.90 611.55 1192.77 C 616.53 1193.38 621.54 1193.73 626.55 1193.83 C 627.55 1193.83 628.68 1192.75 629.74 1192.16 C 629.14 1191.26 628.74 1189.76 627.92 1189.55 C 614.61 1185.95 601.33 1182.22 587.92 1179.15 C 579.99 1177.33 571.79 1176.76 563.78 1175.29 C 562.33 1175.02 561.17 1173.14 559.87 1172.01 C 560.87 1171.37 561.68 1170.42 562.72 1170.14 C 574.94 1166.87 587.44 1164.90 600.00 1166.60 C 628.09 1170.40 655.53 1176.83 681.63 1188.33 C 699.91 1196.33 714.46 1209.02 726.99 1224.21 C 730.57 1228.55 728.99 1232.65 723.44 1233.49 C 709.79 1235.56 696.09 1237.38 682.44 1239.15 C 667.51 1241.09 652.60 1243.47 637.60 1244.53 C 620.03 1245.74 602.39 1244.58 585.13 1241.09 C 562.77 1236.61 543.39 1226.43 529.96 1207.84 C 522.85 1198.02 514.62 1194.03 503.12 1194.08 C 476.77 1194.19 450.40 1193.31 424.12 1194.08 C 409.12 1194.55 394.04 1197.15 380.05 1203.25 C 355.86 1213.78 330.83 1222.28 305.23 1228.65 C 298.58 1230.32 292.23 1233.04 285.81 1235.65 C 285.23 1235.88 284.98 1239.24 285.71 1239.91 C 287.64 1241.51 289.83 1242.78 292.18 1243.66 C 317.53 1254.48 342.57 1266.18 368.42 1275.66 C 385.42 1281.89 403.52 1284.99 421.19 1289.24 C 424.19 1289.95 427.42 1289.41 430.54 1289.32 C 431.00 1289.32 431.67 1288.63 431.81 1288.14 C 431.95 1287.65 431.69 1286.63 431.35 1286.50 C 429.03 1285.61 426.62 1284.97 424.29 1284.11 C 401.29 1275.64 378.38 1267.18 355.49 1258.53 C 354.20 1258.04 353.49 1255.93 352.56 1254.53 C 353.66 1254.14 354.77 1253.38 355.86 1253.43 C 420.58 1256.00 478.07 1278.88 530.00 1317.00 C 531.07 1317.64 532.00 1318.50 532.73 1319.52 C 533.41 1321.04 533.95 1322.61 534.34 1324.23 C 533.22 1324.46 532.01 1325.05 530.97 1324.84 C 511.79 1320.84 492.33 1321.03 472.88 1320.69 C 447.79 1320.25 422.69 1319.82 397.63 1318.62 C 385.74 1317.91 373.91 1316.37 362.24 1314.00 C 348.92 1311.45 337.51 1304.92 329.03 1294.00 Q 320.38 1282.89 312.19 1271.41 C 309.26 1267.31 306.67 1263.14 301.62 1261.12 C 288.22 1255.77 274.99 1250.00 261.55 1244.79 C 253.80 1241.79 245.76 1241.85 237.46 1243.20 C 211.44 1247.55 185.13 1249.89 158.75 1250.20 C 156.24 1250.22 153.75 1250.49 151.29 1250.99 C 150.16 1251.22 149.19 1251.96 148.67 1252.99 C 148.57 1254.21 148.99 1255.41 149.82 1256.30 C 158.42 1265.44 167.11 1274.49 175.77 1283.56 C 184.44 1305.31 203.01 1315.29 223.15 1323.40 C 223.73 1323.63 224.27 1323.96 224.85 1324.21 C 239.19 1330.57 253.53 1336.96 267.92 1343.21 C 268.99 1343.41 270.09 1343.03 270.81 1342.21 C 271.22 1341.38 270.98 1339.43 270.34 1339.02 C 262.98 1334.26 255.52 1329.65 248.03 1325.11 C 236.24 1317.96 224.36 1310.95 212.65 1303.68 C 211.65 1303.03 211.51 1300.85 210.98 1299.39 C 212.14 1299.05 213.37 1298.28 214.46 1298.39 C 240.16 1302.19 264.74 1308.99 286.30 1324.39 C 312.38 1343.04 331.14 1367.98 347.83 1394.78 C 348.23 1395.27 348.50 1395.85 348.59 1396.48 C 348.44 1398.77 348.59 1401.27 347.66 1403.23 C 347.29 1403.99 344.13 1404.09 342.61 1403.52 Q 309.97 1391.32 277.44 1378.81 C 265.12 1374.10 252.69 1369.65 240.60 1364.39 C 223.81 1357.08 208.11 1347.77 194.96 1334.86 C 190.10 1330.09 184.39 1324.86 182.47 1318.71 C 177.74 1303.71 167.65 1292.76 158.06 1281.23 C 141.26 1261.05 119.55 1249.65 94.06 1244.59 C 77.44 1241.31 60.74 1238.04 44.52 1233.26 C 30.15 1229.02 16.33 1222.85 2.45 1217.09 C 0.96 1216.47 -0.36 1212.54 0.19 1210.74 C 0.67 1209.13 3.80 1207.52 5.86 1207.39 C 8.17 1207.24 10.70 1208.51 12.96 1209.55 C 42.41 1223.07 74.22 1227.73 105.54 1234.16 C 111.67 1235.42 117.98 1235.79 124.19 1236.66 C 130.19 1237.51 135.36 1235.94 139.42 1231.26 C 158.71 1209.01 180.54 1188.79 193.61 1161.65 C 199.87 1148.65 206.91 1136.01 213.40 1123.11 C 213.99 1121.93 213.07 1119.99 212.85 1118.40 C 211.85 1118.88 210.34 1119.07 209.77 1119.88 Q 195.77 1139.88 181.93 1160.08 C 177.34 1166.81 173.06 1173.75 168.48 1180.49 C 167.94 1181.27 166.37 1181.35 165.28 1181.75 C 164.93 1180.75 164.04 1179.58 164.28 1178.75 C 169.62 1161.37 174.93 1143.99 180.64 1126.75 C 182.13 1122.61 184.25 1118.72 186.94 1115.24 C 204.30 1091.91 223.84 1070.72 248.81 1055.32 C 256.81 1050.41 265.39 1046.50 273.93 1042.63 C 275.73 1041.81 279.37 1042.35 280.58 1043.69 C 281.79 1045.03 281.81 1048.33 281.45 1050.62 C 281.09 1052.91 279.70 1055.29 278.66 1057.62 C 267.50 1082.30 257.00 1107.20 245.00 1131.39 C 237.43 1146.57 228.72 1161.14 218.94 1175.00 C 208.05 1190.50 194.65 1203.89 176.83 1211.70 C 167.13 1215.96 161.36 1224.22 154.98 1231.91 C 154.30 1232.73 153.84 1234.73 154.33 1235.32 C 155.33 1236.52 157.06 1237.94 158.39 1237.85 C 180.29 1236.31 202.25 1235.23 224.01 1232.52 C 233.37 1231.41 242.37 1228.27 250.39 1223.32 C 278.15 1205.46 302.22 1183.70 317.12 1153.32 C 331.22 1124.57 345.54 1095.94 359.70 1067.22 C 360.16 1066.29 359.86 1064.99 359.91 1063.86 C 358.39 1064.48 356.41 1064.68 355.41 1065.78 C 343.88 1078.45 336.10 1093.55 327.97 1108.43 C 324.71 1114.43 321.24 1120.30 317.87 1126.23 C 314.76 1118.62 318.70 1111.75 320.45 1104.80 C 324.35 1088.91 330.72 1073.72 339.32 1059.80 C 354.77 1035.11 377.99 1021.06 405.18 1012.80 C 408.63 1011.80 412.59 1011.93 416.27 1012.19 C 420.21 1012.47 422.65 1016.55 421.69 1020.42 C 421.39 1021.63 420.93 1022.81 420.52 1024.00 C 413.39 1044.77 406.21 1065.53 399.14 1086.33 C 393.08 1104.22 383.51 1120.72 371.00 1134.87 C 360.14 1147.11 347.17 1157.30 332.72 1164.97 C 327.29 1167.91 321.72 1170.57 317.97 1176.19 C 308.47 1190.37 296.41 1202.29 283.44 1213.33 C 281.55 1214.97 279.88 1216.83 278.44 1218.87 C 278.08 1219.38 278.79 1221.36 279.51 1221.76 C 280.68 1222.22 281.97 1222.29 283.18 1221.96 C 332.83 1211.88 378.96 1192.24 423.95 1169.64 C 427.46 1167.88 430.45 1163.64 432.06 1159.91 C 434.25 1154.81 435.28 1149.11 436.06 1143.56 C 438.91 1124.28 439.37 1104.89 438.52 1085.42 C 437.34 1058.34 438.36 1031.42 448.36 1005.72 C 449.16 1004.02 449.70 1002.20 449.95 1000.34 C 450.05 998.81 449.20 997.22 448.77 995.66 C 447.77 996.25 446.29 996.57 445.69 997.46 C 443.24 1001.10 441.32 1005.12 438.64 1008.56 C 437.11 1010.56 438.15 1015.62 433.64 1013.93 C 432.64 1013.53 432.54 1009.28 432.79 1006.93 C 435.28 983.02 443.25 961.77 462.88 946.36 C 468.28 942.11 473.58 937.70 479.26 933.87 C 481.64 932.27 484.20 933.75 484.66 936.74 C 485.06 939.82 485.21 942.93 485.10 946.04 C 484.93 960.45 484.81 974.86 484.42 989.26 C 483.94 1006.79 483.67 1024.35 482.47 1041.83 C 480.97 1063.45 475.38 1083.83 461.47 1101.27 C 458.47 1105.01 456.96 1110.15 455.73 1114.90 C 453.20 1124.60 451.20 1134.45 449.28 1144.30 C 448.71 1147.21 449.13 1150.30 449.11 1153.30 C 451.94 1152.69 455.24 1152.81 457.53 1151.30 C 472.88 1141.55 488.82 1132.48 503.05 1121.30 C 529.77 1100.24 544.21 1073.30 539.87 1037.77 C 536.68 1012.86 536.88 987.63 540.49 962.77 C 546.77 921.00 574.00 897.00 608.47 878.41 C 609.62 877.93 610.93 878.02 612.01 878.64 C 612.72 879.56 612.92 880.78 612.54 881.88 C 602.45 902.68 600.90 925.31 598.25 947.71 C 597.51 953.94 596.77 960.18 595.62 966.33 C 592.62 982.53 587.28 997.88 578.14 1011.72 C 576.71 1013.78 575.18 1015.76 573.53 1017.65 C 573.11 1018.10 572.51 1018.32 571.90 1018.25 C 570.97 1017.84 569.55 1017.19 569.44 1016.47 C 568.72 1011.53 567.73 1006.53 567.85 1001.57 C 568.22 986.57 569.13 971.57 569.64 956.57 C 569.65 952.88 569.35 949.21 568.74 945.57 C 568.74 945.23 566.01 944.67 565.74 945.01 C 563.74 948.08 561.32 951.13 560.26 954.56 C 555.26 970.90 553.94 987.78 554.60 1004.77 C 555.60 1030.50 556.97 1056.22 547.04 1080.87 C 546.90 1081.95 547.34 1083.03 548.20 1083.70 C 549.35 1084.08 550.60 1083.91 551.61 1083.25 C 556.91 1078.83 562.15 1074.33 567.24 1069.68 C 622.82 1018.88 668.99 960.46 708.61 896.55 C 717.31 882.55 721.61 868.21 720.61 852.13 C 719.97 841.49 718.61 830.89 717.70 820.25 C 717.20 814.25 713.82 811.14 708.30 810.25 C 699.02 808.70 689.55 808.08 680.43 805.92 C 659.99 801.09 639.36 800.92 618.67 802.53 C 611.21 803.10 603.81 804.93 596.50 806.67 C 591.57 807.84 585.57 814.24 587.09 814.53 C 590.76 815.11 594.48 815.27 598.18 814.99 C 605.07 814.65 611.96 813.49 618.83 813.59 C 631.32 813.77 643.83 814.53 656.29 815.30 C 657.73 815.39 660.22 817.03 660.23 817.96 C 660.02 819.80 659.11 821.48 657.69 822.67 C 654.81 825.08 651.78 827.31 648.63 829.36 C 635.63 838.17 620.76 841.22 605.63 841.67 C 576.79 842.54 547.92 842.17 519.05 842.22 C 516.54 842.11 514.04 841.74 511.61 841.11 C 508.38 840.41 507.84 837.89 509.14 835.52 C 511.27 831.70 513.71 828.06 516.42 824.63 C 532.31 804.32 553.54 791.26 576.42 780.30 C 590.99 773.30 606.48 771.20 622.19 770.78 C 635.73 770.41 649.08 773.72 658.37 783.92 C 665.96 792.24 674.66 794.67 684.92 795.39 C 691.17 795.84 697.34 797.15 703.58 797.86 C 712.03 798.86 713.58 797.27 710.90 788.42 C 707.90 778.23 704.17 768.21 700.35 758.27 C 688.09 726.42 671.53 697.04 649.35 671.00 C 645.17 666.34 640.76 661.90 636.14 657.69 C 635.37 656.95 633.82 657.02 632.64 656.69 C 632.47 658.35 631.56 660.49 632.27 661.59 C 638.36 671.08 644.51 680.59 651.09 689.70 C 665.36 709.57 677.29 731.02 686.65 753.62 C 687.21 754.96 686.48 756.85 686.35 758.48 C 685.17 758.20 683.74 758.25 682.86 757.59 Q 668.53 746.86 654.36 735.93 C 622.80 711.53 599.26 681.35 586.94 642.93 C 580.94 624.07 579.65 604.84 581.38 585.30 C 581.80 582.19 582.58 579.14 583.70 576.21 C 585.95 569.52 589.83 568.29 594.50 573.34 C 612.93 593.34 634.36 609.59 656.26 625.50 C 679.07 642.09 695.42 664.43 706.65 690.08 C 713.15 704.93 719.71 720.08 719.93 736.91 C 720.10 750.03 719.93 763.19 725.55 775.56 C 726.55 777.76 726.55 780.46 726.79 782.96 C 727.97 796.70 729.12 810.44 730.16 824.19 C 730.69 831.06 730.91 837.96 731.47 844.83 C 731.54 845.72 732.74 847.15 733.47 847.19 C 734.67 847.15 735.78 846.55 736.47 845.57 C 740.61 837.82 744.76 830.07 748.54 822.15 C 775.92 764.89 797.44 705.01 812.75 643.42 C 815.59 632.00 814.05 622.80 807.24 613.42 C 796.77 599.06 784.70 586.27 770.05 576.42 C 757.58 567.97 746.32 557.86 736.58 546.36 C 730.45 539.22 723.97 532.36 717.66 525.36 C 698.25 503.90 680.53 481.20 666.46 455.81 C 665.22 453.63 663.79 451.57 662.17 449.65 C 661.49 448.84 660.17 448.56 659.17 448.03 C 658.54 449.47 657.17 451.03 657.41 452.32 C 659.20 464.32 665.30 474.73 670.74 485.32 C 681.15 505.51 695.12 523.22 709.74 540.45 C 711.10 542.05 711.22 544.69 711.92 546.85 C 710.14 546.31 708.32 545.85 706.58 545.18 C 705.42 544.69 704.31 544.09 703.28 543.37 C 640.47 502.88 607.98 445.37 606.52 370.55 C 606.60 366.17 607.31 361.83 608.64 357.65 C 610.41 351.36 615.52 350.10 619.75 355.16 C 634.80 373.16 653.41 387.11 671.24 401.97 C 678.00 407.60 684.81 413.19 691.24 419.21 C 707.70 434.70 723.64 450.67 736.73 469.28 C 751.19 489.85 758.54 512.87 761.25 537.61 C 757.89 547.89 764.44 553.98 770.81 560.14 L 820.04 607.82 C 821.44 602.28 823.28 596.46 824.34 590.49 C 828.29 568.27 831.59 545.92 835.87 523.76 C 839.81 503.33 837.46 483.50 830.16 464.54 C 818.89 435.31 806.65 406.43 794.28 377.64 C 781.38 347.64 763.28 320.34 747.74 291.72 C 739.95 277.40 732.20 263.06 724.02 248.97 C 720.91 243.62 716.68 238.89 712.79 234.03 C 712.49 233.67 709.86 234.36 709.79 234.78 C 709.51 236.62 709.57 238.50 709.96 240.32 C 714.44 260.10 723.60 278.05 732.59 295.95 C 741.58 313.85 751.93 331.05 761.52 348.64 C 762.25 349.97 761.64 352.03 761.65 353.74 C 760.43 353.56 759.05 353.69 758.02 353.15 C 728.38 337.36 705.15 314.96 690.02 284.91 C 668.70 242.62 663.07 197.81 670.78 151.26 C 671.89 145.09 673.53 139.03 675.69 133.14 C 677.24 129.03 679.29 125.13 681.81 121.54 C 685.33 116.32 690.52 116.30 694.08 121.13 C 694.82 122.13 695.25 123.36 695.99 124.37 C 708.24 141.03 719.99 158.07 732.92 174.21 C 748.65 193.76 762.26 214.93 773.50 237.37 C 788.44 267.37 799.43 298.84 799.50 332.79 C 799.44 349.80 803.38 366.58 811.00 381.78 Q 824.38 408.71 838.14 435.43 C 839.21 437.53 841.01 439.25 843.38 442.31 C 845.11 418.77 844.06 396.94 842.00 375.16 Z" stroke-linecap="round"/>
</g>
</g>
</g>
<g id="c430d99d-328a-405b-8ca2-44fe468249ce">
<g style="">
		<g id="c430d99d-328a-405b-8ca2-44fe468249ce-child-0">
<path style="stroke: rgb(193,193,193); stroke-width: 0; stroke-dasharray: none; stroke-linecap: butt; stroke-dashoffset: 0; stroke-linejoin: miter; stroke-miterlimit: 4; fill: rgb(255,255,255); fill-rule: nonzero; opacity: 1;" transform="matrix(-0.064524 -0.030055 -0.030055 0.064524 76.735242 88.746658) matrix(1 0 0 1 0 0)  translate(-531.166992, -701.94353)" d="M 842.00 375.16 C 839.27 347.65 834.50 320.38 827.74 293.58 C 826.37 288.12 825.78 282.49 826.00 276.86 C 827.14 252.32 830.85 228.18 839.23 204.95 C 843.91 191.95 849.06 179.13 853.64 166.10 C 857.38 155.45 861.14 144.75 863.81 133.81 C 865.41 127.25 865.11 120.18 865.24 113.34 C 865.24 112.18 863.18 110.85 861.85 109.94 C 861.61 109.78 859.85 111.10 859.46 112.02 C 850.66 131.46 841.78 150.86 833.29 170.43 C 826.29 186.54 819.78 202.85 813.05 219.06 C 812.68 220.26 812.16 221.40 811.51 222.47 C 810.87 223.33 809.69 224.47 808.88 224.35 C 807.81 223.97 807.00 223.08 806.72 221.97 C 805.47 212.03 803.31 202.07 803.45 192.14 C 804.20 137.58 825.27 90.84 860.58 50.27 C 872.92 36.00 885.68 22.22 896.26 6.56 C 897.68 4.53 899.27 2.61 901.00 0.83 C 902.62 -0.88 906.46 0.22 907.08 2.67 C 908.14 6.26 908.86 9.95 909.26 13.67 C 910.12 26.18 910.54 38.67 911.37 51.24 C 915.37 111.95 902.83 168.47 869.27 219.81 C 863.09 229.27 857.27 239.01 851.86 248.92 C 845.13 261.25 841.10 274.25 843.60 288.69 C 844.88 296.08 844.97 303.69 846.02 311.12 C 849.51 335.98 853.17 360.81 856.83 385.63 C 857.00 386.75 857.59 388.51 858.29 388.63 C 859.53 388.73 860.74 388.25 861.58 387.33 C 872.89 373.89 883.49 359.78 895.47 346.96 C 921.78 318.81 943.33 287.17 964.36 255.14 C 969.51 247.30 973.46 238.67 977.80 230.32 C 978.09 229.25 977.80 228.11 977.03 227.32 C 975.99 226.96 974.83 227.16 973.97 227.86 C 970.30 232.14 966.76 236.54 963.31 241.01 C 951.06 257.00 938.92 273.00 926.57 288.87 C 921.57 295.31 916.18 301.47 910.80 307.61 C 909.70 308.86 907.80 309.43 906.33 310.32 C 905.88 308.08 904.63 305.66 905.11 303.65 C 910.69 280.29 919.23 258.10 931.90 237.65 C 948.14 211.48 966.76 186.87 987.53 164.13 C 1004.24 145.77 1024.32 131.99 1045.53 119.58 C 1047.74 118.41 1050.05 117.43 1052.44 116.67 C 1055.99 115.38 1058.78 117.81 1057.73 121.57 C 1055.01 131.23 1052.22 140.87 1049.10 150.41 Q 1031.27 204.98 1013.19 259.48 C 1008.96 272.25 1001.57 282.96 992.19 292.60 C 971.93 313.49 950.00 332.00 922.12 342.08 C 911.12 346.08 902.56 353.08 895.57 362.35 C 888.75 371.35 881.38 379.96 874.84 389.17 C 863.02 405.82 855.17 423.55 855.54 444.97 C 855.85 462.41 853.20 479.97 851.20 497.37 C 849.20 514.77 846.29 532.13 844.03 549.54 C 843.75 551.68 845.03 554.02 845.55 556.27 C 846.96 555.08 848.63 554.10 849.74 552.68 C 862.57 536.43 875.08 519.93 888.13 503.86 C 901.66 487.18 913.86 469.55 922.56 450.02 C 928.63 436.39 932.02 421.55 936.46 407.20 C 936.73 406.33 935.64 405.04 935.18 403.95 C 934.31 404.53 933.07 404.95 932.62 405.74 C 930.83 409.03 929.43 412.53 927.62 415.82 C 917.38 434.54 907.28 453.35 896.62 471.82 C 893.21 477.75 888.37 482.87 884.03 488.22 C 883.19 489.12 881.99 489.59 880.76 489.48 C 879.70 488.95 878.99 487.92 878.86 486.75 C 879.02 477.41 878.06 467.75 879.96 458.75 C 884.36 437.91 890.51 417.46 895.31 396.70 C 899.01 380.70 909.23 370.49 922.77 362.70 C 925.48 361.14 928.24 359.61 931.10 358.32 C 948.83 350.32 966.19 341.57 982.43 330.75 C 986.60 327.97 989.37 329.75 989.14 335.12 C 988.20 357.03 987.52 378.96 985.92 400.82 C 984.76 419.01 980.93 436.94 974.58 454.03 C 961.96 487.11 939.22 509.81 905.28 520.84 C 900.51 522.39 895.49 523.40 890.97 525.50 C 886.45 527.60 881.65 529.87 878.72 533.50 C 856.04 561.50 836.66 591.32 828.65 627.33 C 821.18 661.70 811.61 695.57 800.00 728.77 C 798.91 731.71 798.01 734.72 797.29 737.77 C 797.18 738.91 797.64 740.02 798.50 740.77 C 799.59 741.36 800.89 741.44 802.04 740.98 C 817.88 732.20 834.88 725.20 847.20 711.05 C 851.73 705.84 856.80 701.11 861.47 696.05 C 878.86 677.05 900.68 664.95 924.27 655.69 C 964.10 640.07 1005.97 636.69 1048.16 635.59 C 1051.84 635.49 1055.58 636.50 1059.24 637.26 C 1061.91 637.82 1063.18 641.17 1061.54 643.03 C 1059.90 644.89 1058.08 646.66 1056.26 648.37 Q 1029.52 673.52 1002.72 698.65 C 995.39 705.52 988.27 712.65 980.56 719.07 C 950.56 744.02 916.34 751.96 878.32 743.16 C 876.06 742.63 874.04 741.02 871.91 739.92 C 873.73 737.82 875.16 735.05 877.44 733.73 C 890.44 726.16 903.76 719.10 916.79 711.55 C 927.09 705.55 937.23 699.32 947.21 692.83 C 948.82 691.83 949.21 688.92 950.21 686.89 C 948.44 686.89 946.41 686.24 944.94 686.89 C 922.60 696.89 900.04 706.39 878.12 717.22 C 856.79 727.76 836.43 740.22 814.04 748.67 C 809.96 750.21 806.13 752.46 802.19 754.39 C 792.19 759.29 785.65 766.68 781.32 777.39 C 772.58 798.90 762.76 820.00 752.69 840.93 C 747.28 852.21 740.30 862.72 734.37 873.77 C 733.37 875.69 734.03 878.54 733.93 880.96 C 735.69 880.90 737.59 881.28 739.19 880.73 Q 790.88 863.15 842.52 845.37 C 850.23 842.73 857.99 840.21 865.66 837.45 C 866.46 836.76 866.84 835.70 866.66 834.66 C 866.12 833.59 865.11 832.83 863.94 832.60 C 861.44 832.46 858.93 832.62 856.47 833.10 C 843.53 835.69 830.65 838.50 817.71 841.10 C 811.15 842.40 804.52 843.35 797.92 844.45 C 798.92 835.83 806.66 833.25 812.25 829.05 C 824.89 819.62 839.51 813.17 855.00 810.19 C 873.59 806.41 892.28 805.35 911.14 805.05 C 931.94 804.72 950.56 811.65 968.28 821.64 C 974.92 825.38 974.92 828.48 968.34 831.81 C 942.59 844.81 917.01 858.24 890.84 870.37 C 877.25 876.67 862.72 881.17 848.31 885.44 C 832.97 889.98 816.52 891.34 802.12 884.44 C 788.67 878.00 776.91 879.44 764.25 884.12 C 756.02 887.18 747.81 890.32 739.50 893.12 C 725.90 897.75 716.01 906.12 708.33 918.60 C 682.33 961.03 651.56 999.95 617.87 1036.55 C 614.87 1039.78 611.87 1042.99 609.10 1046.36 C 608.39 1047.28 608.14 1048.47 608.43 1049.59 C 609.12 1050.48 610.21 1050.95 611.33 1050.85 C 616.18 1049.58 621.14 1048.45 625.72 1046.48 C 642.45 1039.30 659.26 1032.28 675.60 1024.30 C 691.94 1016.32 706.81 1005.59 718.66 991.35 C 720.29 989.45 721.71 987.38 722.89 985.17 C 723.24 984.07 723.06 982.87 722.40 981.93 C 722.11 981.53 720.19 981.76 719.45 982.31 C 715.94 984.94 712.62 987.82 709.15 990.52 C 696.85 1000.28 683.31 1008.38 668.88 1014.59 C 667.25 1015.27 665.27 1015.13 663.46 1015.38 C 663.56 1013.61 663.07 1011.52 663.84 1010.13 C 671.78 995.89 678.79 980.96 688.24 967.78 C 705.69 943.47 730.00 928.39 759.05 921.00 C 763.87 919.78 768.93 919.43 773.90 919.00 C 775.13 919.07 776.25 919.74 776.90 920.79 C 777.17 921.94 776.92 923.14 776.22 924.09 C 770.59 931.61 764.01 938.55 759.30 946.59 C 750.74 961.21 742.30 976.06 735.58 991.59 C 725.88 1013.95 709.26 1029.65 689.72 1042.59 C 679.32 1049.50 668.03 1055.37 654.53 1053.82 C 651.53 1053.48 648.32 1054.43 645.39 1055.36 Q 631.95 1059.62 618.71 1064.44 C 617.39 1064.93 616.60 1066.87 615.56 1068.14 C 616.94 1069.24 618.16 1070.90 619.72 1071.35 C 640.81 1077.45 661.78 1084.09 683.12 1089.18 C 707.96 1095.10 732.98 1093.97 757.65 1087.18 C 761.83 1086.03 766.26 1084.94 768.14 1080.18 C 769.14 1077.58 767.68 1077.44 757.25 1078.58 C 748.51 1079.53 739.76 1080.82 730.99 1080.99 C 719.73 1081.21 708.44 1080.57 697.18 1079.99 C 694.05 1079.70 690.97 1079.03 688.01 1077.99 C 686.93 1077.48 686.13 1076.52 685.83 1075.36 C 685.81 1074.28 686.35 1073.26 687.25 1072.67 C 694.10 1069.59 700.87 1066.20 707.98 1063.85 C 730.29 1056.47 753.46 1054.27 776.75 1054.60 C 791.16 1054.98 805.52 1056.32 819.75 1058.60 C 831.01 1060.28 841.61 1064.94 850.46 1072.10 C 854.46 1075.32 853.46 1080.45 848.54 1082.10 C 828.38 1089.10 808.17 1095.90 788.05 1102.99 C 776.81 1106.99 765.71 1111.32 754.55 1115.49 C 726.39 1126.01 700.15 1121.07 675.60 1105.09 C 654.05 1091.09 629.60 1085.63 605.05 1080.45 C 595.66 1078.51 585.88 1080.42 577.90 1085.73 C 561.00 1096.54 543.82 1107.00 527.56 1118.73 C 500.56 1138.21 473.38 1157.30 443.88 1172.87 C 442.17 1173.65 440.54 1174.59 439.01 1175.68 C 438.08 1176.48 437.45 1177.56 437.21 1178.76 C 436.68 1181.83 439.32 1181.42 440.88 1181.38 C 498.12 1179.93 554.88 1184.90 611.55 1192.77 C 616.53 1193.38 621.54 1193.73 626.55 1193.83 C 627.55 1193.83 628.68 1192.75 629.74 1192.16 C 629.14 1191.26 628.74 1189.76 627.92 1189.55 C 614.61 1185.95 601.33 1182.22 587.92 1179.15 C 579.99 1177.33 571.79 1176.76 563.78 1175.29 C 562.33 1175.02 561.17 1173.14 559.87 1172.01 C 560.87 1171.37 561.68 1170.42 562.72 1170.14 C 574.94 1166.87 587.44 1164.90 600.00 1166.60 C 628.09 1170.40 655.53 1176.83 681.63 1188.33 C 699.91 1196.33 714.46 1209.02 726.99 1224.21 C 730.57 1228.55 728.99 1232.65 723.44 1233.49 C 709.79 1235.56 696.09 1237.38 682.44 1239.15 C 667.51 1241.09 652.60 1243.47 637.60 1244.53 C 620.03 1245.74 602.39 1244.58 585.13 1241.09 C 562.77 1236.61 543.39 1226.43 529.96 1207.84 C 522.85 1198.02 514.62 1194.03 503.12 1194.08 C 476.77 1194.19 450.40 1193.31 424.12 1194.08 C 409.12 1194.55 394.04 1197.15 380.05 1203.25 C 355.86 1213.78 330.83 1222.28 305.23 1228.65 C 298.58 1230.32 292.23 1233.04 285.81 1235.65 C 285.23 1235.88 284.98 1239.24 285.71 1239.91 C 287.64 1241.51 289.83 1242.78 292.18 1243.66 C 317.53 1254.48 342.57 1266.18 368.42 1275.66 C 385.42 1281.89 403.52 1284.99 421.19 1289.24 C 424.19 1289.95 427.42 1289.41 430.54 1289.32 C 431.00 1289.32 431.67 1288.63 431.81 1288.14 C 431.95 1287.65 431.69 1286.63 431.35 1286.50 C 429.03 1285.61 426.62 1284.97 424.29 1284.11 C 401.29 1275.64 378.38 1267.18 355.49 1258.53 C 354.20 1258.04 353.49 1255.93 352.56 1254.53 C 353.66 1254.14 354.77 1253.38 355.86 1253.43 C 420.58 1256.00 478.07 1278.88 530.00 1317.00 C 531.07 1317.64 532.00 1318.50 532.73 1319.52 C 533.41 1321.04 533.95 1322.61 534.34 1324.23 C 533.22 1324.46 532.01 1325.05 530.97 1324.84 C 511.79 1320.84 492.33 1321.03 472.88 1320.69 C 447.79 1320.25 422.69 1319.82 397.63 1318.62 C 385.74 1317.91 373.91 1316.37 362.24 1314.00 C 348.92 1311.45 337.51 1304.92 329.03 1294.00 Q 320.38 1282.89 312.19 1271.41 C 309.26 1267.31 306.67 1263.14 301.62 1261.12 C 288.22 1255.77 274.99 1250.00 261.55 1244.79 C 253.80 1241.79 245.76 1241.85 237.46 1243.20 C 211.44 1247.55 185.13 1249.89 158.75 1250.20 C 156.24 1250.22 153.75 1250.49 151.29 1250.99 C 150.16 1251.22 149.19 1251.96 148.67 1252.99 C 148.57 1254.21 148.99 1255.41 149.82 1256.30 C 158.42 1265.44 167.11 1274.49 175.77 1283.56 C 184.44 1305.31 203.01 1315.29 223.15 1323.40 C 223.73 1323.63 224.27 1323.96 224.85 1324.21 C 239.19 1330.57 253.53 1336.96 267.92 1343.21 C 268.99 1343.41 270.09 1343.03 270.81 1342.21 C 271.22 1341.38 270.98 1339.43 270.34 1339.02 C 262.98 1334.26 255.52 1329.65 248.03 1325.11 C 236.24 1317.96 224.36 1310.95 212.65 1303.68 C 211.65 1303.03 211.51 1300.85 210.98 1299.39 C 212.14 1299.05 213.37 1298.28 214.46 1298.39 C 240.16 1302.19 264.74 1308.99 286.30 1324.39 C 312.38 1343.04 331.14 1367.98 347.83 1394.78 C 348.23 1395.27 348.50 1395.85 348.59 1396.48 C 348.44 1398.77 348.59 1401.27 347.66 1403.23 C 347.29 1403.99 344.13 1404.09 342.61 1403.52 Q 309.97 1391.32 277.44 1378.81 C 265.12 1374.10 252.69 1369.65 240.60 1364.39 C 223.81 1357.08 208.11 1347.77 194.96 1334.86 C 190.10 1330.09 184.39 1324.86 182.47 1318.71 C 177.74 1303.71 167.65 1292.76 158.06 1281.23 C 141.26 1261.05 119.55 1249.65 94.06 1244.59 C 77.44 1241.31 60.74 1238.04 44.52 1233.26 C 30.15 1229.02 16.33 1222.85 2.45 1217.09 C 0.96 1216.47 -0.36 1212.54 0.19 1210.74 C 0.67 1209.13 3.80 1207.52 5.86 1207.39 C 8.17 1207.24 10.70 1208.51 12.96 1209.55 C 42.41 1223.07 74.22 1227.73 105.54 1234.16 C 111.67 1235.42 117.98 1235.79 124.19 1236.66 C 130.19 1237.51 135.36 1235.94 139.42 1231.26 C 158.71 1209.01 180.54 1188.79 193.61 1161.65 C 199.87 1148.65 206.91 1136.01 213.40 1123.11 C 213.99 1121.93 213.07 1119.99 212.85 1118.40 C 211.85 1118.88 210.34 1119.07 209.77 1119.88 Q 195.77 1139.88 181.93 1160.08 C 177.34 1166.81 173.06 1173.75 168.48 1180.49 C 167.94 1181.27 166.37 1181.35 165.28 1181.75 C 164.93 1180.75 164.04 1179.58 164.28 1178.75 C 169.62 1161.37 174.93 1143.99 180.64 1126.75 C 182.13 1122.61 184.25 1118.72 186.94 1115.24 C 204.30 1091.91 223.84 1070.72 248.81 1055.32 C 256.81 1050.41 265.39 1046.50 273.93 1042.63 C 275.73 1041.81 279.37 1042.35 280.58 1043.69 C 281.79 1045.03 281.81 1048.33 281.45 1050.62 C 281.09 1052.91 279.70 1055.29 278.66 1057.62 C 267.50 1082.30 257.00 1107.20 245.00 1131.39 C 237.43 1146.57 228.72 1161.14 218.94 1175.00 C 208.05 1190.50 194.65 1203.89 176.83 1211.70 C 167.13 1215.96 161.36 1224.22 154.98 1231.91 C 154.30 1232.73 153.84 1234.73 154.33 1235.32 C 155.33 1236.52 157.06 1237.94 158.39 1237.85 C 180.29 1236.31 202.25 1235.23 224.01 1232.52 C 233.37 1231.41 242.37 1228.27 250.39 1223.32 C 278.15 1205.46 302.22 1183.70 317.12 1153.32 C 331.22 1124.57 345.54 1095.94 359.70 1067.22 C 360.16 1066.29 359.86 1064.99 359.91 1063.86 C 358.39 1064.48 356.41 1064.68 355.41 1065.78 C 343.88 1078.45 336.10 1093.55 327.97 1108.43 C 324.71 1114.43 321.24 1120.30 317.87 1126.23 C 314.76 1118.62 318.70 1111.75 320.45 1104.80 C 324.35 1088.91 330.72 1073.72 339.32 1059.80 C 354.77 1035.11 377.99 1021.06 405.18 1012.80 C 408.63 1011.80 412.59 1011.93 416.27 1012.19 C 420.21 1012.47 422.65 1016.55 421.69 1020.42 C 421.39 1021.63 420.93 1022.81 420.52 1024.00 C 413.39 1044.77 406.21 1065.53 399.14 1086.33 C 393.08 1104.22 383.51 1120.72 371.00 1134.87 C 360.14 1147.11 347.17 1157.30 332.72 1164.97 C 327.29 1167.91 321.72 1170.57 317.97 1176.19 C 308.47 1190.37 296.41 1202.29 283.44 1213.33 C 281.55 1214.97 279.88 1216.83 278.44 1218.87 C 278.08 1219.38 278.79 1221.36 279.51 1221.76 C 280.68 1222.22 281.97 1222.29 283.18 1221.96 C 332.83 1211.88 378.96 1192.24 423.95 1169.64 C 427.46 1167.88 430.45 1163.64 432.06 1159.91 C 434.25 1154.81 435.28 1149.11 436.06 1143.56 C 438.91 1124.28 439.37 1104.89 438.52 1085.42 C 437.34 1058.34 438.36 1031.42 448.36 1005.72 C 449.16 1004.02 449.70 1002.20 449.95 1000.34 C 450.05 998.81 449.20 997.22 448.77 995.66 C 447.77 996.25 446.29 996.57 445.69 997.46 C 443.24 1001.10 441.32 1005.12 438.64 1008.56 C 437.11 1010.56 438.15 1015.62 433.64 1013.93 C 432.64 1013.53 432.54 1009.28 432.79 1006.93 C 435.28 983.02 443.25 961.77 462.88 946.36 C 468.28 942.11 473.58 937.70 479.26 933.87 C 481.64 932.27 484.20 933.75 484.66 936.74 C 485.06 939.82 485.21 942.93 485.10 946.04 C 484.93 960.45 484.81 974.86 484.42 989.26 C 483.94 1006.79 483.67 1024.35 482.47 1041.83 C 480.97 1063.45 475.38 1083.83 461.47 1101.27 C 458.47 1105.01 456.96 1110.15 455.73 1114.90 C 453.20 1124.60 451.20 1134.45 449.28 1144.30 C 448.71 1147.21 449.13 1150.30 449.11 1153.30 C 451.94 1152.69 455.24 1152.81 457.53 1151.30 C 472.88 1141.55 488.82 1132.48 503.05 1121.30 C 529.77 1100.24 544.21 1073.30 539.87 1037.77 C 536.68 1012.86 536.88 987.63 540.49 962.77 C 546.77 921.00 574.00 897.00 608.47 878.41 C 609.62 877.93 610.93 878.02 612.01 878.64 C 612.72 879.56 612.92 880.78 612.54 881.88 C 602.45 902.68 600.90 925.31 598.25 947.71 C 597.51 953.94 596.77 960.18 595.62 966.33 C 592.62 982.53 587.28 997.88 578.14 1011.72 C 576.71 1013.78 575.18 1015.76 573.53 1017.65 C 573.11 1018.10 572.51 1018.32 571.90 1018.25 C 570.97 1017.84 569.55 1017.19 569.44 1016.47 C 568.72 1011.53 567.73 1006.53 567.85 1001.57 C 568.22 986.57 569.13 971.57 569.64 956.57 C 569.65 952.88 569.35 949.21 568.74 945.57 C 568.74 945.23 566.01 944.67 565.74 945.01 C 563.74 948.08 561.32 951.13 560.26 954.56 C 555.26 970.90 553.94 987.78 554.60 1004.77 C 555.60 1030.50 556.97 1056.22 547.04 1080.87 C 546.90 1081.95 547.34 1083.03 548.20 1083.70 C 549.35 1084.08 550.60 1083.91 551.61 1083.25 C 556.91 1078.83 562.15 1074.33 567.24 1069.68 C 622.82 1018.88 668.99 960.46 708.61 896.55 C 717.31 882.55 721.61 868.21 720.61 852.13 C 719.97 841.49 718.61 830.89 717.70 820.25 C 717.20 814.25 713.82 811.14 708.30 810.25 C 699.02 808.70 689.55 808.08 680.43 805.92 C 659.99 801.09 639.36 800.92 618.67 802.53 C 611.21 803.10 603.81 804.93 596.50 806.67 C 591.57 807.84 585.57 814.24 587.09 814.53 C 590.76 815.11 594.48 815.27 598.18 814.99 C 605.07 814.65 611.96 813.49 618.83 813.59 C 631.32 813.77 643.83 814.53 656.29 815.30 C 657.73 815.39 660.22 817.03 660.23 817.96 C 660.02 819.80 659.11 821.48 657.69 822.67 C 654.81 825.08 651.78 827.31 648.63 829.36 C 635.63 838.17 620.76 841.22 605.63 841.67 C 576.79 842.54 547.92 842.17 519.05 842.22 C 516.54 842.11 514.04 841.74 511.61 841.11 C 508.38 840.41 507.84 837.89 509.14 835.52 C 511.27 831.70 513.71 828.06 516.42 824.63 C 532.31 804.32 553.54 791.26 576.42 780.30 C 590.99 773.30 606.48 771.20 622.19 770.78 C 635.73 770.41 649.08 773.72 658.37 783.92 C 665.96 792.24 674.66 794.67 684.92 795.39 C 691.17 795.84 697.34 797.15 703.58 797.86 C 712.03 798.86 713.58 797.27 710.90 788.42 C 707.90 778.23 704.17 768.21 700.35 758.27 C 688.09 726.42 671.53 697.04 649.35 671.00 C 645.17 666.34 640.76 661.90 636.14 657.69 C 635.37 656.95 633.82 657.02 632.64 656.69 C 632.47 658.35 631.56 660.49 632.27 661.59 C 638.36 671.08 644.51 680.59 651.09 689.70 C 665.36 709.57 677.29 731.02 686.65 753.62 C 687.21 754.96 686.48 756.85 686.35 758.48 C 685.17 758.20 683.74 758.25 682.86 757.59 Q 668.53 746.86 654.36 735.93 C 622.80 711.53 599.26 681.35 586.94 642.93 C 580.94 624.07 579.65 604.84 581.38 585.30 C 581.80 582.19 582.58 579.14 583.70 576.21 C 585.95 569.52 589.83 568.29 594.50 573.34 C 612.93 593.34 634.36 609.59 656.26 625.50 C 679.07 642.09 695.42 664.43 706.65 690.08 C 713.15 704.93 719.71 720.08 719.93 736.91 C 720.10 750.03 719.93 763.19 725.55 775.56 C 726.55 777.76 726.55 780.46 726.79 782.96 C 727.97 796.70 729.12 810.44 730.16 824.19 C 730.69 831.06 730.91 837.96 731.47 844.83 C 731.54 845.72 732.74 847.15 733.47 847.19 C 734.67 847.15 735.78 846.55 736.47 845.57 C 740.61 837.82 744.76 830.07 748.54 822.15 C 775.92 764.89 797.44 705.01 812.75 643.42 C 815.59 632.00 814.05 622.80 807.24 613.42 C 796.77 599.06 784.70 586.27 770.05 576.42 C 757.58 567.97 746.32 557.86 736.58 546.36 C 730.45 539.22 723.97 532.36 717.66 525.36 C 698.25 503.90 680.53 481.20 666.46 455.81 C 665.22 453.63 663.79 451.57 662.17 449.65 C 661.49 448.84 660.17 448.56 659.17 448.03 C 658.54 449.47 657.17 451.03 657.41 452.32 C 659.20 464.32 665.30 474.73 670.74 485.32 C 681.15 505.51 695.12 523.22 709.74 540.45 C 711.10 542.05 711.22 544.69 711.92 546.85 C 710.14 546.31 708.32 545.85 706.58 545.18 C 705.42 544.69 704.31 544.09 703.28 543.37 C 640.47 502.88 607.98 445.37 606.52 370.55 C 606.60 366.17 607.31 361.83 608.64 357.65 C 610.41 351.36 615.52 350.10 619.75 355.16 C 634.80 373.16 653.41 387.11 671.24 401.97 C 678.00 407.60 684.81 413.19 691.24 419.21 C 707.70 434.70 723.64 450.67 736.73 469.28 C 751.19 489.85 758.54 512.87 761.25 537.61 C 757.89 547.89 764.44 553.98 770.81 560.14 L 820.04 607.82 C 821.44 602.28 823.28 596.46 824.34 590.49 C 828.29 568.27 831.59 545.92 835.87 523.76 C 839.81 503.33 837.46 483.50 830.16 464.54 C 818.89 435.31 806.65 406.43 794.28 377.64 C 781.38 347.64 763.28 320.34 747.74 291.72 C 739.95 277.40 732.20 263.06 724.02 248.97 C 720.91 243.62 716.68 238.89 712.79 234.03 C 712.49 233.67 709.86 234.36 709.79 234.78 C 709.51 236.62 709.57 238.50 709.96 240.32 C 714.44 260.10 723.60 278.05 732.59 295.95 C 741.58 313.85 751.93 331.05 761.52 348.64 C 762.25 349.97 761.64 352.03 761.65 353.74 C 760.43 353.56 759.05 353.69 758.02 353.15 C 728.38 337.36 705.15 314.96 690.02 284.91 C 668.70 242.62 663.07 197.81 670.78 151.26 C 671.89 145.09 673.53 139.03 675.69 133.14 C 677.24 129.03 679.29 125.13 681.81 121.54 C 685.33 116.32 690.52 116.30 694.08 121.13 C 694.82 122.13 695.25 123.36 695.99 124.37 C 708.24 141.03 719.99 158.07 732.92 174.21 C 748.65 193.76 762.26 214.93 773.50 237.37 C 788.44 267.37 799.43 298.84 799.50 332.79 C 799.44 349.80 803.38 366.58 811.00 381.78 Q 824.38 408.71 838.14 435.43 C 839.21 437.53 841.01 439.25 843.38 442.31 C 845.11 418.77 844.06 396.94 842.00 375.16 Z" stroke-linecap="round"/>
</g>
</g>
</g>
<g style="" id="ccd63498-a5d1-4d3c-abc3-3633b8bb9cd8">
<g style=""><path d="M-106.69346 -3.75127C-106.69346 14.76637 -102.42572 20.40847 -96.13261 20.40847C-89.76717 20.40847 -85.57177 14.76637 -85.57177 -3.75127C-85.57177 -22.19658 -89.76717 -27.91101 -96.13261 -27.91101C-102.42572 -27.91101 -106.69346 -22.19658 -106.69346 -3.75127ZM-119.20733 -3.75127C-119.20733 -20.31588 -110.02085 -30.87672 -96.13261 -30.87672C-82.24438 -30.87672 -72.98556 -20.31588 -72.98556 -3.75127C-72.98556 12.88568 -82.24438 23.44652 -96.13261 23.44652C-110.02085 23.44652 -119.20733 12.88568 -119.20733 -3.75127Z" fill="rgb(255, 255, 255)" transform="matrix(1 0 0 1 149.189574 180.876725)"/><path d="M-74.64925 -29.28536C-74.64925 -30.08104 -73.34723 -30.15338 -72.11754 -30.15338L-70.38151 -30.15338C-68.71782 -30.15338 -66.25845 -29.79171 -63.79907 -29.79171C-61.26736 -29.79171 -58.80799 -30.15338 -57.14429 -30.15338L-55.40826 -30.15338C-54.17858 -30.15338 -53.02122 -30.08104 -53.02122 -29.28536C-53.02122 -28.27268 -55.6976 -27.04299 -56.63795 -25.74097C-57.65063 -24.36662 -57.65063 -21.11156 -57.65063 -19.37553L-57.65063 -6.57232L-43.03906 -6.57232L-43.03906 -19.37553C-43.03906 -21.11156 -43.11139 -24.80062 -44.34108 -26.10264C-44.99209 -26.75366 -47.45146 -28.27268 -47.45146 -29.28536C-47.45146 -30.08104 -46.22178 -30.15338 -44.91975 -30.15338L-43.18372 -30.15338C-41.52003 -30.15338 -39.13299 -29.79171 -36.60128 -29.79171C-34.14191 -29.79171 -31.6102 -30.15338 -29.9465 -30.15338L-28.21047 -30.15338C-26.98079 -30.15338 -25.82343 -30.08104 -25.82343 -29.28536C-25.82343 -28.27268 -28.49981 -27.04299 -29.44016 -25.74097C-30.52518 -24.36662 -30.52518 -21.11156 -30.52518 -19.37553L-30.52518 11.87299C-30.52518 13.60902 -30.52518 16.86408 -29.44016 18.31077C-28.49981 19.61279 -25.82343 20.77014 -25.82343 21.85516C-25.82343 22.57851 -26.83612 22.72317 -27.92114 22.72317L-29.9465 22.65084C-31.6102 22.65084 -34.14191 22.28917 -36.60128 22.28917C-39.13299 22.28917 -41.52003 22.65084 -43.18372 22.65084L-45.20909 22.72317C-46.36644 22.72317 -47.45146 22.57851 -47.45146 21.85516C-47.45146 20.77014 -44.99209 19.32345 -44.34108 18.60011C-43.11139 17.29808 -43.03906 13.60902 -43.03906 11.87299L-43.03906 -3.6066L-57.65063 -3.6066L-57.65063 11.87299C-57.65063 13.60902 -57.65063 16.86408 -56.63795 18.31077C-55.6976 19.61279 -53.02122 20.77014 -53.02122 21.85516C-53.02122 22.57851 -54.03391 22.72317 -55.11893 22.72317L-57.14429 22.65084C-58.80799 22.65084 -61.26736 22.28917 -63.79907 22.28917C-66.25845 22.28917 -68.71782 22.65084 -70.38151 22.65084L-72.40688 22.72317C-73.56423 22.72317 -74.64925 22.57851 -74.64925 21.85516C-74.64925 20.77014 -72.18988 19.32345 -71.46653 18.60011C-70.23685 17.29808 -70.16451 13.60902 -70.16451 11.87299L-70.16451 -19.37553C-70.16451 -21.11156 -70.23685 -24.80062 -71.46653 -26.10264C-72.18988 -26.75366 -74.64925 -28.27268 -74.64925 -29.28536Z" fill="rgb(255, 255, 255)" transform="matrix(1 0 0 1 149.189574 180.876725)"/><path d="M3.32739 7.67759L-4.84641 -14.74612L-13.02022 7.67759ZM0.72335 -30.15338C2.02537 -30.15338 3.11039 -29.3577 3.54439 -28.20035L18.30064 11.87299C18.87932 13.60902 20.32601 17.29808 21.9897 18.60011C22.93005 19.32345 25.9681 20.77014 26.40211 21.85516C26.61911 22.57851 25.60643 22.72317 24.44908 22.72317L22.35138 22.65084C20.68768 22.65084 18.15597 22.28917 15.62426 22.28917C13.16489 22.28917 9.98217 22.65084 8.31847 22.65084L6.29311 22.72317C5.20809 22.72317 4.12307 22.57851 3.90607 21.85516C3.47206 20.77014 5.78676 19.61279 6.22077 18.31077C6.72711 16.86408 5.56976 13.60902 4.91875 11.87299L4.48474 10.71564L-14.10524 10.71564L-14.53924 11.87299C-15.11792 13.60902 -16.41994 17.29808 -15.6966 18.60011C-15.26259 19.32345 -13.30956 20.77014 -13.74356 21.85516C-13.96057 22.57851 -15.11792 22.72317 -16.27527 22.72317L-18.30064 22.65084L-21.9897 22.65084L-24.01507 22.72317C-25.10009 22.72317 -26.11277 22.57851 -25.89577 21.85516C-25.46176 20.77014 -22.27904 19.61279 -20.97702 18.31077C-19.38566 16.86408 -18.15597 13.60902 -17.5773 11.87299L-2.96572 -28.20035C-2.53171 -29.3577 -1.37436 -30.15338 -0.14467 -30.15338L0.72335 -30.15338Z" fill="rgb(255, 255, 255)" transform="matrix(1 0 0 1 149.189574 180.876725)"/><path d="M66.25845 20.62547C66.25845 21.85516 65.46277 22.65084 64.23308 22.65084L62.71405 22.65084C61.48437 22.65084 60.25468 21.99983 59.60367 20.91481L33.78023 -21.03923L33.78023 11.87299C33.78023 13.60902 33.78023 16.86408 34.86525 18.31077C35.73327 19.61279 38.48198 20.77014 38.48198 21.85516C38.48198 22.57851 37.4693 22.72317 36.31194 22.72317L34.35891 22.65084L30.59751 22.65084L28.57215 22.72317C27.41479 22.72317 26.32978 22.57851 26.32978 21.85516C26.32978 20.77014 28.78915 19.32345 29.5125 18.60011C30.74218 17.29808 30.81452 13.60902 30.81452 11.87299L30.81452 -19.37553C30.81452 -21.11156 30.74218 -24.80062 29.5125 -26.10264C28.78915 -26.75366 26.32978 -28.27268 26.32978 -29.28536C26.32978 -30.08104 27.6318 -30.15338 28.86148 -30.15338L30.59751 -30.15338L34.35891 -30.15338L36.09494 -30.15338L37.03529 -30.15338L40.86902 -30.15338C42.09871 -30.15338 43.40073 -29.50237 43.9794 -28.41735L63.22039 2.83117L63.22039 -19.37553C63.22039 -21.11156 63.14806 -24.80062 61.99071 -26.10264C61.26736 -26.75366 58.80799 -28.27268 58.80799 -29.28536C58.80799 -30.08104 60.03767 -30.15338 61.3397 -30.15338L63.07573 -30.15338L66.76479 -30.15338L68.50082 -30.15338C69.7305 -30.15338 70.96019 -30.08104 70.96019 -29.28536C70.96019 -28.27268 68.21148 -27.04299 67.34346 -25.74097C66.25845 -24.36662 66.25845 -21.11156 66.25845 -19.37553L66.25845 20.62547Z" fill="rgb(255, 255, 255)" transform="matrix(1 0 0 1 149.189574 180.876725)"/><path d="M97.72397 7.67759L89.55017 -14.74612L81.37637 7.67759ZM95.11993 -30.15338C96.42195 -30.15338 97.50697 -29.3577 97.94098 -28.20035L112.69722 11.87299C113.2759 13.60902 114.72259 17.29808 116.38629 18.60011C117.32664 19.32345 120.36469 20.77014 120.79869 21.85516C121.0157 22.57851 120.00301 22.72317 118.84566 22.72317L116.74796 22.65084C115.08426 22.65084 112.55256 22.28917 110.02085 22.28917C107.56147 22.28917 104.37875 22.65084 102.71506 22.65084L100.68969 22.72317C99.60467 22.72317 98.51965 22.57851 98.30265 21.85516C97.86864 20.77014 100.18335 19.61279 100.61736 18.31077C101.1237 16.86408 99.96634 13.60902 99.31533 11.87299L98.88133 10.71564L80.29135 10.71564L79.85734 11.87299C79.27866 13.60902 77.97664 17.29808 78.69999 18.60011C79.13399 19.32345 81.08703 20.77014 80.65302 21.85516C80.43602 22.57851 79.27866 22.72317 78.12131 22.72317L76.09594 22.65084L72.40688 22.65084L70.38151 22.72317C69.2965 22.72317 68.28381 22.57851 68.50082 21.85516C68.93482 20.77014 72.11754 19.61279 73.41957 18.31077C75.01093 16.86408 76.24061 13.60902 76.81929 11.87299L91.43087 -28.20035C91.86488 -29.3577 93.02223 -30.15338 94.25192 -30.15338L95.11993 -30.15338Z" fill="rgb(255, 255, 255)" transform="matrix(1 0 0 1 149.189574 180.876725)"/></g></g>
<g style="" id="a08621b2-ff2a-4754-82e0-969d49c0168d">
<g style=""><path d="M-102.79513 7.48582C-102.79513 0.63543 -115.74787 -1.52992 -115.74787 -9.67951C-115.74787 -16.17557 -107.44079 -16.80549 -105.15733 -16.80549C-100.94474 -16.80549 -96.65341 -14.64014 -96.65341 -11.68739C-96.65341 -9.64014 -98.74002 -8.49841 -100.39356 -8.49841C-102.20458 -8.49841 -103.66127 -9.91573 -103.66127 -11.60865C-103.66127 -12.55353 -103.18883 -13.65589 -103.18883 -14.12833C-103.18883 -14.79762 -104.21245 -15.19132 -105.03922 -15.19132C-107.20457 -15.19132 -109.29118 -14.40392 -109.29118 -11.88424C-109.29118 -5.66377 -96.33845 -2.63228 -96.33845 6.22598C-96.33845 12.87951 -103.66127 12.87951 -106.65339 12.87951C-111.65339 12.87951 -115.82661 10.55668 -115.82661 7.44645C-115.82661 5.28109 -113.77937 4.13936 -112.12583 4.13936C-110.3148 4.13936 -108.85811 5.55669 -108.85811 7.2496C-108.85811 8.19448 -109.33055 9.33621 -109.33055 9.84802C-109.33055 10.55668 -108.3463 11.26534 -106.96835 11.26534C-105.9841 11.26534 -102.79513 10.91101 -102.79513 7.48582Z" fill="rgb(255, 255, 255)" transform="matrix(1 0 0 1 149.944597 224.357731)"/><path d="M-96.85026 -15.93935C-96.85026 -16.37242 -96.1416 -16.41179 -95.47231 -16.41179L-94.52743 -16.41179C-93.62191 -16.41179 -92.28333 -16.21494 -90.94475 -16.21494C-89.5668 -16.21494 -88.26759 -16.41179 -87.36208 -16.41179L-87.32271 -16.41179L-81.33847 -16.45116C-77.28336 -16.45116 -75.9054 -15.07321 -75.9054 -12.94723C-75.9054 -10.86061 -77.28336 -9.48266 -79.3306 -9.48266C-81.45658 -9.48266 -82.83453 -10.86061 -82.83453 -12.94723C-82.83453 -13.65589 -82.71642 -14.28581 -82.44083 -14.75825L-86.22035 -14.75825C-87.48019 -14.75825 -87.5983 -11.29368 -87.5983 -10.54565L-87.5983 -3.57716L-86.45657 -3.57716C-85.51169 -3.57716 -83.50382 -3.61653 -82.79516 -4.28582C-82.44083 -4.67952 -81.61406 -6.0181 -81.02351 -6.0181C-80.43296 -6.0181 -80.59044 -4.4433 -80.59044 -3.6559L-80.59044 -1.64803C-80.59044 -0.9 -80.43296 0.59606 -81.02351 0.59606C-81.61406 0.59606 -82.28335 -0.9 -82.95264 -1.37244C-83.74004 -1.96299 -85.51169 -1.96299 -86.45657 -1.96299L-87.5983 -1.96299L-87.5983 6.4622C-87.5983 7.21023 -87.48019 10.71416 -86.22035 10.71416L-82.40146 10.71416C-82.67705 10.16298 -82.83453 9.57243 -82.83453 8.8244C-82.83453 6.73779 -81.45658 5.32046 -79.3306 5.32046C-77.28336 5.32046 -75.9054 6.73779 -75.9054 8.8244C-75.9054 10.91101 -77.28336 12.32833 -79.3306 12.32833L-87.36208 12.32833C-88.26759 12.32833 -89.5668 12.13148 -90.94475 12.13148C-92.28333 12.13148 -93.62191 12.32833 -94.52743 12.32833L-95.62979 12.3677C-96.25971 12.3677 -96.85026 12.28896 -96.85026 11.89526C-96.85026 11.30471 -95.51168 10.51731 -95.11798 10.12361C-94.44869 9.41495 -94.40932 7.40708 -94.40932 6.4622L-94.40932 -10.54565C-94.40932 -11.49053 -94.44869 -13.49841 -95.11798 -14.20707C-95.51168 -14.5614 -96.85026 -15.38817 -96.85026 -15.93935Z" fill="rgb(255, 255, 255)" transform="matrix(1 0 0 1 149.944597 224.357731)"/><path d="M-54.17315 11.22597C-54.17315 11.89526 -54.60622 12.32833 -55.27551 12.32833L-56.10228 12.32833C-56.77157 12.32833 -57.44086 11.974 -57.79519 11.38345L-71.85029 -11.45116L-71.85029 6.4622C-71.85029 7.40708 -71.85029 9.17873 -71.25974 9.96613C-70.7873 10.67479 -69.29124 11.30471 -69.29124 11.89526C-69.29124 12.28896 -69.84242 12.3677 -70.47234 12.3677L-71.53533 12.32833L-73.58257 12.32833L-74.68493 12.3677C-75.31485 12.3677 -75.9054 12.28896 -75.9054 11.89526C-75.9054 11.30471 -74.56682 10.51731 -74.17312 10.12361C-73.50383 9.41495 -73.46446 7.40708 -73.46446 6.4622L-73.46446 -10.54565C-73.46446 -11.49053 -73.50383 -13.49841 -74.17312 -14.20707C-74.56682 -14.5614 -75.9054 -15.38817 -75.9054 -15.93935C-75.9054 -16.37242 -75.19674 -16.41179 -74.52745 -16.41179L-73.58257 -16.41179L-71.53533 -16.41179L-70.59045 -16.41179L-70.07864 -16.41179L-67.99203 -16.41179C-67.32274 -16.41179 -66.61408 -16.05746 -66.29912 -15.46691L-55.82669 1.54094L-55.82669 -10.54565C-55.82669 -11.49053 -55.86606 -13.49841 -56.49598 -14.20707C-56.88968 -14.5614 -58.22826 -15.38817 -58.22826 -15.93935C-58.22826 -16.37242 -57.55897 -16.41179 -56.85031 -16.41179L-55.90543 -16.41179L-53.89756 -16.41179L-52.95268 -16.41179C-52.28339 -16.41179 -51.6141 -16.37242 -51.6141 -15.93935C-51.6141 -15.38817 -53.11016 -14.71888 -53.5826 -14.01022C-54.17315 -13.26219 -54.17315 -11.49053 -54.17315 -10.54565L-54.17315 11.22597Z" fill="rgb(255, 255, 255)" transform="matrix(1 0 0 1 149.944597 224.357731)"/><path d="M-50.66922 12.3677C-51.29914 12.3677 -51.88969 12.28896 -51.88969 11.89526C-51.88969 11.30471 -50.55111 10.51731 -50.15741 10.12361C-49.48812 9.41495 -49.44875 7.40708 -49.44875 6.4622L-49.44875 -10.54565C-49.44875 -11.49053 -49.48812 -13.49841 -50.15741 -14.20707C-50.55111 -14.5614 -51.88969 -15.38817 -51.88969 -15.93935C-51.88969 -16.37242 -51.18103 -16.41179 -50.51174 -16.41179L-49.56686 -16.41179C-48.66135 -16.41179 -47.32277 -16.21494 -45.98419 -16.21494C-44.60624 -16.21494 -43.26766 -16.41179 -42.36214 -16.41179L-41.41726 -16.41179C-40.74797 -16.41179 -40.11805 -16.37242 -40.11805 -15.93935C-40.11805 -15.38817 -41.57474 -14.71888 -42.08655 -14.01022C-42.63774 -13.26219 -42.63774 -11.49053 -42.63774 -10.54565L-42.63774 6.4622C-42.63774 7.40708 -42.63774 9.17873 -42.08655 9.96613C-41.57474 10.67479 -40.11805 11.30471 -40.11805 11.89526C-40.11805 12.28896 -40.66923 12.3677 -41.25978 12.3677L-42.36214 12.32833C-43.26766 12.32833 -44.60624 12.13148 -45.98419 12.13148C-47.32277 12.13148 -48.66135 12.32833 -49.56686 12.32833Z" fill="rgb(255, 255, 255)" transform="matrix(1 0 0 1 149.944597 224.357731)"/><path d="M-34.29129 -2.04173C-34.29129 8.037 -31.96846 11.10786 -28.54327 11.10786C-25.0787 11.10786 -22.79524 8.037 -22.79524 -2.04173C-22.79524 -12.08109 -25.0787 -15.19132 -28.54327 -15.19132C-31.96846 -15.19132 -34.29129 -12.08109 -34.29129 -2.04173ZM-41.1023 -2.04173C-41.1023 -11.05746 -36.10231 -16.80549 -28.54327 -16.80549C-20.98422 -16.80549 -15.94486 -11.05746 -15.94486 -2.04173C-15.94486 7.01338 -20.98422 12.7614 -28.54327 12.7614C-36.10231 12.7614 -41.1023 7.01338 -41.1023 -2.04173Z" fill="rgb(255, 255, 255)" transform="matrix(1 0 0 1 149.944597 224.357731)"/><path d="M-15.11809 -14.20707C-15.51179 -14.5614 -16.85037 -15.38817 -16.85037 -15.93935C-16.85037 -16.37242 -16.14171 -16.41179 -15.47242 -16.41179L-14.52754 -16.41179C-13.62203 -16.41179 -12.28345 -16.21494 -10.94487 -16.21494C-9.56692 -16.21494 -8.2677 -16.41179 -7.36219 -16.41179L-2.63779 -16.41179C2.00787 -16.41179 5.1181 -13.30156 5.1181 -8.57715C5.1181 -4.52204 2.87401 -1.64803 -0.70866 -0.93937C1.61417 1.69842 2.63779 3.58818 4.3307 6.54094C4.88188 7.48582 5.94487 9.25747 6.96849 10.04487C7.83463 10.75353 9.05511 11.38345 9.40944 11.974C9.60629 12.40707 8.97637 12.44644 8.30707 12.44644L7.40156 12.44644L1.53543 12.44644C0.43307 12.44644 -0.66929 11.77715 -1.1811 10.7929L-7.55904 -0.70315L-7.59841 -0.70315L-7.59841 6.4622C-7.59841 7.40708 -7.59841 9.17873 -7.04723 9.96613C-6.53542 10.67479 -5.07873 11.30471 -5.07873 11.89526C-5.07873 12.28896 -5.62991 12.3677 -6.22046 12.3677L-7.32282 12.32833C-8.22833 12.32833 -9.56692 12.13148 -10.94487 12.13148C-12.28345 12.13148 -13.62203 12.32833 -14.52754 12.32833L-15.6299 12.3677C-16.25982 12.3677 -16.85037 12.28896 -16.85037 11.89526C-16.85037 11.30471 -15.51179 10.51731 -15.11809 10.12361C-14.4488 9.41495 -14.40943 7.40708 -14.40943 6.4622L-14.40943 -10.54565C-14.40943 -11.49053 -14.4488 -13.49841 -15.11809 -14.20707ZM-6.49605 -2.35669C-2.40157 -2.35669 -1.69291 -5.27007 -1.69291 -7.86849C-1.69291 -10.58502 -2.48031 -14.79762 -5.1181 -14.79762C-5.5118 -14.79762 -5.98424 -14.67951 -6.49605 -14.44329C-7.51967 -13.97085 -7.59841 -11.21494 -7.59841 -10.54565L-7.59841 -2.35669L-6.49605 -2.35669Z" fill="rgb(255, 255, 255)" transform="matrix(1 0 0 1 149.944597 224.357731)"/><path d="" fill="rgb(255, 255, 255)" transform="matrix(1 0 0 1 149.944597 224.357731)"/><path d="M41.1023 7.17086C41.496 7.32834 41.61411 7.68267 41.37789 7.99763C39.17317 11.06849 36.29916 12.7614 32.00783 12.7614C24.05508 12.7614 19.05509 7.01338 19.05509 -2.04173C19.05509 -11.05746 24.05508 -16.80549 31.73224 -16.80549C34.96058 -16.80549 40.78734 -15.50628 40.78734 -11.37242C40.78734 -9.24644 39.40939 -7.86849 37.32278 -7.86849C35.23617 -7.86849 33.85822 -9.24644 33.85822 -11.37242C33.85822 -12.75038 34.44877 -13.85274 35.51176 -14.44329C34.68499 -14.67951 33.81885 -14.75825 32.95271 -14.75825C28.18894 -14.75825 25.86611 -12.08109 25.86611 -2.04173C25.86611 8.037 28.18894 10.71416 32.67712 10.71416C35.47239 10.71416 38.03144 9.69054 39.84246 7.28897C39.99994 7.05275 40.23616 6.93464 40.51175 6.93464C40.62986 6.93464 40.7086 6.97401 40.82671 7.01338L41.1023 7.17086Z" fill="rgb(255, 255, 255)" transform="matrix(1 0 0 1 149.944597 224.357731)"/><path d="M56.14165 4.17873L51.69284 -8.02597L47.24403 4.17873ZM54.72433 -16.41179C55.43299 -16.41179 56.02354 -15.97872 56.25976 -15.3488L64.29125 6.4622C64.60621 7.40708 65.39361 9.41495 66.29912 10.12361C66.81093 10.51731 68.46447 11.30471 68.70069 11.89526C68.8188 12.28896 68.26762 12.3677 67.6377 12.3677L66.49597 12.32833C65.59046 12.32833 64.21251 12.13148 62.83456 12.13148C61.49598 12.13148 59.7637 12.32833 58.85818 12.32833L57.75582 12.3677C57.16527 12.3677 56.57472 12.28896 56.45661 11.89526C56.22039 11.30471 57.48023 10.67479 57.71645 9.96613C57.99204 9.17873 57.36212 7.40708 57.00779 6.4622L56.77157 5.83228L46.65348 5.83228L46.41726 6.4622C46.1023 7.40708 45.39364 9.41495 45.78734 10.12361C46.02356 10.51731 47.08655 11.30471 46.85033 11.89526C46.73222 12.28896 46.1023 12.3677 45.47238 12.3677L44.37002 12.32833L42.36214 12.32833L41.25978 12.3677C40.66923 12.3677 40.11805 12.28896 40.23616 11.89526C40.47238 11.30471 42.20466 10.67479 42.91333 9.96613C43.77947 9.17873 44.44876 7.40708 44.76372 6.4622L52.71646 -15.3488C52.95268 -15.97872 53.5826 -16.41179 54.25189 -16.41179L54.72433 -16.41179Z" fill="rgb(255, 255, 255)" transform="matrix(1 0 0 1 149.944597 224.357731)"/><path d="M70.3936 -14.20707C69.9999 -14.5614 68.66132 -15.38817 68.66132 -15.93935C68.66132 -16.37242 69.36998 -16.41179 70.03927 -16.41179L70.98415 -16.41179C71.88966 -16.41179 73.22824 -16.21494 74.56682 -16.21494C75.94477 -16.21494 77.24399 -16.41179 78.1495 -16.41179L82.8739 -16.41179C87.51956 -16.41179 90.62979 -13.30156 90.62979 -8.57715C90.62979 -4.52204 88.3857 -1.64803 84.80303 -0.93937C87.12586 1.69842 88.14948 3.58818 89.84239 6.54094C90.39357 7.48582 91.45656 9.25747 92.48018 10.04487C93.34632 10.75353 94.5668 11.38345 94.92113 11.974C95.11798 12.40707 94.48806 12.44644 93.81877 12.44644L92.91325 12.44644L87.04712 12.44644C85.94476 12.44644 84.8424 11.77715 84.33059 10.7929L77.95265 -0.70315L77.91328 -0.70315L77.91328 6.4622C77.91328 7.40708 77.91328 9.17873 78.46446 9.96613C78.97627 10.67479 80.43296 11.30471 80.43296 11.89526C80.43296 12.28896 79.88178 12.3677 79.29123 12.3677L78.18887 12.32833C77.28336 12.32833 75.94477 12.13148 74.56682 12.13148C73.22824 12.13148 71.88966 12.32833 70.98415 12.32833L69.88179 12.3677C69.25187 12.3677 68.66132 12.28896 68.66132 11.89526C68.66132 11.30471 69.9999 10.51731 70.3936 10.12361C71.06289 9.41495 71.10226 7.40708 71.10226 6.4622L71.10226 -10.54565C71.10226 -11.49053 71.06289 -13.49841 70.3936 -14.20707ZM79.01564 -2.35669C83.11012 -2.35669 83.81878 -5.27007 83.81878 -7.86849C83.81878 -10.58502 83.03138 -14.79762 80.39359 -14.79762C79.99989 -14.79762 79.52745 -14.67951 79.01564 -14.44329C77.99202 -13.97085 77.91328 -11.21494 77.91328 -10.54565L77.91328 -2.35669L79.01564 -2.35669Z" fill="rgb(255, 255, 255)" transform="matrix(1 0 0 1 149.944597 224.357731)"/><path d="M94.99987 -15.93935C94.99987 -16.37242 95.70853 -16.41179 96.37782 -16.41179L97.3227 -16.41179C98.22821 -16.41179 99.56679 -16.21494 100.90537 -16.21494C102.28332 -16.21494 103.58253 -16.41179 104.48804 -16.41179L104.52741 -16.41179L110.51165 -16.45116C114.56677 -16.45116 115.94472 -15.07321 115.94472 -12.94723C115.94472 -10.86061 114.56677 -9.48266 112.51953 -9.48266C110.39354 -9.48266 109.01559 -10.86061 109.01559 -12.94723C109.01559 -13.65589 109.1337 -14.28581 109.40929 -14.75825L105.62977 -14.75825C104.36993 -14.75825 104.25182 -11.29368 104.25182 -10.54565L104.25182 -3.57716L105.39355 -3.57716C106.33843 -3.57716 108.3463 -3.61653 109.05496 -4.28582C109.40929 -4.67952 110.23606 -6.0181 110.82662 -6.0181C111.41717 -6.0181 111.25969 -4.4433 111.25969 -3.6559L111.25969 -1.64803C111.25969 -0.9 111.41717 0.59606 110.82662 0.59606C110.23606 0.59606 109.56677 -0.9 108.89748 -1.37244C108.11008 -1.96299 106.33843 -1.96299 105.39355 -1.96299L104.25182 -1.96299L104.25182 6.4622C104.25182 7.21023 104.36993 10.71416 105.62977 10.71416L109.44866 10.71416C109.17307 10.16298 109.01559 9.57243 109.01559 8.8244C109.01559 6.73779 110.39354 5.32046 112.51953 5.32046C114.56677 5.32046 115.94472 6.73779 115.94472 8.8244C115.94472 10.91101 114.56677 12.32833 112.51953 12.32833L104.48804 12.32833C103.58253 12.32833 102.28332 12.13148 100.90537 12.13148C99.56679 12.13148 98.22821 12.32833 97.3227 12.32833L96.22034 12.3677C95.59042 12.3677 94.99987 12.28896 94.99987 11.89526C94.99987 11.30471 96.33845 10.51731 96.73215 10.12361C97.40144 9.41495 97.44081 7.40708 97.44081 6.4622L97.44081 -10.54565C97.44081 -11.49053 97.40144 -13.49841 96.73215 -14.20707C96.33845 -14.5614 94.99987 -15.38817 94.99987 -15.93935Z" fill="rgb(255, 255, 255)" transform="matrix(1 0 0 1 149.944597 224.357731)"/></g></g>
<g style="" id="db4748e8-751c-46b6-8eaf-cb6c35fa4fdf">
<g style=""><path d="M-23.96441 7.55437C-24.42131 7.55437 -24.7183 7.46299 -24.83252 7.28023C-24.90106 7.16601 -24.99244 6.91471 -25.06097 6.57204C-25.35796 6.77764 -25.74632 7.02894 -26.22607 7.30308C-27.16271 7.8742 -28.30496 7.25739 -28.55626 6.77764C-28.69333 6.54919 -28.73902 6.20652 -28.67048 5.74962C-28.51057 4.74444 -27.80237 3.41943 -27.13987 2.61985C-26.56874 1.95735 -26.089 1.56898 -25.72348 1.40907C-24.53554 0.92932 -22.82216 0.99786 -22.34242 1.52329C-21.95405 1.91166 -22.06828 2.20864 -22.77647 2.59701C-23.23337 2.8483 -23.5532 2.96253 -23.73596 2.89399C-23.96441 2.80261 -24.19286 2.87115 -24.39847 3.07675C-25.06097 3.71641 -25.60925 4.42461 -26.089 5.17849C-26.56874 5.95522 -26.61443 6.48066 -26.27176 6.73195C-25.74632 6.20652 -24.74114 4.81297 -24.12433 3.89917L-23.66743 3.21382C-23.53036 3.07675 -23.39329 3.03106 -23.23337 3.0996C-22.8907 3.25951 -22.50233 3.69357 -22.66225 3.96771C-22.77647 4.17331 -22.8907 4.49314 -23.00492 4.88151C-23.21053 5.45263 -23.41613 6.34359 -23.00492 6.54919C-21.81698 6.16083 -20.1493 4.60737 -19.87516 3.48796C-19.71524 2.87115 -18.84713 2.41425 -18.64152 2.75692C-18.55014 2.89399 -18.57299 3.14529 -18.7329 3.51081C-18.89282 3.89917 -19.14412 4.31038 -19.48679 4.74444C-20.62904 6.16083 -22.25104 7.55437 -23.96441 7.55437Z" fill="rgb(255, 255, 255)" transform="matrix(1 0 0 1 149.965811 241.493331)"/><path d="M-21.67534 17.35488C-21.97233 17.14927 -22.26931 16.82944 -22.5663 16.41823C-22.7719 16.07556 -22.95466 15.71004 -23.09173 15.32167C-23.18311 15.02469 -23.25165 14.68201 -23.27449 14.29365C-23.29734 13.74537 -23.27449 13.24278 -23.16027 12.80872C-22.95466 11.9863 -21.72103 10.75267 -20.96715 11.50656C-20.83008 11.64363 -20.83008 11.7807 -20.98999 11.91777C-21.46974 12.37467 -21.83526 13.01433 -22.08655 13.85959C-22.29216 14.56779 -22.36069 15.13891 -22.33785 15.59581C-22.33785 15.80142 -22.315 16.02987 -22.24647 16.28116C-22.04086 16.44108 -21.83526 16.41823 -21.53827 16.21263C-20.46456 15.45874 -18.59127 12.16906 -15.94125 6.38928C-16.00978 6.43497 -16.07832 6.48066 -16.19254 6.54919C-16.30677 6.61773 -16.3753 6.66342 -16.44384 6.70911C-17.12919 7.14316 -17.58609 7.4173 -17.79169 7.53153C-18.04299 7.6686 -18.24859 7.75998 -18.38566 7.78282C-18.75118 7.8742 -18.95679 7.69144 -19.39084 6.98325C-19.98481 6.02376 -19.87059 4.95004 -19.04817 3.78495C-18.52273 2.98537 -17.90592 2.3914 -17.24341 1.98019C-16.85505 1.7289 -16.42099 1.63752 -15.96409 1.63752C-15.37012 1.63752 -14.79899 2.00304 -14.27356 2.75692C-14.02226 3.12244 -13.81666 3.53365 -13.70243 3.96771C-13.65674 4.12762 -13.65674 4.219 -13.70243 4.24185C-13.81666 4.31038 -14.04511 4.12762 -14.36494 3.67072C-14.57054 3.37374 -14.77615 3.23667 -15.07313 3.32805C-15.18736 3.35089 -15.27874 3.39658 -15.37012 3.46512C-16.35246 4.10478 -18.22575 6.06945 -18.6598 6.98325C-17.81454 7.53153 -17.26626 6.43497 -15.75849 4.9272C-15.14167 4.31038 -14.84468 3.96771 -14.84468 3.92202C-14.77615 3.83064 -13.47398 4.51599 -13.72528 5.01858C-14.13649 6.09229 -14.63908 7.30308 -15.23305 8.67378C-14.93606 8.42248 -14.68477 8.23972 -14.50201 8.1255C-14.02226 7.78282 -13.13131 6.93756 -11.82914 5.5897C-11.28086 5.01858 -10.77827 4.31038 -10.32137 3.51081C-10.20715 3.3052 -10.04723 3.12244 -9.79594 2.96253C-9.31619 2.66554 -9.04205 2.57416 -8.97352 2.68839C-8.83645 2.82546 -8.79076 2.93968 -8.8136 3.00822C-9.38473 4.15047 -10.02439 5.08711 -10.73258 5.841C-11.98906 7.14316 -13.06277 8.05696 -13.93088 8.55955C-14.34209 8.788 -14.82184 9.10783 -15.09598 9.35913C-15.37012 9.56473 -15.78133 9.97594 -15.84987 10.04448C-17.67747 13.92813 -19.02532 16.18978 -19.87059 16.85229C-20.19042 17.10358 -20.53309 17.2635 -20.89861 17.35488C-21.1956 17.42341 -21.46974 17.42341 -21.67534 17.35488Z" fill="rgb(255, 255, 255)" transform="matrix(1 0 0 1 149.965811 241.493331)"/><path d="M-8.35213 7.55437C-8.78619 7.39446 -9.1974 7.12032 -9.58576 6.73195C-10.3168 5.42979 -9.54007 2.89399 -7.3698 1.98019C-6.52453 1.61467 -5.86203 1.70605 -5.47366 1.95735C-4.55986 2.55132 -4.55986 3.83064 -4.87969 4.24185C-5.22237 4.69875 -6.77583 5.24703 -7.5754 5.08711C-7.73532 5.47548 -7.71247 5.841 -7.52971 6.16083C-6.86721 7.25739 -5.67927 6.7548 -4.42279 6.00091C-3.18916 5.29272 -2.25252 4.42461 -1.59001 3.44227C-1.49863 3.28236 -1.29303 3.12244 -0.99604 2.96253C-0.56199 2.71123 -0.265 2.6427 -0.15078 2.73408C-0.10509 2.75692 -0.10509 2.82546 -0.17362 2.89399C-1.01889 4.17331 -2.3439 5.33841 -4.19434 6.41212C-5.93056 7.4173 -7.32411 7.80567 -8.35213 7.55437ZM-6.52453 3.96771C-5.61073 3.3052 -5.22237 3.03106 -5.2909 2.89399C-5.38228 2.77977 -5.51935 2.75692 -5.70211 2.80261C-6.09048 3.0996 -6.41031 3.39658 -6.70729 3.73926C-6.70729 3.85348 -6.63876 3.92202 -6.52453 3.96771Z" fill="rgb(255, 255, 255)" transform="matrix(1 0 0 1 149.965811 241.493331)"/><path d="M2.73226 7.34877C2.52666 7.32592 2.25252 7.18885 2.13829 6.93756C2.04691 6.7548 2.27536 5.88669 2.82364 4.33323C2.38959 4.58452 2.04691 4.79013 1.81846 4.95004C1.36156 5.24703 0.63052 5.841 0.44776 6.38928C0.37923 6.57204 0.37923 6.77764 0.44776 6.98325C0.53914 7.37161 0.01371 7.60006 -0.46604 7.2117C-1.3113 6.52635 -1.12854 4.97289 -0.62595 3.83064C-0.07767 2.61985 0.33354 1.91166 0.95035 1.52329C1.29303 1.34053 1.887 1.50045 2.0926 1.70605C2.3439 1.95735 2.3439 2.23149 2.25252 2.59701C2.20683 2.77977 2.11545 3.00822 2.00122 3.25951C1.77277 3.71641 1.61286 3.99055 1.36156 4.4703L1.29303 4.60737C2.22967 3.57934 3.73744 2.25433 4.12581 2.00304C4.76547 1.68321 5.9991 1.75174 5.9991 2.55132C5.9991 4.26469 3.21201 6.13798 4.12581 6.2979C4.55986 6.36643 5.93056 5.88669 6.57022 5.33841C7.02712 4.95004 7.46118 4.35607 7.89523 3.60219C8.10084 3.25951 8.26075 3.03106 8.39782 2.93968C8.7405 2.71123 8.96895 2.68839 9.12886 2.87115C9.17455 2.91684 9.17455 2.98537 9.15171 3.05391C8.90041 3.87633 8.19222 4.76728 7.02712 5.70393C5.7478 6.73195 3.48615 7.50868 2.73226 7.34877Z" fill="rgb(255, 255, 255)" transform="matrix(1 0 0 1 149.965811 241.493331)"/><path d="M10.07008 7.91989C9.61318 7.91989 9.15628 7.73713 8.67653 7.34877C7.51144 6.38928 8.51662 3.03106 11.00672 1.61467C11.48647 1.34053 12.03475 1.20346 12.67441 1.20346C13.31407 1.20346 13.74812 1.38622 13.95373 1.75174C14.25071 2.27718 14.15933 2.80261 14.11364 2.91684C13.8395 3.21382 13.13131 3.83064 12.97139 3.57934C12.94855 3.53365 12.99424 3.37374 13.10846 3.12244C13.22269 2.87115 13.24553 2.6427 13.177 2.43709C13.08562 2.1858 12.9257 2.1858 12.7201 2.34571C12.53734 2.43709 12.19466 2.77977 11.66923 3.37374C10.61836 4.58452 9.68171 6.34359 10.75543 6.86902C11.30371 7.14316 12.78863 6.68626 14.41063 5.77246C15.53004 5.1328 16.74082 3.85348 17.01496 3.48796C17.38048 3.03106 17.70031 2.75692 17.97445 2.6427C18.22575 2.52847 18.40851 2.57416 18.49989 2.77977C18.2029 3.7621 16.85505 5.17849 15.09598 6.18367C13.47398 7.12032 11.23517 7.91989 10.07008 7.91989Z" fill="rgb(255, 255, 255)" transform="matrix(1 0 0 1 149.965811 241.493331)"/><path d="M14.82641 17.40057C14.52942 17.42341 14.20959 16.78375 14.09537 16.39539C14.02683 16.23547 14.04968 16.00702 14.14106 15.66435C14.34666 14.979 14.6208 14.70486 14.71218 14.7277C15.55745 15.02469 16.42556 14.84193 17.27082 14.20227C17.93333 13.12855 18.66437 11.75785 19.46395 10.09017C20.19499 8.5824 20.88034 7.07463 21.54284 5.54401C20.03507 6.89187 19.07558 7.53153 18.68721 7.46299L18.18462 7.2117C17.29367 6.77764 17.56781 5.01858 18.02471 3.83064C18.50445 2.57416 18.96135 1.86597 19.60102 1.52329C19.98938 1.31769 20.53766 1.40907 20.74327 1.70605C20.92603 1.95735 20.97172 2.25433 20.90318 2.59701C20.85749 2.77977 20.76611 3.00822 20.65189 3.25951C20.40059 3.78495 20.3549 3.89917 20.01223 4.4703C19.39541 5.52117 19.25834 6.11514 19.64671 6.27505C20.01223 6.13798 20.40059 5.68108 20.8118 5.24703C21.58853 4.35607 21.81698 4.08193 21.93121 3.92202C22.22819 3.5565 22.50233 3.19098 22.70794 2.82546C22.95923 2.32287 23.21053 1.98019 23.46182 1.77459C23.66743 1.59183 23.89588 1.50045 24.10148 1.52329C24.55838 1.56898 24.83252 1.95735 24.83252 2.1858C23.85019 4.65306 22.79932 7.05178 21.67991 9.38197C21.65707 9.42766 21.63422 9.4962 21.61138 9.56473C21.56569 9.63327 21.54284 9.67896 21.52 9.7018C22.04543 9.22206 23.64458 7.69144 24.37562 6.98325C26.04331 5.33841 26.97995 4.28754 27.36832 3.48796C27.41401 3.39658 27.55108 3.25951 27.77953 3.05391C28.14505 2.75692 28.64764 2.57416 28.76186 2.68839C28.78471 2.71123 28.76186 2.82546 28.67048 2.98537C26.95711 6.11514 23.30191 8.94792 21.24586 11.16388C21.10879 11.30095 20.92603 11.50656 20.67473 11.7807C20.42344 12.05484 20.24068 12.26044 20.12645 12.37467C19.82947 12.94579 19.55533 13.40269 19.30403 13.79106C18.91566 14.38503 18.57299 14.91046 18.23031 15.34452C17.95617 15.68719 17.59065 16.07556 17.13375 16.46392C16.83677 16.71522 16.56263 16.89798 16.31133 17.03505C16.10573 17.14927 15.62598 17.2635 14.82641 17.40057ZM15.92297 16.05271C15.94581 16.02987 16.06004 15.91564 16.26564 15.66435C16.31133 15.59581 16.40271 15.50443 16.51694 15.34452C16.19711 15.50443 15.7859 15.66435 15.30615 15.77857C15.51176 15.96133 15.76305 16.05271 15.92297 16.05271ZM19.50964 6.2979C19.50964 6.2979 19.50964 6.2979 19.50964 6.2979C19.50964 6.2979 19.50964 6.2979 19.50964 6.2979Z" fill="rgb(255, 255, 255)" transform="matrix(1 0 0 1 149.965811 241.493331)"/></g></g>

  </svg>